{
.appVersion = "1216";
DisplayStrings = (
"/commercialMinusSign ×%/perthousand"
);
classes = (
{
automatic = 1;

glyphs = (
{
glyphname = A;
layers = (
{
anchors = (
{
name = bottom;
position = "{342, 0}";
},
{
name = ogonek;
position = "{643, 0}";
},
{
name = top;
position = "{342, 688}";
}
);
background = {
anchors = (
{
name = bottom;
position = "{342, 0}";
},
{
name = ogonek;
position = "{615, 10}";
},
{
name = top;
position = "{342, 688}";
}
);
paths = (
{
closed = 1;
nodes = (
"643 0 LINE",
"359 688 LINE",
"324 688 LINE",
"40 0 LINE",
"78 0 LINE",
"169 222 LINE",
"513 222 LINE",
"604 0 LINE"
);
},
{
closed = 1;
nodes = (
"499 256 LINE",
"183 256 LINE",
"339 637 LINE",
"344 637 LINE"
);
}
);
};
layerId = UUID0;
paths = (
{
closed = 1;
nodes = (
"78 0 LINE",
"169 222 LINE",
"513 222 LINE",
"604 0 LINE",
"643 0 LINE",
"359 688 LINE",
"324 688 LINE",
"40 0 LINE"
);
},
{
closed = 1;
nodes = (
"339 637 LINE",
"344 637 LINE",
"499 256 LINE",
"183 256 LINE"
);
}
);
width = 683;
},
{
anchors = (
{
name = bottom;
position = "{349, 0}";
},
{
name = ogonek;
position = "{702, 0}";
},
{
name = top;
position = "{349, 688}";
}
);
background = {
anchors = (
{
name = bottom;
position = "{349, 0}";
},
{
name = ogonek;
position = "{627, 10}";
},
{
name = top;
position = "{349, 688}";
}
);
paths = (
{
closed = 1;
nodes = (
"702 0 LINE",
"511 688 LINE",
"186 688 LINE",
"-5 0 LINE",
"222 0 LINE",
"246 103 LINE",
"445 103 LINE",
"470 0 LINE"
);
},
{
closed = 1;
nodes = (
"406 263 LINE",
"284 263 LINE",
"340 500 LINE",
"349 500 LINE"
);
}
);
};
layerId = "4F93A97B-747D-4721-B098-38A63C534D7A";
paths = (
{
closed = 1;
nodes = (
"222 0 LINE",
"246 103 LINE",
"445 103 LINE",
"470 0 LINE",
"702 0 LINE",
"511 688 LINE",
"186 688 LINE",
"-5 0 LINE"
);
},
{
closed = 1;
nodes = (
"340 500 LINE",
"349 500 LINE",
"406 263 LINE",
"284 263 LINE"
);
}
);
width = 697;
},
{
anchors = (
{
name = bottom;
position = "{201, 0}";
},
{
name = ogonek;
position = "{381, 0}";
},
{
name = top;
position = "{201, 688}";
}
);
background = {
anchors = (
{
name = bottom;
position = "{201, 0}";
},
{
name = ogonek;
position = "{361, 10}";
},
{
name = top;
position = "{201, 688}";
}
);
paths = (
{
closed = 1;
nodes = (
"381 0 LINE",
"221 688 LINE",
"180 688 LINE",
"20 0 LINE",
"56 0 LINE",
"105 217 LINE",
"294 217 LINE",
"344 0 LINE"
);
},
{
closed = 1;
nodes = (
"286 251 LINE",
"113 251 LINE",
"197 617 LINE",
"202 617 LINE"
);
}
);
};
layerId = "E6BBBBE7-ECAD-4929-840D-43673C7BDEAF";
paths = (
{
closed = 1;
nodes = (
"56 0 LINE",
"105 217 LINE",
"294 217 LINE",
"344 0 LINE",
"381 0 LINE",
"221 688 LINE",
"180 688 LINE",
"20 0 LINE"
);
},
{
closed = 1;
nodes = (
"197 617 LINE",
"202 617 LINE",
"286 251 LINE",
"113 251 LINE"
);
}
);
width = 401;
},
{
anchors = (
{
name = bottom;
position = "{214, 0}";
},
{
name = ogonek;
position = "{423, 0}";
},
{
name = top;
position = "{214, 688}";
}
);
background = {
anchors = (
{
name = bottom;
position = "{214, 0}";
},
{
name = ogonek;
position = "{384, 10}";
},
{
name = top;
position = "{214, 688}";
}
);
paths = (
{
closed = 1;
nodes = (
"423 0 LINE",
"330 688 LINE",
"97 688 LINE",
"4 0 LINE",
"157 0 LINE",
"169 124 LINE",
"256 124 LINE",
"268 0 LINE"
);
},
{
closed = 1;
nodes = (
"243 259 LINE",
"182 259 LINE",
"209 543 LINE",
"216 543 LINE"
);
}
);
};
layerId = "7836D3B9-397C-42C1-8084-A98A44B9119A";
paths = (
{
closed = 1;
nodes = (
"157 0 LINE",
"169 124 LINE",
"256 124 LINE",
"268 0 LINE",
"423 0 LINE",
"330 688 LINE",
"97 688 LINE",
"4 0 LINE"
);
},
{
closed = 1;
nodes = (
"209 543 LINE",
"216 543 LINE",
"243 259 LINE",
"182 259 LINE"
);
}
);
width = 427;
},
{
anchors = (
{
name = bottom;
position = "{253, 0}";
},
{
name = ogonek;
position = "{493, 0}";
},
{
name = top;
position = "{253, 688}";
}
);
background = {
anchors = (
{
name = bottom;
position = "{253, 0}";
},
{
name = ogonek;
position = "{454, 10}";
},
{
name = top;
position = "{253, 688}";
}
);
paths = (
{
closed = 1;
nodes = (
"493 0 LINE",
"333 688 LINE",
"172 688 LINE",
"12 0 LINE",
"124 0 LINE",
"158 158 LINE",
"343 158 LINE",
"378 0 LINE"
);
},
{
closed = 1;
nodes = (
"320 258 LINE",
"180 258 LINE",
"248 577 LINE",
"254 577 LINE"
);
}
);
};
layerId = "374FF654-0B40-45EE-AE97-0DEB7620D1EC";
paths = (
{
closed = 1;
nodes = (
"124 0 LINE",
"158 158 LINE",
"343 158 LINE",
"378 0 LINE",
"493 0 LINE",
"333 688 LINE",
"172 688 LINE",
"12 0 LINE"
);
},
{
closed = 1;
nodes = (
"248 577 LINE",
"254 577 LINE",
"320 258 LINE",
"180 258 LINE"
);
}
);
width = 505;
},
{
anchors = (
{
name = bottom;
position = "{343.555, 0}";
},
{
name = ogonek;
position = "{617.303, 10}";
},
{
name = top;
position = "{343.555, 688}";
}
);
associatedMasterId = UUID0;
background = {
paths = (
{
closed = 1;
nodes = (
"676 0 LINE",
"454 688 LINE",
"232 688 LINE",
"10 0 LINE",
"175 0 LINE",
"216 139 LINE",
"465 139 LINE",
"508 0 LINE"
);
},
{
closed = 1;
nodes = (
"425 273 LINE",
"256 273 LINE",
"337 545 LINE",
"342 545 LINE"
);
}
);
};
layerId = "D1B98375-3969-4978-BD24-25DF06C35751";
name = "Intermediate {152, 307}";
paths = (
{
closed = 1;
nodes = (
"175 0 LINE",
"216 139 LINE",
"465 139 LINE",
"508 0 LINE",
"676 0 LINE",
"454 688 LINE",
"232 688 LINE",
"10 0 LINE"
);
},
{
closed = 1;
nodes = (
"337 545 LINE",
"342 545 LINE",
"425 273 LINE",
"256 273 LINE"
);
}
);
width = 686;
},
{
anchors = (
{
name = bottom;
position = "{342, 0}";
},
{
name = ogonek;
position = "{666, 0}";
},
{
name = top;
position = "{342, 688}";
}
);
background = {
anchors = (
{
name = bottom;
position = "{342, 0}";
},
{
name = ogonek;
position = "{616, 10}";
},
{
name = top;
position = "{342, 688}";
}
);
paths = (
{
closed = 1;
nodes = (
"666 0 LINE",
"427 688 LINE",
"257 688 LINE",
"18 0 LINE",
"147 0 LINE",
"200 160 LINE",
"480 160 LINE",
"534 0 LINE"
);
},
{
closed = 1;
nodes = (
"443 268 LINE",
"236 268 LINE",
"337 568 LINE",
"342 568 LINE"
);
}
);
};
layerId = "E7A95A6A-7487-49EE-B62A-BA87B06E4B57";
paths = (
{
closed = 1;
nodes = (
"147 0 LINE",
"200 160 LINE",
"480 160 LINE",
"534 0 LINE",
"666 0 LINE",
"427 688 LINE",
"257 688 LINE",
"18 0 LINE"
);
},
{
closed = 1;
nodes = (
"337 568 LINE",
"342 568 LINE",
"443 268 LINE",
"236 268 LINE"
);
}
);
width = 684;
}
);
leftKerningGroup = A;
rightKerningGroup = A;
unicode = 0041;
},
{
glyphname = Aogonek;
layers = (
{
components = (
{
name = A;
},
{
name = ogonekcomb.case;
transform = "{1, 0, 0, 1, 546, -4}";
}
);
layerId = UUID0;
width = 683;
},
{
background = {
anchors = (
{
name = bottom;
position = "{342, 0}";
},
{
name = top;
position = "{342, 688}";
}
);
paths = (
{
closed = 1;
nodes = (
"600 -196 OFFCURVE",
"616 -195 OFFCURVE",
"641 -193 CURVE",
"641 -123 LINE",
"636 -123 OFFCURVE",
"628 -124 OFFCURVE",
"624 -124 CURVE SMOOTH",
"587 -124 OFFCURVE",
"577 -109 OFFCURVE",
"577 -88 CURVE SMOOTH",
"577 -58 OFFCURVE",
"609 -20 OFFCURVE",
"635 0 CURVE",
"666 0 LINE",
"427 688 LINE",
"257 688 LINE",
"18 0 LINE",
"147 0 LINE",
"200 160 LINE",
"480 160 LINE",
"534 1 LINE",
"499 -34 OFFCURVE",
"475 -76 OFFCURVE",
"475 -115 CURVE SMOOTH",
"475 -159 OFFCURVE",
"497 -196 OFFCURVE",
"587 -196 CURVE SMOOTH"
);
},
{
closed = 1;
nodes = (
"337 568 LINE",
"342 568 LINE",
"443 268 LINE",
"236 268 LINE"
);
}
);
};
components = (
{
name = A;
},
{
name = ogonekcomb.case;
transform = "{1, 0, 0, 1, 501, -4}";
}
);
layerId = "E7A95A6A-7487-49EE-B62A-BA87B06E4B57";
width = 684;
},
{
background = {
anchors = (
{
name = bottom;
position = "{349, 0}";
},
{
name = top;
position = "{349, 688}";
}
);
paths = (
{
closed = 1;
nodes = (
"583 -196 OFFCURVE",
"620 -194 OFFCURVE",
"643 -192 CURVE",
"643 -98 LINE",
"634 -99 OFFCURVE",
"629 -99 OFFCURVE",
"626 -99 CURVE SMOOTH",
"587 -99 OFFCURVE",
"579 -85 OFFCURVE",
"579 -66 CURVE SMOOTH",
"579 -42 OFFCURVE",
"610 -15 OFFCURVE",
"635 0 CURVE",
"702 0 LINE",
"511 688 LINE",
"186 688 LINE",
"-5 0 LINE",
"222 0 LINE",
"246 103 LINE",
"445 103 LINE",
"470 1 LINE",
"435 -31 OFFCURVE",
"411 -70 OFFCURVE",
"411 -107 CURVE SMOOTH",
"411 -154 OFFCURVE",
"443 -196 OFFCURVE",
"556 -196 CURVE SMOOTH"
);
},
{
closed = 1;
nodes = (
"340 500 LINE",
"349 500 LINE",
"406 263 LINE",
"284 263 LINE"
);
}
);
};
components = (
{
name = A;
},
{
name = ogonekcomb.case;
transform = "{1, 0, 0, 1, 471, -4}";
}
);
layerId = "4F93A97B-747D-4721-B098-38A63C534D7A";
width = 697;
},
{
background = {
anchors = (
{
name = bottom;
position = "{201, 0}";
},
{
name = top;
position = "{201, 688}";
}
);
paths = (
{
closed = 1;
nodes = (
"367 -196 OFFCURVE",
"371 -196 OFFCURVE",
"380 -195 CURVE",
"380 -163 LINE",
"371 -164 OFFCURVE",
"367 -164 OFFCURVE",
"363 -164 CURVE SMOOTH",
"328 -164 OFFCURVE",
"316 -144 OFFCURVE",
"316 -118 CURVE SMOOTH",
"316 -79 OFFCURVE",
"348 -26 OFFCURVE",
"375 0 CURVE",
"381 0 LINE",
"221 688 LINE",
"180 688 LINE",
"20 0 LINE",
"56 0 LINE",
"105 217 LINE",
"294 217 LINE",
"343 3 LINE",
"308 -33 OFFCURVE",
"282 -83 OFFCURVE",
"282 -124 CURVE SMOOTH",
"282 -165 OFFCURVE",
"303 -196 OFFCURVE",
"358 -196 CURVE SMOOTH"
);
},
{
closed = 1;
nodes = (
"197 617 LINE",
"202 617 LINE",
"286 251 LINE",
"113 251 LINE"
);
}
);
};
components = (
{
name = A;
},
{
name = ogonekcomb.case;
transform = "{1, 0, 0, 1, 284, -4}";
}
);
layerId = "E6BBBBE7-ECAD-4929-840D-43673C7BDEAF";
width = 401;
},
{
background = {
anchors = (
{
name = bottom;
position = "{253, 0}";
},
{
name = top;
position = "{253, 688}";
}
);
paths = (
{
closed = 1;
nodes = (
"432 -196 OFFCURVE",
"447 -195 OFFCURVE",
"465 -193 CURVE",
"465 -131 LINE",
"462 -132 OFFCURVE",
"456 -132 OFFCURVE",
"451 -132 CURVE SMOOTH",
"418 -132 OFFCURVE",
"409 -115 OFFCURVE",
"409 -93 CURVE SMOOTH",
"409 -61 OFFCURVE",
"437 -21 OFFCURVE",
"459 0 CURVE",
"493 0 LINE",
"333 688 LINE",
"172 688 LINE",
"12 0 LINE",
"124 0 LINE",
"158 158 LINE",
"343 158 LINE",
"378 2 LINE",
"346 -32 OFFCURVE",
"323 -75 OFFCURVE",
"323 -114 CURVE SMOOTH",
"323 -158 OFFCURVE",
"345 -196 OFFCURVE",
"419 -196 CURVE SMOOTH"
);
},
{
closed = 1;
nodes = (
"248 577 LINE",
"254 577 LINE",
"320 258 LINE",
"180 258 LINE"
);
}
);
};
components = (
{
name = A;
},
{
name = ogonekcomb.case;
transform = "{1, 0, 0, 1, 352, -4}";
}
);
layerId = "374FF654-0B40-45EE-AE97-0DEB7620D1EC";
width = 505;
},
{
background = {
anchors = (
{
name = top;
position = "{214, 688}";
}
);
paths = (
{
closed = 1;
nodes = (
"335 -196 OFFCURVE",
"357 -194 OFFCURVE",
"370 -191 CURVE",
"370 -117 LINE",
"364 -118 OFFCURVE",
"362 -118 OFFCURVE",
"360 -118 CURVE SMOOTH",
"332 -118 OFFCURVE",
"327 -101 OFFCURVE",
"327 -81 CURVE SMOOTH",
"327 -51 OFFCURVE",
"349 -17 OFFCURVE",
"365 0 CURVE",
"423 0 LINE",
"330 688 LINE",
"97 688 LINE",
"4 0 LINE",
"157 0 LINE",
"169 124 LINE",
"256 124 LINE",
"268 2 LINE",
"240 -28 OFFCURVE",
"219 -69 OFFCURVE",
"219 -105 CURVE SMOOTH",
"219 -153 OFFCURVE",
"243 -196 OFFCURVE",
"316 -196 CURVE SMOOTH"
);
},
{
closed = 1;
nodes = (
"209 543 LINE",
"216 543 LINE",
"243 259 LINE",
"182 259 LINE"
);
}
);
};
components = (
{
name = A;
},
{
name = ogonekcomb.case;
transform = "{1, 0, 0, 1, 273, -4}";
}
);
layerId = "7836D3B9-397C-42C1-8084-A98A44B9119A";
width = 427;
}
);
leftKerningGroup = A;
rightKerningGroup = A;
unicode = 0104;
},
{
glyphname = Aring;
layers = (
{
background = {
paths = (
{
closed = 1;
nodes = (
"78 0 LINE",
"169 222 LINE",
"513 222 LINE",
"604 0 LINE",
"643 0 LINE",
"366 672 LINE",
"348 659 LINE",
"449 661 OFFCURVE",
"454 684 OFFCURVE",
"454 753 CURVE SMOOTH",
"454 823 OFFCURVE",
"448 847 OFFCURVE",
"341 847 CURVE SMOOTH",
"235 847 OFFCURVE",
"229 823 OFFCURVE",
"229 753 CURVE SMOOTH",
"229 684 OFFCURVE",
"235 660 OFFCURVE",
"335 659 CURVE",
"317 672 LINE",
"40 0 LINE"
);
},
{
closed = 1;
nodes = (
"339 637 LINE",
"344 637 LINE",
"499 256 LINE",
"183 256 LINE"
);
},
{
closed = 1;
nodes = (
"263 688 OFFCURVE",
"262 702 OFFCURVE",
"262 753 CURVE SMOOTH",
"262 804 OFFCURVE",
"263 819 OFFCURVE",
"341 819 CURVE SMOOTH",
"420 819 OFFCURVE",
"421 804 OFFCURVE",
"421 753 CURVE SMOOTH",
"421 702 OFFCURVE",
"420 688 OFFCURVE",
"341 688 CURVE SMOOTH"
);
}
);
};
components = (
{
name = A;
},
{
alignment = -1;
name = ringcomb;
transform = "{1, 0, 0, 1, 229, 69}";
}
);
layerId = UUID0;
width = 683;
},
{
background = {
paths = (
{
closed = 1;
nodes = (
"222 0 LINE",
"246 103 LINE",
"445 103 LINE",
"470 0 LINE",
"702 0 LINE",
"499 731 LINE",
"495 671 LINE",
"523 692 OFFCURVE",
"530 729 OFFCURVE",
"530 787 CURVE SMOOTH",
"530 896 OFFCURVE",
"509 932 OFFCURVE",
"348 932 CURVE SMOOTH",
"187 932 OFFCURVE",
"167 896 OFFCURVE",
"167 787 CURVE SMOOTH",
"167 729 OFFCURVE",
"172 692 OFFCURVE",
"204 671 CURVE",
"198 731 LINE",
"-5 0 LINE"
);
},
{
closed = 1;
nodes = (
"340 500 LINE",
"349 500 LINE",
"406 263 LINE",
"284 263 LINE"
);
},
{
closed = 1;
nodes = (
"290 734 OFFCURVE",
"290 745 OFFCURVE",
"290 787 CURVE SMOOTH",
"290 830 OFFCURVE",
"290 842 OFFCURVE",
"348 842 CURVE SMOOTH",
"408 842 OFFCURVE",
"408 830 OFFCURVE",
"408 787 CURVE SMOOTH",
"408 745 OFFCURVE",
"408 734 OFFCURVE",
"348 734 CURVE SMOOTH"
);
}
);
};
components = (
{
name = A;
},
{
alignment = -1;
name = ringcomb;
transform = "{1.18, 0, 0, 1.18, 166, -8}";
}
);
layerId = "4F93A97B-747D-4721-B098-38A63C534D7A";
width = 697;
},
{
background = {
paths = (
{
closed = 1;
nodes = (
"56 0 LINE",
"105 217 LINE",
"294 217 LINE",
"344 0 LINE",
"381 0 LINE",
"219 698 LINE",
"211 687 LINE",
"273 688 OFFCURVE",
"281 712 OFFCURVE",
"281 772 CURVE SMOOTH",
"281 836 OFFCURVE",
"272 858 OFFCURVE",
"200 858 CURVE SMOOTH",
"128 858 OFFCURVE",
"120 836 OFFCURVE",
"120 772 CURVE SMOOTH",
"120 711 OFFCURVE",
"126 689 OFFCURVE",
"190 686 CURVE",
"182 698 LINE",
"20 0 LINE"
);
},
{
closed = 1;
nodes = (
"197 617 LINE",
"202 617 LINE",
"286 251 LINE",
"113 251 LINE"
);
},
{
closed = 1;
nodes = (
"157 715 OFFCURVE",
"153 727 OFFCURVE",
"153 772 CURVE SMOOTH",
"153 817 OFFCURVE",
"157 830 OFFCURVE",
"200 830 CURVE SMOOTH",
"243 830 OFFCURVE",
"248 817 OFFCURVE",
"248 772 CURVE SMOOTH",
"248 727 OFFCURVE",
"243 715 OFFCURVE",
"200 715 CURVE SMOOTH"
);
}
);
};
components = (
{
name = A;
},
{
alignment = -1;
name = ringcomb;
transform = "{1, 0, 0, 1, 120, 111}";
}
);
layerId = "E6BBBBE7-ECAD-4929-840D-43673C7BDEAF";
width = 401;
},
{
background = {
paths = (
{
closed = 1;
nodes = (
"157 0 LINE",
"169 124 LINE",
"256 124 LINE",
"268 0 LINE",
"423 0 LINE",
"324 733 LINE",
"313 670 LINE",
"339 687 OFFCURVE",
"341 719 OFFCURVE",
"341 762 CURVE SMOOTH",
"341 836 OFFCURVE",
"339 874 OFFCURVE",
"214 874 CURVE SMOOTH",
"89 874 OFFCURVE",
"86 836 OFFCURVE",
"86 762 CURVE SMOOTH",
"86 718 OFFCURVE",
"86 687 OFFCURVE",
"118 669 CURVE",
"104 732 LINE",
"4 0 LINE"
);
},
{
closed = 1;
nodes = (
"209 543 LINE",
"216 543 LINE",
"243 259 LINE",
"182 259 LINE"
);
},
{
closed = 1;
nodes = (
"179 725 OFFCURVE",
"179 732 OFFCURVE",
"179 762 CURVE SMOOTH",
"179 793 OFFCURVE",
"179 801 OFFCURVE",
"214 801 CURVE SMOOTH",
"249 801 OFFCURVE",
"249 793 OFFCURVE",
"249 762 CURVE SMOOTH",
"249 732 OFFCURVE",
"249 725 OFFCURVE",
"214 725 CURVE SMOOTH"
);
}
);
};
components = (
{
name = A;
},
{
alignment = -1;
name = ringcomb;
transform = "{1, 0, 0, 1, 85, 94}";
}
);
layerId = "7836D3B9-397C-42C1-8084-A98A44B9119A";
width = 427;
},
{
background = {
paths = (
{
closed = 1;
nodes = (
"124 0 LINE",
"158 158 LINE",
"343 158 LINE",
"378 0 LINE",
"493 0 LINE",
"322 733 LINE",
"292 678 LINE",
"368 685 OFFCURVE",
"371 719 OFFCURVE",
"371 781 CURVE SMOOTH",
"371 853 OFFCURVE",
"367 887 OFFCURVE",
"251 887 CURVE SMOOTH",
"137 887 OFFCURVE",
"133 853 OFFCURVE",
"133 781 CURVE SMOOTH",
"133 718 OFFCURVE",
"136 685 OFFCURVE",
"212 677 CURVE",
"182 732 LINE",
"12 0 LINE"
);
},
{
closed = 1;
nodes = (
"248 577 LINE",
"254 577 LINE",
"320 258 LINE",
"180 258 LINE"
);
},
{
closed = 1;
nodes = (
"203 731 OFFCURVE",
"202 742 OFFCURVE",
"202 781 CURVE SMOOTH",
"202 820 OFFCURVE",
"203 832 OFFCURVE",
"251 832 CURVE SMOOTH",
"301 832 OFFCURVE",
"302 820 OFFCURVE",
"302 781 CURVE SMOOTH",
"302 742 OFFCURVE",
"301 731 OFFCURVE",
"251 731 CURVE SMOOTH"
);
}
);
};
components = (
{
name = A;
},
{
alignment = -1;
name = ringcomb;
transform = "{0.98, 0, 0, 0.98, 134, 123}";
}
);
layerId = "374FF654-0B40-45EE-AE97-0DEB7620D1EC";
width = 505;
},
{
background = {
paths = (
{
closed = 1;
nodes = (
"147 0 LINE",
"200 160 LINE",
"480 160 LINE",
"534 0 LINE",
"666 0 LINE",
"409 738 LINE",
"374 679 LINE",
"476 685 OFFCURVE",
"482 720 OFFCURVE",
"482 793 CURVE SMOOTH",
"482 871 OFFCURVE",
"475 908 OFFCURVE",
"341 908 CURVE SMOOTH",
"209 908 OFFCURVE",
"203 871 OFFCURVE",
"203 793 CURVE SMOOTH",
"203 720 OFFCURVE",
"208 685 OFFCURVE",
"309 679 CURVE",
"274 738 LINE",
"18 0 LINE"
);
},
{
closed = 1;
nodes = (
"337 568 LINE",
"342 568 LINE",
"443 268 LINE",
"236 268 LINE"
);
},
{
closed = 1;
nodes = (
"273 734 OFFCURVE",
"272 747 OFFCURVE",
"272 793 CURVE SMOOTH",
"272 839 OFFCURVE",
"273 852 OFFCURVE",
"341 852 CURVE SMOOTH",
"412 852 OFFCURVE",
"412 839 OFFCURVE",
"412 793 CURVE SMOOTH",
"412 747 OFFCURVE",
"412 734 OFFCURVE",
"341 734 CURVE SMOOTH"
);
}
);
};
components = (
{
name = A;
},
{
alignment = -1;
name = ringcomb;
transform = "{1, 0, 0, 1, 203, 106}";
}
);
layerId = "E7A95A6A-7487-49EE-B62A-BA87B06E4B57";
width = 684;
}
);
unicode = 00C5;
},
{
glyphname = AE;
layers = (
{
anchors = (
{
name = bottom;
position = "{468, 0}";
},
{
name = top;
position = "{468, 688}";
}
);
background = {
anchors = (
{
name = top;
position = "{474, 688}";
}
);
paths = (
{
closed = 1;
nodes = (
"890 0 LINE",
"890 34 LINE",
"592 34 LINE",
"500 331 LINE",
"843 331 LINE",
"843 365 LINE",
"490 365 LINE",
"400 654 LINE",
"890 654 LINE",
"890 688 LINE",
"354 688 LINE",
"0 0 LINE",
"38 0 LINE",
"151 222 LINE",
"496 222 LINE",
"564 0 LINE"
);
},
{
closed = 1;
nodes = (
"485 256 LINE",
"169 256 LINE",
"364 637 LINE",
"369 637 LINE"
);
}
);
};
layerId = UUID0;
paths = (
{
closed = 1;
nodes = (
"38 0 LINE",
"151 222 LINE",
"496 222 LINE",
"564 0 LINE",
"890 0 LINE",
"890 34 LINE",
"592 34 LINE",
"500 331 LINE",
"843 331 LINE",
"843 365 LINE",
"490 365 LINE",
"400 654 LINE",
"890 654 LINE",
"890 688 LINE",
"354 688 LINE",
"0 0 LINE"
);
},
{
closed = 1;
nodes = (
"364 637 LINE",
"369 637 LINE",
"485 256 LINE",
"169 256 LINE"
);
}
);
width = 947;
},
{
anchors = (
{
name = bottom;
position = "{490, 0}";
},
{
name = top;
position = "{490, 688}";
}
);
background = {
anchors = (
{
name = top;
position = "{490, 688}";
}
);
paths = (
{
closed = 1;
nodes = (
"932 0 LINE",
"932 167 LINE",
"646 167 LINE",
"636 266 LINE",
"885 266 LINE",
"885 429 LINE",
"618 429 LINE",
"609 521 LINE",
"932 521 LINE",
"932 688 LINE",
"284 688 LINE",
"-25 0 LINE",
"202 0 LINE",
"242 106 LINE",
"445 106 LINE",
"455 0 LINE"
);
},
{
closed = 1;
nodes = (
"431 266 LINE",
"303 266 LINE",
"400 521 LINE",
"409 521 LINE"
);
}
);
};
layerId = "4F93A97B-747D-4721-B098-38A63C534D7A";
paths = (
{
closed = 1;
nodes = (
"202 0 LINE",
"242 106 LINE",
"445 106 LINE",
"455 0 LINE",
"932 0 LINE",
"932 167 LINE",
"646 167 LINE",
"636 266 LINE",
"885 266 LINE",
"885 429 LINE",
"618 429 LINE",
"609 521 LINE",
"932 521 LINE",
"932 688 LINE",
"284 688 LINE",
"-25 0 LINE"
);
},
{
closed = 1;
nodes = (
"400 521 LINE",
"409 521 LINE",
"431 266 LINE",
"303 266 LINE"
);
}
);
width = 980;
},
{
anchors = (
{
name = bottom;
position = "{273, 0}";
},
{
name = top;
position = "{273, 688}";
}
);
background = {
anchors = (
{
name = top;
position = "{273, 688}";
}
);
paths = (
{
closed = 1;
nodes = (
"515 0 LINE",
"515 34 LINE",
"356 34 LINE",
"310 331 LINE",
"487 331 LINE",
"487 365 LINE",
"305 365 LINE",
"261 654 LINE",
"515 654 LINE",
"515 688 LINE",
"215 688 LINE",
"0 0 LINE",
"36 0 LINE",
"103 217 LINE",
"291 217 LINE",
"324 0 LINE"
);
},
{
closed = 1;
nodes = (
"286 251 LINE",
"113 251 LINE",
"227 617 LINE",
"232 617 LINE"
);
}
);
};
layerId = "E6BBBBE7-ECAD-4929-840D-43673C7BDEAF";
paths = (
{
closed = 1;
nodes = (
"36 0 LINE",
"103 217 LINE",
"291 217 LINE",
"324 0 LINE",
"515 0 LINE",
"515 34 LINE",
"356 34 LINE",
"310 331 LINE",
"487 331 LINE",
"487 365 LINE",
"305 365 LINE",
"261 654 LINE",
"515 654 LINE",
"515 688 LINE",
"215 688 LINE",
"0 0 LINE"
);
},
{
closed = 1;
nodes = (
"227 617 LINE",
"232 617 LINE",
"286 251 LINE",
"113 251 LINE"
);
}
);
width = 545;
},
{
anchors = (
{
name = bottom;
position = "{277, 0}";
},
{
name = top;
position = "{277, 688}";
}
);
background = {
anchors = (
{
name = top;
position = "{277, 688}";
}
);
paths = (
{
closed = 1;
nodes = (
"528 0 LINE",
"528 139 LINE",
"397 139 LINE",
"384 278 LINE",
"513 278 LINE",
"513 417 LINE",
"372 417 LINE",
"361 549 LINE",
"528 549 LINE",
"528 688 LINE",
"102 688 LINE",
"-15 0 LINE",
"138 0 LINE",
"154 124 LINE",
"245 124 LINE",
"254 0 LINE"
);
},
{
closed = 1;
nodes = (
"236 259 LINE",
"171 259 LINE",
"209 543 LINE",
"216 543 LINE"
);
}
);
};
layerId = "7836D3B9-397C-42C1-8084-A98A44B9119A";
paths = (
{
closed = 1;
nodes = (
"138 0 LINE",
"154 124 LINE",
"245 124 LINE",
"254 0 LINE",
"528 0 LINE",
"528 139 LINE",
"397 139 LINE",
"384 278 LINE",
"513 278 LINE",
"513 417 LINE",
"372 417 LINE",
"361 549 LINE",
"528 549 LINE",
"528 688 LINE",
"102 688 LINE",
"-15 0 LINE"
);
},
{
closed = 1;
nodes = (
"209 543 LINE",
"216 543 LINE",
"236 259 LINE",
"171 259 LINE"
);
}
);
width = 554;
},
{
anchors = (
{
name = bottom;
position = "{345, 0}";
},
{
name = top;
position = "{345, 688}";
}
);
background = {
anchors = (
{
name = top;
position = "{345, 688}";
}
);
paths = (
{
closed = 1;
nodes = (
"652 0 LINE",
"652 100 LINE",
"455 100 LINE",
"425 296 LINE",
"622 296 LINE",
"622 397 LINE",
"409 397 LINE",
"381 587 LINE",
"652 587 LINE",
"652 688 LINE",
"203 688 LINE",
"-9 0 LINE",
"101 0 LINE",
"148 158 LINE",
"332 158 LINE",
"354 0 LINE"
);
},
{
closed = 1;
nodes = (
"318 258 LINE",
"177 258 LINE",
"269 577 LINE",
"274 577 LINE"
);
}
);
};
layerId = "374FF654-0B40-45EE-AE97-0DEB7620D1EC";
paths = (
{
closed = 1;
nodes = (
"101 0 LINE",
"148 158 LINE",
"332 158 LINE",
"354 0 LINE",
"652 0 LINE",
"652 100 LINE",
"455 100 LINE",
"425 296 LINE",
"622 296 LINE",
"622 397 LINE",
"409 397 LINE",
"381 587 LINE",
"652 587 LINE",
"652 688 LINE",
"203 688 LINE",
"-9 0 LINE"
);
},
{
closed = 1;
nodes = (
"269 577 LINE",
"274 577 LINE",
"318 258 LINE",
"177 258 LINE"
);
}
);
width = 690;
},
{
anchors = (
{
name = bottom;
position = "{536, 0}";
},
{
name = top;
position = "{536, 688}";
}
);
associatedMasterId = UUID0;
background = {
paths = (
{
closed = 1;
nodes = (
"896 0 LINE",
"896 122 LINE",
"614 122 LINE",
"578 288 LINE",
"851 288 LINE",
"851 407 LINE",
"563 407 LINE",
"528 566 LINE",
"896 566 LINE",
"896 688 LINE",
"298 688 LINE",
"-17 0 LINE",
"145 0 LINE",
"207 145 LINE",
"451 145 LINE",
"479 0 LINE"
);
},
{
closed = 1;
nodes = (
"438 262 LINE",
"253 262 LINE",
"379 560 LINE",
"386 560 LINE"
);
}
);
};
layerId = "673DB81A-4CD3-4B60-8AE1-B35F6862F939";
name = "Intermediate {152, 307}";
paths = (
{
closed = 1;
nodes = (
"148 0 LINE",
"212 139 LINE",
"459 139 LINE",
"482 0 LINE",
"916 0 LINE",
"916 133 LINE",
"622 133 LINE",
"598 281 LINE",
"869 281 LINE",
"869 413 LINE",
"577 413 LINE",
"553 555 LINE",
"916 555 LINE",
"916 688 LINE",
"308 688 LINE",
"-15 0 LINE"
);
},
{
closed = 1;
nodes = (
"392 544 LINE",
"397 544 LINE",
"440 272 LINE",
"270 272 LINE"
);
}
);
width = 972;
},
{
anchors = (
{
name = bottom;
position = "{481, 0}";
},
{
name = top;
position = "{481, 688}";
}
);
background = {
anchors = (
{
name = top;
position = "{481, 688}";
}
);
paths = (
{
closed = 1;
nodes = (
"905 0 LINE",
"905 108 LINE",
"609 108 LINE",
"567 293 LINE",
"858 293 LINE",
"858 401 LINE",
"542 401 LINE",
"502 580 LINE",
"905 580 LINE",
"905 688 LINE",
"306 688 LINE",
"-13 0 LINE",
"115 0 LINE",
"188 160 LINE",
"467 160 LINE",
"502 0 LINE"
);
},
{
closed = 1;
nodes = (
"443 268 LINE",
"236 268 LINE",
"372 568 LINE",
"377 568 LINE"
);
}
);
};
layerId = "E7A95A6A-7487-49EE-B62A-BA87B06E4B57";
paths = (
{
closed = 1;
nodes = (
"115 0 LINE",
"188 160 LINE",
"467 160 LINE",
"502 0 LINE",
"905 0 LINE",
"905 108 LINE",
"609 108 LINE",
"567 293 LINE",
"858 293 LINE",
"858 401 LINE",
"542 401 LINE",
"502 580 LINE",
"905 580 LINE",
"905 688 LINE",
"306 688 LINE",
"-13 0 LINE"
);
},
{
closed = 1;
nodes = (
"372 568 LINE",
"377 568 LINE",
"443 268 LINE",
"236 268 LINE"
);
}
);
width = 961;
}
);
leftKerningGroup = A;
rightKerningGroup = E;
unicode = 00C6;
},
{
glyphname = B;
layers = (
{
anchors = (
{
name = bottom;
position = "{344, 0}";
},
{
name = top;
position = "{344, 688}";
}
);
background = {
anchors = (
{
name = bottom;
position = "{344, 0}";
},
{
name = top;
position = "{344, 688}";
}
);
paths = (
{
closed = 1;
nodes = (
"413 0 LINE",
"578 0 OFFCURVE",
"602 95 OFFCURVE",
"602 180 CURVE SMOOTH",
"602 249 OFFCURVE",
"588 332 OFFCURVE",
"477 350 CURVE",
"477 354 LINE",
"562 370 OFFCURVE",
"594 432 OFFCURVE",
"594 516 CURVE SMOOTH",
"594 615 OFFCURVE",
"558 688 OFFCURVE",
"422 688 CURVE SMOOTH",
"115 688 LINE",
"115 0 LINE"
);
},
{
closed = 1;
nodes = (
"151 34 LINE",
"151 332 LINE",
"417 332 LINE SMOOTH",
"522 332 OFFCURVE",
"566 284 OFFCURVE",
"566 183 CURVE SMOOTH",
"566 84 OFFCURVE",
"530 34 OFFCURVE",
"417 34 CURVE SMOOTH"
);
},
{
closed = 1;
nodes = (
"151 366 LINE",
"151 654 LINE",
"414 654 LINE SMOOTH",
"526 654 OFFCURVE",
"558 606 OFFCURVE",
"558 510 CURVE SMOOTH",
"558 419 OFFCURVE",
"506 366 OFFCURVE",
"414 366 CURVE SMOOTH"
);
}
);
};
layerId = UUID0;
paths = (
{
closed = 1;
nodes = (
"413 0 LINE",
"578 0 OFFCURVE",
"602 95 OFFCURVE",
"602 180 CURVE SMOOTH",
"602 249 OFFCURVE",
"588 332 OFFCURVE",
"477 350 CURVE",
"477 354 LINE",
"562 370 OFFCURVE",
"594 432 OFFCURVE",
"594 516 CURVE SMOOTH",
"594 615 OFFCURVE",
"558 688 OFFCURVE",
"422 688 CURVE SMOOTH",
"115 688 LINE",
"115 0 LINE"
);
},
{
closed = 1;
nodes = (
"151 332 LINE",
"417 332 LINE SMOOTH",
"522 332 OFFCURVE",
"566 284 OFFCURVE",
"566 183 CURVE SMOOTH",
"566 84 OFFCURVE",
"530 34 OFFCURVE",
"417 34 CURVE SMOOTH",
"151 34 LINE"
);
},
{
closed = 1;
nodes = (
"151 654 LINE",
"414 654 LINE SMOOTH",
"526 654 OFFCURVE",
"558 606 OFFCURVE",
"558 510 CURVE SMOOTH",
"558 419 OFFCURVE",
"506 366 OFFCURVE",
"414 366 CURVE SMOOTH",
"151 366 LINE"
);
}
);
width = 687;
},
{
anchors = (
{
name = bottom;
position = "{330, 0}";
},
{
name = top;
position = "{330, 688}";
}
);
background = {
anchors = (
{
name = bottom;
position = "{330, 0}";
},
{
name = top;
position = "{330, 688}";
}
);
paths = (
{
closed = 1;
nodes = (
"417 0 LINE",
"561 0 OFFCURVE",
"623 61 OFFCURVE",
"623 184 CURVE SMOOTH",
"623 300 OFFCURVE",
"576 330 OFFCURVE",
"498 349 CURVE",
"498 353 LINE",
"580 372 OFFCURVE",
"621 414 OFFCURVE",
"621 515 CURVE SMOOTH",
"621 636 OFFCURVE",
"545 688 OFFCURVE",
"419 688 CURVE SMOOTH",
"51 688 LINE",
"51 0 LINE"
);
},
{
closed = 1;
nodes = (
"281 161 LINE",
"281 279 LINE",
"329 279 LINE SMOOTH",
"383 279 OFFCURVE",
"389 272 OFFCURVE",
"389 219 CURVE SMOOTH",
"389 166 OFFCURVE",
"383 161 OFFCURVE",
"329 161 CURVE SMOOTH"
);
},
{
closed = 1;
nodes = (
"281 416 LINE",
"281 527 LINE",
"329 527 LINE SMOOTH",
"383 527 OFFCURVE",
"389 522 OFFCURVE",
"389 471 CURVE SMOOTH",
"389 422 OFFCURVE",
"383 416 OFFCURVE",
"329 416 CURVE SMOOTH"
);
}
);
};
layerId = "4F93A97B-747D-4721-B098-38A63C534D7A";
paths = (
{
closed = 1;
nodes = (
"417 0 LINE",
"561 0 OFFCURVE",
"623 61 OFFCURVE",
"623 184 CURVE SMOOTH",
"623 300 OFFCURVE",
"576 330 OFFCURVE",
"498 349 CURVE",
"498 353 LINE",
"580 372 OFFCURVE",
"621 414 OFFCURVE",
"621 515 CURVE SMOOTH",
"621 636 OFFCURVE",
"545 688 OFFCURVE",
"419 688 CURVE SMOOTH",
"51 688 LINE",
"51 0 LINE"
);
},
{
closed = 1;
nodes = (
"281 279 LINE",
"329 279 LINE SMOOTH",
"383 279 OFFCURVE",
"389 272 OFFCURVE",
"389 219 CURVE SMOOTH",
"389 166 OFFCURVE",
"383 161 OFFCURVE",
"329 161 CURVE SMOOTH",
"281 161 LINE"
);
},
{
closed = 1;
nodes = (
"281 527 LINE",
"329 527 LINE SMOOTH",
"383 527 OFFCURVE",
"389 522 OFFCURVE",
"389 471 CURVE SMOOTH",
"389 422 OFFCURVE",
"383 416 OFFCURVE",
"329 416 CURVE SMOOTH",
"281 416 LINE"
);
}
);
width = 660;
},
{
anchors = (
{
name = bottom;
position = "{202, 0}";
},
{
name = top;
position = "{202, 688}";
}
);
background = {
anchors = (
{
name = bottom;
position = "{202, 0}";
},
{
name = top;
position = "{202, 688}";
}
);
paths = (
{
closed = 1;
nodes = (
"204 0 LINE",
"339 0 OFFCURVE",
"358 91 OFFCURVE",
"358 180 CURVE SMOOTH",
"358 256 OFFCURVE",
"346 332 OFFCURVE",
"257 350 CURVE",
"257 354 LINE",
"326 370 OFFCURVE",
"353 426 OFFCURVE",
"353 516 CURVE SMOOTH",
"353 618 OFFCURVE",
"323 688 OFFCURVE",
"210 688 CURVE SMOOTH",
"65 688 LINE",
"65 0 LINE"
);
},
{
closed = 1;
nodes = (
"101 34 LINE",
"101 332 LINE",
"207 332 LINE SMOOTH",
"288 332 OFFCURVE",
"322 288 OFFCURVE",
"322 183 CURVE SMOOTH",
"322 81 OFFCURVE",
"295 34 OFFCURVE",
"207 34 CURVE SMOOTH"
);
},
{
closed = 1;
nodes = (
"101 366 LINE",
"101 654 LINE",
"205 654 LINE SMOOTH",
"293 654 OFFCURVE",
"317 610 OFFCURVE",
"317 510 CURVE SMOOTH",
"317 414 OFFCURVE",
"274 366 OFFCURVE",
"205 366 CURVE SMOOTH"
);
}
);
};
layerId = "E6BBBBE7-ECAD-4929-840D-43673C7BDEAF";
paths = (
{
closed = 1;
nodes = (
"204 0 LINE",
"339 0 OFFCURVE",
"358 91 OFFCURVE",
"358 180 CURVE SMOOTH",
"358 256 OFFCURVE",
"346 332 OFFCURVE",
"257 350 CURVE",
"257 354 LINE",
"326 370 OFFCURVE",
"353 426 OFFCURVE",
"353 516 CURVE SMOOTH",
"353 618 OFFCURVE",
"323 688 OFFCURVE",
"210 688 CURVE SMOOTH",
"65 688 LINE",
"65 0 LINE"
);
},
{
closed = 1;
nodes = (
"101 332 LINE",
"207 332 LINE SMOOTH",
"288 332 OFFCURVE",
"322 288 OFFCURVE",
"322 183 CURVE SMOOTH",
"322 81 OFFCURVE",
"295 34 OFFCURVE",
"207 34 CURVE SMOOTH",
"101 34 LINE"
);
},
{
closed = 1;
nodes = (
"101 654 LINE",
"205 654 LINE SMOOTH",
"293 654 OFFCURVE",
"317 610 OFFCURVE",
"317 510 CURVE SMOOTH",
"317 414 OFFCURVE",
"274 366 OFFCURVE",
"205 366 CURVE SMOOTH",
"101 366 LINE"
);
}
);
width = 403;
},
{
anchors = (
{
name = bottom;
position = "{204, 0}";
},
{
name = top;
position = "{204, 688}";
}
);
background = {
anchors = (
{
name = bottom;
position = "{204, 0}";
},
{
name = top;
position = "{204, 688}";
}
);
paths = (
{
closed = 1;
nodes = (
"238 0 LINE",
"344 0 OFFCURVE",
"392 60 OFFCURVE",
"392 185 CURVE SMOOTH",
"392 302 OFFCURVE",
"360 334 OFFCURVE",
"309 349 CURVE",
"309 353 LINE",
"360 369 OFFCURVE",
"386 414 OFFCURVE",
"386 515 CURVE SMOOTH",
"386 637 OFFCURVE",
"330 688 OFFCURVE",
"236 688 CURVE SMOOTH",
"34 688 LINE",
"34 0 LINE"
);
},
{
closed = 1;
nodes = (
"185 139 LINE",
"185 280 LINE",
"203 280 LINE SMOOTH",
"233 280 OFFCURVE",
"238 278 OFFCURVE",
"238 210 CURVE SMOOTH",
"238 141 OFFCURVE",
"237 139 OFFCURVE",
"203 139 CURVE SMOOTH"
);
},
{
closed = 1;
nodes = (
"185 415 LINE",
"185 549 LINE",
"203 549 LINE SMOOTH",
"236 549 OFFCURVE",
"238 547 OFFCURVE",
"238 482 CURVE SMOOTH",
"238 419 OFFCURVE",
"235 415 OFFCURVE",
"203 415 CURVE SMOOTH"
);
}
);
};
layerId = "7836D3B9-397C-42C1-8084-A98A44B9119A";
paths = (
{
closed = 1;
nodes = (
"238 0 LINE",
"344 0 OFFCURVE",
"392 60 OFFCURVE",
"392 185 CURVE SMOOTH",
"392 302 OFFCURVE",
"360 334 OFFCURVE",
"309 349 CURVE",
"309 353 LINE",
"360 369 OFFCURVE",
"386 414 OFFCURVE",
"386 515 CURVE SMOOTH",
"386 637 OFFCURVE",
"330 688 OFFCURVE",
"236 688 CURVE SMOOTH",
"34 688 LINE",
"34 0 LINE"
);
},
{
closed = 1;
nodes = (
"185 280 LINE",
"203 280 LINE SMOOTH",
"233 280 OFFCURVE",
"238 278 OFFCURVE",
"238 210 CURVE SMOOTH",
"238 141 OFFCURVE",
"237 139 OFFCURVE",
"203 139 CURVE SMOOTH",
"185 139 LINE"
);
},
{
closed = 1;
nodes = (
"185 549 LINE",
"203 549 LINE SMOOTH",
"236 549 OFFCURVE",
"238 547 OFFCURVE",
"238 482 CURVE SMOOTH",
"238 419 OFFCURVE",
"235 415 OFFCURVE",
"203 415 CURVE SMOOTH",
"185 415 LINE"
);
}
);
width = 408;
},
{
anchors = (
{
name = bottom;
position = "{249, 0}";
},
{
name = top;
position = "{249, 688}";
}
);
background = {
anchors = (
{
name = bottom;
position = "{249, 0}";
},
{
name = top;
position = "{249, 688}";
}
);
paths = (
{
closed = 1;
nodes = (
"290 0 LINE",
"421 0 OFFCURVE",
"459 73 OFFCURVE",
"459 183 CURVE SMOOTH",
"459 282 OFFCURVE",
"433 331 OFFCURVE",
"357 349 CURVE",
"357 353 LINE",
"423 369 OFFCURVE",
"453 419 OFFCURVE",
"453 515 CURVE SMOOTH",
"453 628 OFFCURVE",
"404 688 OFFCURVE",
"291 688 CURVE SMOOTH",
"61 688 LINE",
"61 0 LINE"
);
},
{
closed = 1;
nodes = (
"173 100 LINE",
"173 297 LINE",
"264 297 LINE SMOOTH",
"328 297 OFFCURVE",
"346 277 OFFCURVE",
"346 197 CURVE SMOOTH",
"346 119 OFFCURVE",
"330 100 OFFCURVE",
"264 100 CURVE SMOOTH"
);
},
{
closed = 1;
nodes = (
"173 399 LINE",
"173 587 LINE",
"259 587 LINE SMOOTH",
"325 587 OFFCURVE",
"340 569 OFFCURVE",
"340 493 CURVE SMOOTH",
"340 420 OFFCURVE",
"319 399 OFFCURVE",
"259 399 CURVE SMOOTH"
);
}
);
};
layerId = "374FF654-0B40-45EE-AE97-0DEB7620D1EC";
paths = (
{
closed = 1;
nodes = (
"290 0 LINE",
"421 0 OFFCURVE",
"459 73 OFFCURVE",
"459 183 CURVE SMOOTH",
"459 282 OFFCURVE",
"433 331 OFFCURVE",
"357 349 CURVE",
"357 353 LINE",
"423 369 OFFCURVE",
"453 419 OFFCURVE",
"453 515 CURVE SMOOTH",
"453 628 OFFCURVE",
"404 688 OFFCURVE",
"291 688 CURVE SMOOTH",
"61 688 LINE",
"61 0 LINE"
);
},
{
closed = 1;
nodes = (
"173 297 LINE",
"264 297 LINE SMOOTH",
"328 297 OFFCURVE",
"346 277 OFFCURVE",
"346 197 CURVE SMOOTH",
"346 119 OFFCURVE",
"330 100 OFFCURVE",
"264 100 CURVE SMOOTH",
"173 100 LINE"
);
},
{
closed = 1;
nodes = (
"173 587 LINE",
"259 587 LINE SMOOTH",
"325 587 OFFCURVE",
"340 569 OFFCURVE",
"340 493 CURVE SMOOTH",
"340 420 OFFCURVE",
"319 399 OFFCURVE",
"259 399 CURVE SMOOTH",
"173 399 LINE"
);
}
);
width = 498;
},
{
anchors = (
{
name = bottom;
position = "{339, 0}";
},
{
name = top;
position = "{339, 688}";
}
);
background = {
anchors = (
{
name = bottom;
position = "{339, 0}";
},
{
name = top;
position = "{339, 688}";
}
);
paths = (
{
closed = 1;
nodes = (
"419 0 LINE",
"573 0 OFFCURVE",
"616 75 OFFCURVE",
"616 182 CURVE SMOOTH",
"616 278 OFFCURVE",
"585 330 OFFCURVE",
"491 349 CURVE",
"491 353 LINE",
"573 370 OFFCURVE",
"609 421 OFFCURVE",
"609 515 CURVE SMOOTH",
"609 626 OFFCURVE",
"554 688 OFFCURVE",
"418 688 CURVE SMOOTH",
"87 688 LINE",
"87 0 LINE"
);
},
{
closed = 1;
nodes = (
"215 107 LINE",
"215 294 LINE",
"378 294 LINE SMOOTH",
"462 294 OFFCURVE",
"488 272 OFFCURVE",
"488 200 CURVE SMOOTH",
"488 127 OFFCURVE",
"464 107 OFFCURVE",
"378 107 CURVE SMOOTH"
);
},
{
closed = 1;
nodes = (
"215 402 LINE",
"215 580 LINE",
"373 580 LINE SMOOTH",
"460 580 OFFCURVE",
"481 562 OFFCURVE",
"481 490 CURVE SMOOTH",
"481 425 OFFCURVE",
"452 402 OFFCURVE",
"373 402 CURVE SMOOTH"
);
}
);
};
layerId = "E7A95A6A-7487-49EE-B62A-BA87B06E4B57";
paths = (
{
closed = 1;
nodes = (
"419 0 LINE",
"573 0 OFFCURVE",
"616 75 OFFCURVE",
"616 182 CURVE SMOOTH",
"616 278 OFFCURVE",
"585 330 OFFCURVE",
"491 349 CURVE",
"491 353 LINE",
"573 370 OFFCURVE",
"609 421 OFFCURVE",
"609 515 CURVE SMOOTH",
"609 626 OFFCURVE",
"554 688 OFFCURVE",
"418 688 CURVE SMOOTH",
"87 688 LINE",
"87 0 LINE"
);
},
{
closed = 1;
nodes = (
"215 294 LINE",
"378 294 LINE SMOOTH",
"462 294 OFFCURVE",
"488 272 OFFCURVE",
"488 200 CURVE SMOOTH",
"488 127 OFFCURVE",
"464 107 OFFCURVE",
"378 107 CURVE SMOOTH",
"215 107 LINE"
);
},
{
closed = 1;
nodes = (
"215 580 LINE",
"373 580 LINE SMOOTH",
"460 580 OFFCURVE",
"481 562 OFFCURVE",
"481 490 CURVE SMOOTH",
"481 425 OFFCURVE",
"452 402 OFFCURVE",
"373 402 CURVE SMOOTH",
"215 402 LINE"
);
}
);
width = 677;
}
);
leftKerningGroup = H;
rightKerningGroup = B;
unicode = 0042;
},
{
glyphname = C;
layers = (
{
anchors = (
{
name = bottom;
position = "{329, 0}";
},
{
name = top;
position = "{329, 688}";
}
);
background = {
anchors = (
{
name = bottom;
position = "{289, 0}";
},
{
name = top;
position = "{289, 688}";
}
);
paths = (
{
closed = 1;
nodes = (
"513 36 LINE",
"473 30 OFFCURVE",
"413 26 OFFCURVE",
"367 26 CURVE SMOOTH",
"149 26 OFFCURVE",
"126 51 OFFCURVE",
"126 344 CURVE SMOOTH",
"126 637 OFFCURVE",
"149 662 OFFCURVE",
"367 662 CURVE SMOOTH",
"411 662 OFFCURVE",
"469 658 OFFCURVE",
"509 652 CURVE",
"509 684 LINE",
"471 691 OFFCURVE",
"408 696 OFFCURVE",
"357 696 CURVE SMOOTH",
"129 696 OFFCURVE",
"90 658 OFFCURVE",
"90 344 CURVE SMOOTH",
"90 26 OFFCURVE",
"129 -8 OFFCURVE",
"357 -8 CURVE SMOOTH",
"407 -8 OFFCURVE",
"472 -4 OFFCURVE",
"513 2 CURVE"
);
}
);
};
layerId = UUID0;
paths = (
{
closed = 1;
nodes = (
"407 -8 OFFCURVE",
"472 -4 OFFCURVE",
"513 2 CURVE",
"513 36 LINE",
"473 30 OFFCURVE",
"413 26 OFFCURVE",
"367 26 CURVE SMOOTH",
"149 26 OFFCURVE",
"126 51 OFFCURVE",
"126 344 CURVE SMOOTH",
"126 637 OFFCURVE",
"149 662 OFFCURVE",
"367 662 CURVE SMOOTH",
"411 662 OFFCURVE",
"469 658 OFFCURVE",
"509 652 CURVE",
"509 684 LINE",
"471 691 OFFCURVE",
"408 696 OFFCURVE",
"357 696 CURVE SMOOTH",
"129 696 OFFCURVE",
"90 658 OFFCURVE",
"90 344 CURVE SMOOTH",
"90 26 OFFCURVE",
"129 -8 OFFCURVE",
"357 -8 CURVE SMOOTH"
);
}
);
width = 578;
},
{
anchors = (
{
name = bottom;
position = "{322, 0}";
},
{
name = top;
position = "{322, 688}";
}
);
background = {
anchors = (
{
name = bottom;
position = "{284, 0}";
},
{
name = top;
position = "{284, 688}";
}
);
paths = (
{
closed = 1;
nodes = (
"532 167 LINE",
"493 162 OFFCURVE",
"437 159 OFFCURVE",
"397 159 CURVE SMOOTH",
"277 159 OFFCURVE",
"277 174 OFFCURVE",
"277 344 CURVE SMOOTH",
"277 513 OFFCURVE",
"277 529 OFFCURVE",
"397 529 CURVE SMOOTH",
"416 529 OFFCURVE",
"447 527 OFFCURVE",
"528 521 CURVE",
"528 677 LINE",
"482 688 OFFCURVE",
"405 696 OFFCURVE",
"342 696 CURVE SMOOTH",
"74 696 OFFCURVE",
"42 614 OFFCURVE",
"42 344 CURVE SMOOTH",
"42 74 OFFCURVE",
"74 -8 OFFCURVE",
"342 -8 CURVE SMOOTH",
"407 -8 OFFCURVE",
"487 -1 OFFCURVE",
"532 8 CURVE"
);
}
);
};
layerId = "4F93A97B-747D-4721-B098-38A63C534D7A";
paths = (
{
closed = 1;
nodes = (
"407 -8 OFFCURVE",
"487 -1 OFFCURVE",
"532 8 CURVE",
"532 167 LINE",
"493 162 OFFCURVE",
"437 159 OFFCURVE",
"397 159 CURVE SMOOTH",
"277 159 OFFCURVE",
"277 174 OFFCURVE",
"277 344 CURVE SMOOTH",
"277 513 OFFCURVE",
"277 529 OFFCURVE",
"397 529 CURVE SMOOTH",
"416 529 OFFCURVE",
"447 527 OFFCURVE",
"528 521 CURVE",
"528 677 LINE",
"482 688 OFFCURVE",
"405 696 OFFCURVE",
"342 696 CURVE SMOOTH",
"74 696 OFFCURVE",
"42 614 OFFCURVE",
"42 344 CURVE SMOOTH",
"42 74 OFFCURVE",
"74 -8 OFFCURVE",
"342 -8 CURVE SMOOTH"
);
}
);
width = 567;
},
{
anchors = (
{
name = bottom;
position = "{198, 0}";
},
{
name = top;
position = "{198, 688}";
}
);
background = {
anchors = (
{
name = bottom;
position = "{159, 0}";
},
{
name = top;
position = "{159, 688}";
}
);
paths = (
{
closed = 1;
nodes = (
"293 36 LINE",
"273 30 OFFCURVE",
"240 26 OFFCURVE",
"216 26 CURVE SMOOTH",
"98 26 OFFCURVE",
"86 61 OFFCURVE",
"86 344 CURVE SMOOTH",
"86 627 OFFCURVE",
"98 662 OFFCURVE",
"216 662 CURVE SMOOTH",
"239 662 OFFCURVE",
"270 658 OFFCURVE",
"291 652 CURVE",
"291 684 LINE",
"272 691 OFFCURVE",
"237 696 OFFCURVE",
"210 696 CURVE SMOOTH",
"73 696 OFFCURVE",
"50 648 OFFCURVE",
"50 344 CURVE SMOOTH",
"50 36 OFFCURVE",
"73 -8 OFFCURVE",
"210 -8 CURVE SMOOTH",
"237 -8 OFFCURVE",
"271 -4 OFFCURVE",
"293 2 CURVE"
);
}
);
};
layerId = "E6BBBBE7-ECAD-4929-840D-43673C7BDEAF";
paths = (
{
closed = 1;
nodes = (
"237 -8 OFFCURVE",
"271 -4 OFFCURVE",
"293 2 CURVE",
"293 36 LINE",
"273 30 OFFCURVE",
"240 26 OFFCURVE",
"216 26 CURVE SMOOTH",
"98 26 OFFCURVE",
"86 61 OFFCURVE",
"86 344 CURVE SMOOTH",
"86 627 OFFCURVE",
"98 662 OFFCURVE",
"216 662 CURVE SMOOTH",
"239 662 OFFCURVE",
"270 658 OFFCURVE",
"291 652 CURVE",
"291 684 LINE",
"272 691 OFFCURVE",
"237 696 OFFCURVE",
"210 696 CURVE SMOOTH",
"73 696 OFFCURVE",
"50 648 OFFCURVE",
"50 344 CURVE SMOOTH",
"50 36 OFFCURVE",
"73 -8 OFFCURVE",
"210 -8 CURVE SMOOTH"
);
}
);
width = 318;
},
{
anchors = (
{
name = bottom;
position = "{187, 0}";
},
{
name = top;
position = "{187, 688}";
}
);
background = {
anchors = (
{
name = bottom;
position = "{161, 0}";
},
{
name = top;
position = "{161, 688}";
}
);
paths = (
{
closed = 1;
nodes = (
"302 136 LINE",
"284 133 OFFCURVE",
"257 131 OFFCURVE",
"234 131 CURVE SMOOTH",
"179 131 OFFCURVE",
"178 145 OFFCURVE",
"178 344 CURVE SMOOTH",
"178 543 OFFCURVE",
"179 557 OFFCURVE",
"234 557 CURVE SMOOTH",
"251 557 OFFCURVE",
"278 555 OFFCURVE",
"300 552 CURVE",
"300 680 LINE",
"284 689 OFFCURVE",
"245 696 OFFCURVE",
"206 696 CURVE SMOOTH",
"47 696 OFFCURVE",
"24 606 OFFCURVE",
"24 344 CURVE SMOOTH",
"24 84 OFFCURVE",
"42 -8 OFFCURVE",
"206 -8 CURVE SMOOTH",
"238 -8 OFFCURVE",
"279 0 OFFCURVE",
"302 11 CURVE"
);
}
);
};
layerId = "7836D3B9-397C-42C1-8084-A98A44B9119A";
paths = (
{
closed = 1;
nodes = (
"238 -8 OFFCURVE",
"279 0 OFFCURVE",
"302 11 CURVE",
"302 136 LINE",
"284 133 OFFCURVE",
"257 131 OFFCURVE",
"234 131 CURVE SMOOTH",
"179 131 OFFCURVE",
"178 145 OFFCURVE",
"178 344 CURVE SMOOTH",
"178 543 OFFCURVE",
"179 557 OFFCURVE",
"234 557 CURVE SMOOTH",
"251 557 OFFCURVE",
"278 555 OFFCURVE",
"300 552 CURVE",
"300 680 LINE",
"284 689 OFFCURVE",
"245 696 OFFCURVE",
"206 696 CURVE SMOOTH",
"47 696 OFFCURVE",
"24 606 OFFCURVE",
"24 344 CURVE SMOOTH",
"24 84 OFFCURVE",
"42 -8 OFFCURVE",
"206 -8 CURVE SMOOTH"
);
}
);
width = 321;
},
{
anchors = (
{
name = bottom;
position = "{244, 0}";
},
{
name = top;
position = "{244, 688}";
}
);
background = {
anchors = (
{
name = bottom;
position = "{203, 0}";
},
{
name = top;
position = "{203, 688}";
}
);
paths = (
{
closed = 1;
nodes = (
"375 101 LINE",
"348 96 OFFCURVE",
"309 93 OFFCURVE",
"280 93 CURVE SMOOTH",
"167 93 OFFCURVE",
"159 114 OFFCURVE",
"159 344 CURVE SMOOTH",
"159 574 OFFCURVE",
"167 595 OFFCURVE",
"280 595 CURVE SMOOTH",
"303 595 OFFCURVE",
"338 592 OFFCURVE",
"373 587 CURVE",
"373 680 LINE",
"349 689 OFFCURVE",
"301 696 OFFCURVE",
"258 696 CURVE SMOOTH",
"74 696 OFFCURVE",
"47 623 OFFCURVE",
"47 344 CURVE SMOOTH",
"47 64 OFFCURVE",
"72 -8 OFFCURVE",
"258 -8 CURVE SMOOTH",
"298 -8 OFFCURVE",
"347 -1 OFFCURVE",
"375 8 CURVE"
);
}
);
};
layerId = "374FF654-0B40-45EE-AE97-0DEB7620D1EC";
paths = (
{
closed = 1;
nodes = (
"298 -8 OFFCURVE",
"347 -1 OFFCURVE",
"375 8 CURVE",
"375 101 LINE",
"348 96 OFFCURVE",
"309 93 OFFCURVE",
"280 93 CURVE SMOOTH",
"167 93 OFFCURVE",
"159 114 OFFCURVE",
"159 344 CURVE SMOOTH",
"159 574 OFFCURVE",
"167 595 OFFCURVE",
"280 595 CURVE SMOOTH",
"303 595 OFFCURVE",
"338 592 OFFCURVE",
"373 587 CURVE",
"373 680 LINE",
"349 689 OFFCURVE",
"301 696 OFFCURVE",
"258 696 CURVE SMOOTH",
"74 696 OFFCURVE",
"47 623 OFFCURVE",
"47 344 CURVE SMOOTH",
"47 64 OFFCURVE",
"72 -8 OFFCURVE",
"258 -8 CURVE SMOOTH"
);
}
);
width = 406;
},
{
anchors = (
{
name = bottom;
position = "{334, 0}";
},
{
name = top;
position = "{334, 688}";
}
);
background = {
anchors = (
{
name = bottom;
position = "{286, 0}";
},
{
name = top;
position = "{286, 688}";
}
);
paths = (
{
closed = 1;
nodes = (
"522 110 LINE",
"484 104 OFFCURVE",
"426 100 OFFCURVE",
"382 100 CURVE SMOOTH",
"206 100 OFFCURVE",
"193 119 OFFCURVE",
"193 344 CURVE SMOOTH",
"193 569 OFFCURVE",
"206 588 OFFCURVE",
"382 588 CURVE SMOOTH",
"414 588 OFFCURVE",
"468 584 OFFCURVE",
"518 578 CURVE",
"518 679 LINE",
"477 689 OFFCURVE",
"407 696 OFFCURVE",
"350 696 CURVE SMOOTH",
"101 696 OFFCURVE",
"65 624 OFFCURVE",
"65 344 CURVE SMOOTH",
"65 64 OFFCURVE",
"101 -8 OFFCURVE",
"350 -8 CURVE SMOOTH",
"405 -8 OFFCURVE",
"477 -2 OFFCURVE",
"522 7 CURVE"
);
}
);
};
layerId = "E7A95A6A-7487-49EE-B62A-BA87B06E4B57";
paths = (
{
closed = 1;
nodes = (
"405 -8 OFFCURVE",
"477 -2 OFFCURVE",
"522 7 CURVE",
"522 110 LINE",
"484 104 OFFCURVE",
"426 100 OFFCURVE",
"382 100 CURVE SMOOTH",
"206 100 OFFCURVE",
"193 119 OFFCURVE",
"193 344 CURVE SMOOTH",
"193 569 OFFCURVE",
"206 588 OFFCURVE",
"382 588 CURVE SMOOTH",
"414 588 OFFCURVE",
"468 584 OFFCURVE",
"518 578 CURVE",
"518 679 LINE",
"477 689 OFFCURVE",
"407 696 OFFCURVE",
"350 696 CURVE SMOOTH",
"101 696 OFFCURVE",
"65 624 OFFCURVE",
"65 344 CURVE SMOOTH",
"65 64 OFFCURVE",
"101 -8 OFFCURVE",
"350 -8 CURVE SMOOTH"
);
}
);
width = 572;
}
);
leftKerningGroup = O;
rightKerningGroup = C;
unicode = 0043;
},
{
glyphname = D;
layers = (
{
anchors = (
{
name = bottom;
position = "{347, 0}";
},
{
name = center;
position = "{133, 344}";
},
{
name = top;
position = "{347, 688}";
}
);
background = {
anchors = (
{
name = bottom;
position = "{347, 0}";
},
{
name = center;
position = "{347, 344}";
},
{
name = top;
position = "{347, 688}";
}
);
paths = (
{
closed = 1;
nodes = (
"320 0 LINE",
"586 0 OFFCURVE",
"603 38 OFFCURVE",
"603 344 CURVE SMOOTH",
"603 650 OFFCURVE",
"586 688 OFFCURVE",
"320 688 CURVE SMOOTH",
"115 688 LINE",
"115 0 LINE"
);
},
{
closed = 1;
nodes = (
"151 654 LINE",
"300 654 LINE SMOOTH",
"549 654 OFFCURVE",
"567 648 OFFCURVE",
"567 344 CURVE SMOOTH",
"567 40 OFFCURVE",
"553 34 OFFCURVE",
"300 34 CURVE SMOOTH",
"151 34 LINE"
);
}
);
};
layerId = UUID0;
paths = (
{
closed = 1;
nodes = (
"320 0 LINE",
"586 0 OFFCURVE",
"603 38 OFFCURVE",
"603 344 CURVE SMOOTH",
"603 650 OFFCURVE",
"586 688 OFFCURVE",
"320 688 CURVE SMOOTH",
"115 688 LINE",
"115 0 LINE"
);
},
{
closed = 1;
nodes = (
"151 654 LINE",
"300 654 LINE SMOOTH",
"549 654 OFFCURVE",
"567 648 OFFCURVE",
"567 344 CURVE SMOOTH",
"567 40 OFFCURVE",
"553 34 OFFCURVE",
"300 34 CURVE SMOOTH",
"151 34 LINE"
);
}
);
width = 693;
},
{
anchors = (
{
name = bottom;
position = "{335, 0}";
},
{
name = center;
position = "{168, 344}";
},
{
name = top;
position = "{335, 688}";
}
);
background = {
anchors = (
{
name = bottom;
position = "{335, 0}";
},
{
name = center;
position = "{335, 344}";
},
{
name = top;
position = "{335, 688}";
}
);
paths = (
{
closed = 1;
nodes = (
"306 0 LINE",
"625 0 OFFCURVE",
"628 72 OFFCURVE",
"628 344 CURVE SMOOTH",
"628 616 OFFCURVE",
"625 688 OFFCURVE",
"306 688 CURVE SMOOTH",
"51 688 LINE",
"51 0 LINE"
);
},
{
closed = 1;
nodes = (
"285 521 LINE",
"309 521 LINE SMOOTH",
"393 521 OFFCURVE",
"393 516 OFFCURVE",
"393 343 CURVE SMOOTH",
"393 174 OFFCURVE",
"393 167 OFFCURVE",
"309 167 CURVE SMOOTH",
"285 167 LINE"
);
}
);
};
layerId = "4F93A97B-747D-4721-B098-38A63C534D7A";
paths = (
{
closed = 1;
nodes = (
"306 0 LINE",
"625 0 OFFCURVE",
"628 72 OFFCURVE",
"628 344 CURVE SMOOTH",
"628 616 OFFCURVE",
"625 688 OFFCURVE",
"306 688 CURVE SMOOTH",
"51 688 LINE",
"51 0 LINE"
);
},
{
closed = 1;
nodes = (
"285 521 LINE",
"309 521 LINE SMOOTH",
"393 521 OFFCURVE",
"393 516 OFFCURVE",
"393 343 CURVE SMOOTH",
"393 174 OFFCURVE",
"393 167 OFFCURVE",
"309 167 CURVE SMOOTH",
"285 167 LINE"
);
}
);
width = 670;
},
{
anchors = (
{
name = bottom;
position = "{204, 0}";
},
{
name = center;
position = "{83, 344}";
},
{
name = top;
position = "{204, 688}";
}
);
background = {
anchors = (
{
name = bottom;
position = "{204, 0}";
},
{
name = center;
position = "{204, 344}";
},
{
name = top;
position = "{204, 688}";
}
);
paths = (
{
closed = 1;
nodes = (
"193 0 LINE",
"339 0 OFFCURVE",
"357 47 OFFCURVE",
"357 344 CURVE SMOOTH",
"357 641 OFFCURVE",
"339 688 OFFCURVE",
"193 688 CURVE SMOOTH",
"65 688 LINE",
"65 0 LINE"
);
},
{
closed = 1;
nodes = (
"101 654 LINE",
"193 654 LINE SMOOTH",
"302 654 OFFCURVE",
"321 639 OFFCURVE",
"321 344 CURVE SMOOTH",
"321 49 OFFCURVE",
"302 34 OFFCURVE",
"193 34 CURVE SMOOTH",
"101 34 LINE"
);
}
);
};
layerId = "E6BBBBE7-ECAD-4929-840D-43673C7BDEAF";
paths = (
{
closed = 1;
nodes = (
"193 0 LINE",
"339 0 OFFCURVE",
"357 47 OFFCURVE",
"357 344 CURVE SMOOTH",
"357 641 OFFCURVE",
"339 688 OFFCURVE",
"193 688 CURVE SMOOTH",
"65 688 LINE",
"65 0 LINE"
);
},
{
closed = 1;
nodes = (
"101 654 LINE",
"193 654 LINE SMOOTH",
"302 654 OFFCURVE",
"321 639 OFFCURVE",
"321 344 CURVE SMOOTH",
"321 49 OFFCURVE",
"302 34 OFFCURVE",
"193 34 CURVE SMOOTH",
"101 34 LINE"
);
}
);
width = 407;
},
{
anchors = (
{
name = bottom;
position = "{208, 0}";
},
{
name = center;
position = "{110, 344}";
},
{
name = top;
position = "{208, 688}";
}
);
background = {
anchors = (
{
name = bottom;
position = "{208, 0}";
},
{
name = center;
position = "{208, 344}";
},
{
name = top;
position = "{208, 688}";
}
);
paths = (
{
closed = 1;
nodes = (
"207 0 LINE",
"391 0 OFFCURVE",
"391 88 OFFCURVE",
"391 344 CURVE SMOOTH",
"391 601 OFFCURVE",
"391 688 OFFCURVE",
"207 688 CURVE SMOOTH",
"34 688 LINE",
"34 0 LINE"
);
},
{
closed = 1;
nodes = (
"186 549 LINE",
"207 549 LINE SMOOTH",
"238 549 OFFCURVE",
"239 548 OFFCURVE",
"239 344 CURVE SMOOTH",
"239 140 OFFCURVE",
"238 139 OFFCURVE",
"207 139 CURVE SMOOTH",
"186 139 LINE"
);
}
);
};
layerId = "7836D3B9-397C-42C1-8084-A98A44B9119A";
paths = (
{
closed = 1;
nodes = (
"207 0 LINE",
"391 0 OFFCURVE",
"391 88 OFFCURVE",
"391 344 CURVE SMOOTH",
"391 601 OFFCURVE",
"391 688 OFFCURVE",
"207 688 CURVE SMOOTH",
"34 688 LINE",
"34 0 LINE"
);
},
{
closed = 1;
nodes = (
"186 549 LINE",
"207 549 LINE SMOOTH",
"238 549 OFFCURVE",
"239 548 OFFCURVE",
"239 344 CURVE SMOOTH",
"239 140 OFFCURVE",
"238 139 OFFCURVE",
"207 139 CURVE SMOOTH",
"186 139 LINE"
);
}
);
width = 415;
},
{
anchors = (
{
name = bottom;
position = "{253, 0}";
},
{
name = center;
position = "{117, 344}";
},
{
name = top;
position = "{253, 688}";
}
);
background = {
anchors = (
{
name = bottom;
position = "{253, 0}";
},
{
name = center;
position = "{253, 344}";
},
{
name = top;
position = "{253, 688}";
}
);
paths = (
{
closed = 1;
nodes = (
"240 0 LINE",
"451 0 OFFCURVE",
"459 69 OFFCURVE",
"459 344 CURVE SMOOTH",
"459 619 OFFCURVE",
"451 688 OFFCURVE",
"240 688 CURVE SMOOTH",
"61 688 LINE",
"61 0 LINE"
);
},
{
closed = 1;
nodes = (
"173 587 LINE",
"237 587 LINE SMOOTH",
"338 587 OFFCURVE",
"347 582 OFFCURVE",
"347 344 CURVE SMOOTH",
"347 106 OFFCURVE",
"339 101 OFFCURVE",
"237 101 CURVE SMOOTH",
"173 101 LINE"
);
}
);
};
layerId = "374FF654-0B40-45EE-AE97-0DEB7620D1EC";
paths = (
{
closed = 1;
nodes = (
"240 0 LINE",
"451 0 OFFCURVE",
"459 69 OFFCURVE",
"459 344 CURVE SMOOTH",
"459 619 OFFCURVE",
"451 688 OFFCURVE",
"240 688 CURVE SMOOTH",
"61 688 LINE",
"61 0 LINE"
);
},
{
closed = 1;
nodes = (
"173 587 LINE",
"237 587 LINE SMOOTH",
"338 587 OFFCURVE",
"347 582 OFFCURVE",
"347 344 CURVE SMOOTH",
"347 106 OFFCURVE",
"339 101 OFFCURVE",
"237 101 CURVE SMOOTH",
"173 101 LINE"
);
}
);
width = 506;
},
{
anchors = (
{
name = bottom;
position = "{341.442, 0}";
},
{
name = center;
position = "{341.442, 344}";
},
{
name = top;
position = "{341.442, 688}";
}
);
associatedMasterId = UUID0;
background = {
paths = (
{
closed = 1;
nodes = (
"305 0 LINE",
"599 0 OFFCURVE",
"607 62 OFFCURVE",
"607 344 CURVE SMOOTH",
"607 626 OFFCURVE",
"599 688 OFFCURVE",
"305 688 CURVE SMOOTH",
"71 688 LINE",
"71 0 LINE"
);
},
{
closed = 1;
nodes = (
"236 566 LINE",
"300 566 LINE SMOOTH",
"435 566 OFFCURVE",
"441 561 OFFCURVE",
"441 343 CURVE SMOOTH",
"441 129 OFFCURVE",
"436 122 OFFCURVE",
"300 122 CURVE SMOOTH",
"236 122 LINE"
);
}
);
};
layerId = "9D45550F-2C9F-4339-A840-2B66C5917438";
name = "Intermediate {152, 307}";
paths = (
{
closed = 1;
nodes = (
"316 0 LINE",
"618 0 OFFCURVE",
"626 84 OFFCURVE",
"626 344 CURVE SMOOTH",
"626 604 OFFCURVE",
"618 688 OFFCURVE",
"316 688 CURVE SMOOTH",
"76 688 LINE",
"76 0 LINE"
);
},
{
closed = 1;
nodes = (
"239 555 LINE",
"311 555 LINE SMOOTH",
"455 555 OFFCURVE",
"459 555 OFFCURVE",
"459 344 CURVE SMOOTH",
"459 133 OFFCURVE",
"456 133 OFFCURVE",
"311 133 CURVE SMOOTH",
"239 133 LINE"
);
}
);
width = 682;
},
{
anchors = (
{
name = bottom;
position = "{343, 0}";
},
{
name = center;
position = "{151, 344}";
},
{
name = top;
position = "{343, 688}";
}
);
background = {
anchors = (
{
name = bottom;
position = "{343, 0}";
},
{
name = center;
position = "{343, 344}";
},
{
name = top;
position = "{343, 688}";
}
);
paths = (
{
closed = 1;
nodes = (
"317 0 LINE SMOOTH",
"609 0 OFFCURVE",
"619 64 OFFCURVE",
"619 344 CURVE SMOOTH",
"619 624 OFFCURVE",
"609 688 OFFCURVE",
"317 688 CURVE SMOOTH",
"87 688 LINE",
"87 0 LINE"
);
},
{
closed = 1;
nodes = (
"215 580 LINE",
"308 580 LINE SMOOTH",
"481 580 OFFCURVE",
"491 578 OFFCURVE",
"491 344 CURVE SMOOTH",
"491 109 OFFCURVE",
"483 108 OFFCURVE",
"308 108 CURVE",
"215 108 LINE"
);
}
);
};
layerId = "E7A95A6A-7487-49EE-B62A-BA87B06E4B57";
paths = (
{
closed = 1;
nodes = (
"317 0 LINE SMOOTH",
"609 0 OFFCURVE",
"619 64 OFFCURVE",
"619 344 CURVE SMOOTH",
"619 624 OFFCURVE",
"609 688 OFFCURVE",
"317 688 CURVE SMOOTH",
"87 688 LINE",
"87 0 LINE"
);
},
{
closed = 1;
nodes = (
"215 580 LINE",
"308 580 LINE SMOOTH",
"481 580 OFFCURVE",
"491 578 OFFCURVE",
"491 344 CURVE SMOOTH",
"491 109 OFFCURVE",
"483 108 OFFCURVE",
"308 108 CURVE",
"215 108 LINE"
);
}
);
width = 685;
}
);
leftKerningGroup = H;
rightKerningGroup = O;
unicode = 0044;
},
{
glyphname = Eth;
layers = (
{
background = {
paths = (
{
closed = 1;
nodes = (
"320 0 LINE SMOOTH",
"586 0 OFFCURVE",
"603 38 OFFCURVE",
"603 344 CURVE SMOOTH",
"603 650 OFFCURVE",
"586 688 OFFCURVE",
"320 688 CURVE SMOOTH",
"115 688 LINE",
"115 367 LINE",
"45 367 LINE",
"45 331 LINE",
"115 331 LINE",
"115 0 LINE"
);
},
{
closed = 1;
nodes = (
"151 34 LINE",
"151 331 LINE",
"280 331 LINE",
"280 367 LINE",
"151 367 LINE",
"151 654 LINE",
"300 654 LINE SMOOTH",
"549 654 OFFCURVE",
"567 648 OFFCURVE",
"567 344 CURVE SMOOTH",
"567 40 OFFCURVE",
"553 34 OFFCURVE",
"300 34 CURVE SMOOTH"
);
}
);
};
layerId = UUID0;
paths = (
{
closed = 1;
nodes = (
"320 0 LINE SMOOTH",
"586 0 OFFCURVE",
"603 38 OFFCURVE",
"603 344 CURVE SMOOTH",
"603 650 OFFCURVE",
"586 688 OFFCURVE",
"320 688 CURVE SMOOTH",
"115 688 LINE",
"115 367 LINE",
"45 367 LINE",
"45 331 LINE",
"115 331 LINE",
"115 0 LINE"
);
},
{
closed = 1;
nodes = (
"151 331 LINE",
"280 331 LINE",
"280 367 LINE",
"151 367 LINE",
"151 654 LINE",
"300 654 LINE SMOOTH",
"549 654 OFFCURVE",
"567 648 OFFCURVE",
"567 344 CURVE SMOOTH",
"567 40 OFFCURVE",
"553 34 OFFCURVE",
"300 34 CURVE SMOOTH",
"151 34 LINE"
);
}
);
width = 693;
},
{
background = {
paths = (
{
closed = 1;
nodes = (
"306 0 LINE SMOOTH",
"625 0 OFFCURVE",
"628 72 OFFCURVE",
"628 344 CURVE SMOOTH",
"628 616 OFFCURVE",
"625 688 OFFCURVE",
"306 688 CURVE",
"51 688 LINE",
"51 417 LINE",
"-9 417 LINE",
"-9 280 LINE",
"51 280 LINE",
"51 0 LINE"
);
},
{
closed = 1;
nodes = (
"285 167 LINE",
"285 280 LINE",
"347 280 LINE",
"347 417 LINE",
"285 417 LINE",
"285 521 LINE",
"309 521 LINE SMOOTH",
"393 521 OFFCURVE",
"393 516 OFFCURVE",
"393 343 CURVE SMOOTH",
"393 174 OFFCURVE",
"393 167 OFFCURVE",
"309 167 CURVE SMOOTH"
);
}
);
};
layerId = "4F93A97B-747D-4721-B098-38A63C534D7A";
paths = (
{
closed = 1;
nodes = (
"306 0 LINE SMOOTH",
"625 0 OFFCURVE",
"628 72 OFFCURVE",
"628 344 CURVE SMOOTH",
"628 616 OFFCURVE",
"625 688 OFFCURVE",
"306 688 CURVE",
"51 688 LINE",
"51 417 LINE",
"-9 417 LINE",
"-9 280 LINE",
"51 280 LINE",
"51 0 LINE"
);
},
{
closed = 1;
nodes = (
"285 280 LINE",
"347 280 LINE",
"347 417 LINE",
"285 417 LINE",
"285 521 LINE",
"309 521 LINE SMOOTH",
"393 521 OFFCURVE",
"393 516 OFFCURVE",
"393 343 CURVE SMOOTH",
"393 174 OFFCURVE",
"393 167 OFFCURVE",
"309 167 CURVE SMOOTH",
"285 167 LINE"
);
}
);
width = 670;
},
{
background = {
paths = (
{
closed = 1;
nodes = (
"193 0 LINE SMOOTH",
"339 0 OFFCURVE",
"357 47 OFFCURVE",
"357 344 CURVE SMOOTH",
"357 641 OFFCURVE",
"339 688 OFFCURVE",
"193 688 CURVE",
"65 688 LINE",
"65 367 LINE",
"11 367 LINE",
"11 331 LINE",
"65 331 LINE",
"65 0 LINE"
);
},
{
closed = 1;
nodes = (
"101 34 LINE",
"101 331 LINE",
"216 331 LINE",
"216 367 LINE",
"101 367 LINE",
"101 654 LINE",
"193 654 LINE SMOOTH",
"302 654 OFFCURVE",
"321 639 OFFCURVE",
"321 344 CURVE SMOOTH",
"321 49 OFFCURVE",
"302 34 OFFCURVE",
"193 34 CURVE SMOOTH"
);
}
);
};
layerId = "E6BBBBE7-ECAD-4929-840D-43673C7BDEAF";
paths = (
{
closed = 1;
nodes = (
"193 0 LINE SMOOTH",
"339 0 OFFCURVE",
"357 47 OFFCURVE",
"357 344 CURVE SMOOTH",
"357 641 OFFCURVE",
"339 688 OFFCURVE",
"193 688 CURVE",
"65 688 LINE",
"65 367 LINE",
"11 367 LINE",
"11 331 LINE",
"65 331 LINE",
"65 0 LINE"
);
},
{
closed = 1;
nodes = (
"101 331 LINE",
"216 331 LINE",
"216 367 LINE",
"101 367 LINE",
"101 654 LINE",
"193 654 LINE SMOOTH",
"302 654 OFFCURVE",
"321 639 OFFCURVE",
"321 344 CURVE SMOOTH",
"321 49 OFFCURVE",
"302 34 OFFCURVE",
"193 34 CURVE SMOOTH",
"101 34 LINE"
);
}
);
width = 407;
},
{
background = {
paths = (
{
closed = 1;
nodes = (
"207 0 LINE SMOOTH",
"391 0 OFFCURVE",
"391 88 OFFCURVE",
"391 344 CURVE SMOOTH",
"391 601 OFFCURVE",
"391 688 OFFCURVE",
"207 688 CURVE SMOOTH",
"34 688 LINE",
"34 417 LINE",
"-1 417 LINE",
"-1 278 LINE",
"34 278 LINE",
"34 0 LINE"
);
},
{
closed = 1;
nodes = (
"186 139 LINE",
"186 278 LINE",
"220 278 LINE",
"220 417 LINE",
"186 417 LINE",
"186 549 LINE",
"207 549 LINE SMOOTH",
"238 549 OFFCURVE",
"239 548 OFFCURVE",
"239 344 CURVE SMOOTH",
"239 140 OFFCURVE",
"238 139 OFFCURVE",
"207 139 CURVE SMOOTH"
);
}
);
};
layerId = "7836D3B9-397C-42C1-8084-A98A44B9119A";
paths = (
{
closed = 1;
nodes = (
"207 0 LINE SMOOTH",
"391 0 OFFCURVE",
"391 88 OFFCURVE",
"391 344 CURVE SMOOTH",
"391 601 OFFCURVE",
"391 688 OFFCURVE",
"207 688 CURVE SMOOTH",
"34 688 LINE",
"34 417 LINE",
"-1 417 LINE",
"-1 278 LINE",
"34 278 LINE",
"34 0 LINE"
);
},
{
closed = 1;
nodes = (
"186 278 LINE",
"220 278 LINE",
"220 417 LINE",
"186 417 LINE",
"186 549 LINE",
"207 549 LINE SMOOTH",
"238 549 OFFCURVE",
"239 548 OFFCURVE",
"239 344 CURVE SMOOTH",
"239 140 OFFCURVE",
"238 139 OFFCURVE",
"207 139 CURVE SMOOTH",
"186 139 LINE"
);
}
);
width = 417;
},
{
background = {
paths = (
{
closed = 1;
nodes = (
"240 0 LINE",
"451 0 OFFCURVE",
"459 69 OFFCURVE",
"459 344 CURVE SMOOTH",
"459 619 OFFCURVE",
"451 688 OFFCURVE",
"240 688 CURVE SMOOTH",
"61 688 LINE",
"61 397 LINE",
"9 397 LINE",
"9 299 LINE",
"61 299 LINE",
"61 0 LINE"
);
},
{
closed = 1;
nodes = (
"173 101 LINE",
"173 299 LINE",
"249 299 LINE",
"249 397 LINE",
"173 397 LINE",
"173 587 LINE",
"237 587 LINE SMOOTH",
"338 587 OFFCURVE",
"347 582 OFFCURVE",
"347 344 CURVE SMOOTH",
"347 106 OFFCURVE",
"339 101 OFFCURVE",
"237 101 CURVE SMOOTH"
);
}
);
};
layerId = "374FF654-0B40-45EE-AE97-0DEB7620D1EC";
paths = (
{
closed = 1;
nodes = (
"240 0 LINE",
"451 0 OFFCURVE",
"459 69 OFFCURVE",
"459 344 CURVE SMOOTH",
"459 619 OFFCURVE",
"451 688 OFFCURVE",
"240 688 CURVE SMOOTH",
"61 688 LINE",
"61 397 LINE",
"9 397 LINE",
"9 299 LINE",
"61 299 LINE",
"61 0 LINE"
);
},
{
closed = 1;
nodes = (
"173 299 LINE",
"249 299 LINE",
"249 397 LINE",
"173 397 LINE",
"173 587 LINE",
"237 587 LINE SMOOTH",
"338 587 OFFCURVE",
"347 582 OFFCURVE",
"347 344 CURVE SMOOTH",
"347 106 OFFCURVE",
"339 101 OFFCURVE",
"237 101 CURVE SMOOTH",
"173 101 LINE"
);
}
);
width = 506;
},
{
associatedMasterId = UUID0;
background = {
paths = (
{
closed = 1;
nodes = (
"305 0 LINE SMOOTH",
"600 0 OFFCURVE",
"607 62 OFFCURVE",
"607 344 CURVE SMOOTH",
"607 626 OFFCURVE",
"600 688 OFFCURVE",
"305 688 CURVE SMOOTH",
"71 688 LINE",
"71 401 LINE",
"9 401 LINE",
"9 297 LINE",
"71 297 LINE",
"71 0 LINE"
);
},
{
closed = 1;
nodes = (
"236 122 LINE",
"236 297 LINE",
"319 297 LINE",
"319 401 LINE",
"236 401 LINE",
"236 566 LINE",
"300 566 LINE SMOOTH",
"435 566 OFFCURVE",
"441 561 OFFCURVE",
"441 343 CURVE SMOOTH",
"441 129 OFFCURVE",
"436 122 OFFCURVE",
"300 122 CURVE SMOOTH"
);
}
);
};
layerId = "D8201B09-2F88-4646-AB52-82594D2005DD";
name = "Intermediate {152, 307}";
paths = (
{
closed = 1;
nodes = (
"316 0 LINE SMOOTH",
"618 0 OFFCURVE",
"626 84 OFFCURVE",
"626 344 CURVE SMOOTH",
"626 604 OFFCURVE",
"618 688 OFFCURVE",
"316 688 CURVE SMOOTH",
"76 688 LINE",
"76 405 LINE",
"9 405 LINE",
"9 291 LINE",
"76 291 LINE",
"76 0 LINE"
);
},
{
closed = 1;
nodes = (
"239 291 LINE",
"330 291 LINE",
"330 405 LINE",
"239 405 LINE",
"239 555 LINE",
"311 555 LINE SMOOTH",
"455 555 OFFCURVE",
"459 555 OFFCURVE",
"459 344 CURVE SMOOTH",
"459 133 OFFCURVE",
"456 133 OFFCURVE",
"311 133 CURVE SMOOTH",
"239 133 LINE"
);
}
);
width = 682;
},
{
background = {
paths = (
{
closed = 1;
nodes = (
"317 0 LINE",
"609 0 OFFCURVE",
"619 64 OFFCURVE",
"619 344 CURVE SMOOTH",
"619 624 OFFCURVE",
"609 688 OFFCURVE",
"317 688 CURVE SMOOTH",
"87 688 LINE",
"87 397 LINE",
"20 397 LINE",
"20 299 LINE",
"87 299 LINE",
"87 0 LINE"
);
},
{
closed = 1;
nodes = (
"215 108 LINE",
"215 299 LINE",
"309 299 LINE",
"309 397 LINE",
"215 397 LINE",
"215 580 LINE",
"308 580 LINE",
"481 580 OFFCURVE",
"491 578 OFFCURVE",
"491 344 CURVE SMOOTH",
"491 109 OFFCURVE",
"483 108 OFFCURVE",
"308 108 CURVE SMOOTH"
);
}
);
};
layerId = "E7A95A6A-7487-49EE-B62A-BA87B06E4B57";
paths = (
{
closed = 1;
nodes = (
"317 0 LINE SMOOTH",
"609 0 OFFCURVE",
"619 64 OFFCURVE",
"619 344 CURVE SMOOTH",
"619 624 OFFCURVE",
"609 688 OFFCURVE",
"317 688 CURVE SMOOTH",
"87 688 LINE",
"87 397 LINE",
"20 397 LINE",
"20 299 LINE",
"87 299 LINE",
"87 0 LINE"
);
},
{
closed = 1;
nodes = (
"215 299 LINE",
"309 299 LINE",
"309 397 LINE",
"215 397 LINE",
"215 580 LINE",
"308 580 LINE",
"481 580 OFFCURVE",
"491 578 OFFCURVE",
"491 344 CURVE SMOOTH",
"491 109 OFFCURVE",
"483 108 OFFCURVE",
"308 108 CURVE SMOOTH",
"215 108 LINE"
);
}
);
width = 685;
}
);
leftKerningGroup = H;
rightKerningGroup = O;
unicode = 00D0;
},
{
glyphname = E;
layers = (
{
anchors = (
{
name = bottom;
position = "{333, 0}";
},
{
name = ogonek;
position = "{541, 0}";
},
{
name = top;
position = "{333, 688}";
},
{
name = topleft;
position = "{20, 688}";
}
);
background = {
anchors = (
{
name = bottom;
position = "{332, 0}";
},
{
name = ogonek;
position = "{538, 10}";
},
{
name = top;
position = "{332, 688}";
}
);
paths = (
{
closed = 1;
nodes = (
"541 0 LINE",
"541 34 LINE",
"151 34 LINE",
"151 331 LINE",
"494 331 LINE",
"494 365 LINE",
"151 365 LINE",
"151 654 LINE",
"541 654 LINE",
"541 688 LINE",
"115 688 LINE",
"115 0 LINE"
);
}
);
};
layerId = UUID0;
paths = (
{
closed = 1;
nodes = (
"541 0 LINE",
"541 34 LINE",
"151 34 LINE",
"151 331 LINE",
"494 331 LINE",
"494 365 LINE",
"151 365 LINE",
"151 654 LINE",
"541 654 LINE",
"541 688 LINE",
"115 688 LINE",
"115 0 LINE"
);
}
);
width = 598;
},
{
anchors = (
{
name = bottom;
position = "{308, 0}";
},
{
name = ogonek;
position = "{555, 0}";
},
{
name = top;
position = "{308, 688}";
},
{
name = topleft;
position = "{20, 688}";
}
);
background = {
anchors = (
{
name = bottom;
position = "{319, 0}";
},
{
name = ogonek;
position = "{543, 10}";
},
{
name = top;
position = "{319, 688}";
}
);
paths = (
{
closed = 1;
nodes = (
"555 0 LINE",
"555 167 LINE",
"284 167 LINE",
"284 266 LINE",
"508 266 LINE",
"508 429 LINE",
"284 429 LINE",
"284 521 LINE",
"555 521 LINE",
"555 688 LINE",
"51 688 LINE",
"51 0 LINE"
);
}
);
};
layerId = "4F93A97B-747D-4721-B098-38A63C534D7A";
paths = (
{
closed = 1;
nodes = (
"555 0 LINE",
"555 167 LINE",
"284 167 LINE",
"284 266 LINE",
"508 266 LINE",
"508 429 LINE",
"284 429 LINE",
"284 521 LINE",
"555 521 LINE",
"555 688 LINE",
"51 688 LINE",
"51 0 LINE"
);
}
);
width = 603;
},
{
anchors = (
{
name = bottom;
position = "{201, 0}";
},
{
name = ogonek;
position = "{321, 0}";
},
{
name = top;
position = "{201, 688}";
},
{
name = topleft;
position = "{20, 688}";
}
);
background = {
anchors = (
{
name = bottom;
position = "{200, 0}";
},
{
name = ogonek;
position = "{316, 10}";
},
{
name = top;
position = "{200, 688}";
}
);
paths = (
{
closed = 1;
nodes = (
"321 0 LINE",
"321 34 LINE",
"102 34 LINE",
"102 331 LINE",
"293 331 LINE",
"293 365 LINE",
"102 365 LINE",
"102 654 LINE",
"321 654 LINE",
"321 688 LINE",
"65 688 LINE",
"65 0 LINE"
);
}
);
};
layerId = "E6BBBBE7-ECAD-4929-840D-43673C7BDEAF";
paths = (
{
closed = 1;
nodes = (
"321 0 LINE",
"321 34 LINE",
"102 34 LINE",
"102 331 LINE",
"293 331 LINE",
"293 365 LINE",
"102 365 LINE",
"102 654 LINE",
"321 654 LINE",
"321 688 LINE",
"65 688 LINE",
"65 0 LINE"
);
}
);
width = 351;
},
{
anchors = (
{
name = bottom;
position = "{177, 0}";
},
{
name = ogonek;
position = "{312, 0}";
},
{
name = top;
position = "{177, 688}";
},
{
name = topleft;
position = "{20, 688}";
}
);
background = {
anchors = (
{
name = bottom;
position = "{189, 0}";
},
{
name = ogonek;
position = "{304, 10}";
},
{
name = top;
position = "{189, 688}";
}
);
paths = (
{
closed = 1;
nodes = (
"312 0 LINE",
"312 139 LINE",
"188 139 LINE",
"188 278 LINE",
"297 278 LINE",
"297 417 LINE",
"188 417 LINE",
"188 549 LINE",
"312 549 LINE",
"312 688 LINE",
"34 688 LINE",
"34 0 LINE"
);
}
);
};
layerId = "7836D3B9-397C-42C1-8084-A98A44B9119A";
paths = (
{
closed = 1;
nodes = (
"312 0 LINE",
"312 139 LINE",
"188 139 LINE",
"188 278 LINE",
"297 278 LINE",
"297 417 LINE",
"188 417 LINE",
"188 549 LINE",
"312 549 LINE",
"312 688 LINE",
"34 688 LINE",
"34 0 LINE"
);
}
);
width = 338;
},
{
anchors = (
{
name = bottom;
position = "{235, 0}";
},
{
name = ogonek;
position = "{396, 0}";
},
{
name = top;
position = "{235, 688}";
},
{
name = topleft;
position = "{20, 688}";
}
);
background = {
anchors = (
{
name = bottom;
position = "{240, 0}";
},
{
name = ogonek;
position = "{391, 10}";
},
{
name = top;
position = "{240, 688}";
}
);
paths = (
{
closed = 1;
nodes = (
"396 0 LINE",
"396 101 LINE",
"173 101 LINE",
"173 297 LINE",
"366 297 LINE",
"366 398 LINE",
"173 398 LINE",
"173 587 LINE",
"396 587 LINE",
"396 688 LINE",
"61 688 LINE",
"61 0 LINE"
);
}
);
};
layerId = "374FF654-0B40-45EE-AE97-0DEB7620D1EC";
paths = (
{
closed = 1;
nodes = (
"396 0 LINE",
"396 101 LINE",
"173 101 LINE",
"173 297 LINE",
"366 297 LINE",
"366 398 LINE",
"173 398 LINE",
"173 587 LINE",
"396 587 LINE",
"396 688 LINE",
"61 688 LINE",
"61 0 LINE"
);
}
);
width = 434;
},
{
anchors = (
{
name = bottom;
position = "{327, 0}";
},
{
name = ogonek;
position = "{552, 0}";
},
{
name = top;
position = "{327, 688}";
},
{
name = topleft;
position = "{20, 688}";
}
);
background = {
anchors = (
{
name = bottom;
position = "{327, 0}";
},
{
name = ogonek;
position = "{547, 10}";
},
{
name = top;
position = "{327, 688}";
}
);
paths = (
{
closed = 1;
nodes = (
"552 0 LINE",
"552 108 LINE",
"215 108 LINE",
"215 293 LINE",
"505 293 LINE",
"505 401 LINE",
"215 401 LINE",
"215 580 LINE",
"552 580 LINE",
"552 688 LINE",
"87 688 LINE",
"87 0 LINE"
);
}
);
};
layerId = "E7A95A6A-7487-49EE-B62A-BA87B06E4B57";
paths = (
{
closed = 1;
nodes = (
"552 0 LINE",
"552 108 LINE",
"215 108 LINE",
"215 293 LINE",
"505 293 LINE",
"505 401 LINE",
"215 401 LINE",
"215 580 LINE",
"552 580 LINE",
"552 688 LINE",
"87 688 LINE",
"87 0 LINE"
);
}
);
width = 608;
},
{
anchors = (
{
name = bottom;
position = "{306.23, 0}";
},
{
name = ogonek;
position = "{557, 0}";
},
{
name = top;
position = "{306.23, 688}";
},
{
name = topleft;
position = "{20, 688}";
}
);
associatedMasterId = UUID0;
background = {
paths = (
{
closed = 1;
nodes = (
"538 0 LINE",
"538 122 LINE",
"236 122 LINE",
"236 288 LINE",
"492 288 LINE",
"492 407 LINE",
"236 407 LINE",
"236 566 LINE",
"538 566 LINE",
"538 688 LINE",
"71 688 LINE",
"71 0 LINE"
);
}
);
};
layerId = "1FD33D9F-04DD-496B-A06D-2AED8CF4F763";
name = "Intermediate {152, 307}";
paths = (
{
closed = 1;
nodes = (
"557 0 LINE",
"557 133 LINE",
"240 133 LINE",
"240 281 LINE",
"510 281 LINE",
"510 414 LINE",
"240 414 LINE",
"240 555 LINE",
"557 555 LINE",
"557 688 LINE",
"76 688 LINE",
"76 0 LINE"
);
}
);
width = 612;
}
);
leftKerningGroup = H;
rightKerningGroup = E;
unicode = 0045;
},
{
glyphname = Eogonek;
layers = (
{
background = {
anchors = (
{
name = bottom;
position = "{328, 0}";
},
{
name = top;
position = "{328, 688}";
}
);
paths = (
{
closed = 1;
nodes = (
"525 -196 OFFCURVE",
"529 -196 OFFCURVE",
"538 -195 CURVE",
"538 -163 LINE",
"529 -164 OFFCURVE",
"525 -164 OFFCURVE",
"521 -164 CURVE SMOOTH",
"486 -164 OFFCURVE",
"474 -143 OFFCURVE",
"474 -119 CURVE SMOOTH",
"474 -77 OFFCURVE",
"512 -23 OFFCURVE",
"541 0 CURVE",
"541 34 LINE",
"151 34 LINE",
"151 331 LINE",
"494 331 LINE",
"494 365 LINE",
"151 365 LINE",
"151 654 LINE",
"541 654 LINE",
"541 688 LINE",
"115 688 LINE",
"115 0 LINE",
"506 0 LINE",
"468 -35 OFFCURVE",
"440 -83 OFFCURVE",
"440 -126 CURVE SMOOTH",
"440 -164 OFFCURVE",
"461 -196 OFFCURVE",
"516 -196 CURVE SMOOTH"
);
}
);
};
components = (
{
name = E;
},
{
name = ogonekcomb.case;
transform = "{1, 0, 0, 1, 444, -4}";
}
);
layerId = UUID0;
width = 598;
},
{
background = {
anchors = (
{
name = bottom;
position = "{320, 0}";
},
{
name = top;
position = "{320, 688}";
}
);
paths = (
{
closed = 1;
nodes = (
"519 -196 OFFCURVE",
"547 -193 OFFCURVE",
"547 -193 CURVE",
"547 -123 LINE",
"547 -123 OFFCURVE",
"537 -124 OFFCURVE",
"528 -124 CURVE SMOOTH",
"493 -124 OFFCURVE",
"483 -107 OFFCURVE",
"483 -90 CURVE SMOOTH",
"483 -56 OFFCURVE",
"523 -18 OFFCURVE",
"552 0 CURVE",
"552 108 LINE",
"215 108 LINE",
"215 293 LINE",
"505 293 LINE",
"505 401 LINE",
"215 401 LINE",
"215 580 LINE",
"552 580 LINE",
"552 688 LINE",
"87 688 LINE",
"87 0 LINE",
"449 0 LINE",
"404 -40 OFFCURVE",
"381 -78 OFFCURVE",
"381 -118 CURVE SMOOTH",
"381 -159 OFFCURVE",
"405 -196 OFFCURVE",
"493 -196 CURVE SMOOTH"
);
}
);
};
components = (
{
name = E;
},
{
name = ogonekcomb.case;
transform = "{1, 0, 0, 1, 387, -4}";
}
);
layerId = "E7A95A6A-7487-49EE-B62A-BA87B06E4B57";
width = 608;
},
{
background = {
anchors = (
{
name = bottom;
position = "{303, 0}";
},
{
name = top;
position = "{303, 688}";
}
);
paths = (
{
closed = 1;
nodes = (
"482 -196 OFFCURVE",
"520 -194 OFFCURVE",
"543 -192 CURVE",
"543 -98 LINE",
"534 -99 OFFCURVE",
"529 -99 OFFCURVE",
"526 -99 CURVE SMOOTH",
"489 -99 OFFCURVE",
"479 -85 OFFCURVE",
"479 -70 CURVE SMOOTH",
"479 -39 OFFCURVE",
"521 -14 OFFCURVE",
"555 0 CURVE",
"555 167 LINE",
"284 167 LINE",
"284 266 LINE",
"508 266 LINE",
"508 429 LINE",
"284 429 LINE",
"284 521 LINE",
"555 521 LINE",
"555 688 LINE",
"51 688 LINE",
"51 0 LINE",
"386 0 LINE",
"340 -34 OFFCURVE",
"311 -69 OFFCURVE",
"311 -110 CURVE SMOOTH",
"311 -153 OFFCURVE",
"343 -196 OFFCURVE",
"457 -196 CURVE SMOOTH"
);
}
);
};
components = (
{
name = E;
},
{
name = ogonekcomb.case;
transform = "{1, 0, 0, 1, 324, -4}";
}
);
layerId = "4F93A97B-747D-4721-B098-38A63C534D7A";
width = 603;
},
{
background = {
paths = (
{
closed = 1;
nodes = (
"303 -196 OFFCURVE",
"307 -196 OFFCURVE",
"316 -195 CURVE",
"316 -163 LINE",
"307 -164 OFFCURVE",
"303 -164 OFFCURVE",
"299 -164 CURVE SMOOTH",
"264 -164 OFFCURVE",
"252 -143 OFFCURVE",
"252 -119 CURVE SMOOTH",
"252 -77 OFFCURVE",
"291 -23 OFFCURVE",
"321 0 CURVE",
"321 34 LINE",
"102 34 LINE",
"102 331 LINE",
"293 331 LINE",
"293 365 LINE",
"102 365 LINE",
"102 654 LINE",
"321 654 LINE",
"321 688 LINE",
"65 688 LINE",
"65 0 LINE",
"286 0 LINE",
"247 -35 OFFCURVE",
"218 -83 OFFCURVE",
"218 -127 CURVE SMOOTH",
"218 -164 OFFCURVE",
"239 -196 OFFCURVE",
"294 -196 CURVE SMOOTH"
);
}
);
};
components = (
{
name = E;
},
{
name = ogonekcomb.case;
transform = "{1, 0, 0, 1, 224, -4}";
}
);
layerId = "E6BBBBE7-ECAD-4929-840D-43673C7BDEAF";
width = 351;
},
{
background = {
anchors = (
{
name = bottom;
position = "{229, 0}";
},
{
name = top;
position = "{229, 688}";
}
);
paths = (
{
closed = 1;
nodes = (
"358 -196 OFFCURVE",
"373 -195 OFFCURVE",
"391 -193 CURVE",
"391 -131 LINE",
"386 -131 OFFCURVE",
"382 -132 OFFCURVE",
"375 -132 CURVE SMOOTH",
"346 -132 OFFCURVE",
"335 -115 OFFCURVE",
"335 -95 CURVE SMOOTH",
"335 -59 OFFCURVE",
"370 -18 OFFCURVE",
"396 0 CURVE",
"396 101 LINE",
"173 101 LINE",
"173 297 LINE",
"366 297 LINE",
"366 398 LINE",
"173 398 LINE",
"173 587 LINE",
"396 587 LINE",
"396 688 LINE",
"61 688 LINE",
"61 0 LINE",
"312 0 LINE",
"279 -31 OFFCURVE",
"249 -70 OFFCURVE",
"249 -117 CURVE SMOOTH",
"249 -157 OFFCURVE",
"271 -196 OFFCURVE",
"346 -196 CURVE SMOOTH"
);
}
);
};
components = (
{
name = E;
},
{
name = ogonekcomb.case;
transform = "{1, 0, 0, 1, 255, -4}";
}
);
layerId = "374FF654-0B40-45EE-AE97-0DEB7620D1EC";
width = 434;
},
{
background = {
anchors = (
{
name = bottom;
position = "{173, 0}";
},
{
name = top;
position = "{173, 688}";
}
);
paths = (
{
closed = 1;
nodes = (
"268 -196 OFFCURVE",
"291 -194 OFFCURVE",
"304 -191 CURVE",
"304 -117 LINE",
"298 -118 OFFCURVE",
"296 -118 OFFCURVE",
"294 -118 CURVE SMOOTH",
"267 -118 OFFCURVE",
"261 -101 OFFCURVE",
"261 -85 CURVE SMOOTH",
"261 -46 OFFCURVE",
"295 -14 OFFCURVE",
"312 0 CURVE",
"312 139 LINE",
"188 139 LINE",
"188 278 LINE",
"297 278 LINE",
"297 417 LINE",
"188 417 LINE",
"188 549 LINE",
"312 549 LINE",
"312 688 LINE",
"34 688 LINE",
"34 0 LINE",
"213 0 LINE",
"181 -28 OFFCURVE",
"153 -64 OFFCURVE",
"153 -110 CURVE SMOOTH",
"153 -152 OFFCURVE",
"177 -196 OFFCURVE",
"252 -196 CURVE SMOOTH"
);
}
);
};
components = (
{
name = E;
},
{
name = ogonekcomb.case;
transform = "{1, 0, 0, 1, 162, -4}";
}
);
layerId = "7836D3B9-397C-42C1-8084-A98A44B9119A";
width = 338;
}
);
leftKerningGroup = H;
rightKerningGroup = E;
unicode = 0118;
},
{
glyphname = F;
layers = (
{
anchors = (
{
name = bottom;
position = "{133, 0}";
},
{
name = top;
position = "{318, 688}";
}
);
background = {
anchors = (
{
name = bottom;
position = "{281, 0}";
},
{
name = top;
position = "{281, 688}";
}
);
paths = (
{
closed = 1;
nodes = (
"151 0 LINE",
"151 317 LINE",
"484 317 LINE",
"484 351 LINE",
"151 351 LINE",
"151 654 LINE",
"521 654 LINE",
"521 688 LINE",
"115 688 LINE",
"115 0 LINE"
);
}
);
};
layerId = UUID0;
paths = (
{
closed = 1;
nodes = (
"151 0 LINE",
"151 317 LINE",
"484 317 LINE",
"484 351 LINE",
"151 351 LINE",
"151 654 LINE",
"521 654 LINE",
"521 688 LINE",
"115 688 LINE",
"115 0 LINE"
);
}
);
width = 561;
},
{
anchors = (
{
name = bottom;
position = "{168, 0}";
},
{
name = top;
position = "{293, 688}";
}
);
background = {
anchors = (
{
name = bottom;
position = "{285, 0}";
},
{
name = top;
position = "{285, 688}";
}
);
paths = (
{
closed = 1;
nodes = (
"284 0 LINE",
"284 233 LINE",
"498 233 LINE",
"498 400 LINE",
"284 400 LINE",
"284 521 LINE",
"535 521 LINE",
"535 688 LINE",
"51 688 LINE",
"51 0 LINE"
);
}
);
};
layerId = "4F93A97B-747D-4721-B098-38A63C534D7A";
paths = (
{
closed = 1;
nodes = (
"284 0 LINE",
"284 233 LINE",
"498 233 LINE",
"498 400 LINE",
"284 400 LINE",
"284 521 LINE",
"535 521 LINE",
"535 688 LINE",
"51 688 LINE",
"51 0 LINE"
);
}
);
width = 569;
},
{
anchors = (
{
name = bottom;
position = "{84, 0}";
},
{
name = top;
position = "{187, 688}";
}
);
background = {
anchors = (
{
name = bottom;
position = "{167, 0}";
},
{
name = top;
position = "{167, 688}";
}
);
paths = (
{
closed = 1;
nodes = (
"102 0 LINE",
"102 317 LINE",
"287 317 LINE",
"287 351 LINE",
"102 351 LINE",
"102 654 LINE",
"309 654 LINE",
"309 688 LINE",
"65 688 LINE",
"65 0 LINE"
);
}
);
};
layerId = "E6BBBBE7-ECAD-4929-840D-43673C7BDEAF";
paths = (
{
closed = 1;
nodes = (
"102 0 LINE",
"102 317 LINE",
"287 317 LINE",
"287 351 LINE",
"102 351 LINE",
"102 654 LINE",
"309 654 LINE",
"309 688 LINE",
"65 688 LINE",
"65 0 LINE"
);
}
);
width = 334;
},
{
anchors = (
{
name = bottom;
position = "{111, 0}";
},
{
name = top;
position = "{167, 688}";
}
);
background = {
anchors = (
{
name = bottom;
position = "{156, 0}";
},
{
name = top;
position = "{156, 688}";
}
);
paths = (
{
closed = 1;
nodes = (
"188 0 LINE",
"188 264 LINE",
"285 264 LINE",
"285 403 LINE",
"188 403 LINE",
"188 549 LINE",
"299 549 LINE",
"299 688 LINE",
"34 688 LINE",
"34 0 LINE"
);
}
);
};
layerId = "7836D3B9-397C-42C1-8084-A98A44B9119A";
paths = (
{
closed = 1;
nodes = (
"188 0 LINE",
"188 264 LINE",
"285 264 LINE",
"285 403 LINE",
"188 403 LINE",
"188 549 LINE",
"299 549 LINE",
"299 688 LINE",
"34 688 LINE",
"34 0 LINE"
);
}
);
width = 312;
},
{
anchors = (
{
name = bottom;
position = "{117, 0}";
},
{
name = top;
position = "{221, 688}";
}
);
background = {
anchors = (
{
name = bottom;
position = "{203, 0}";
},
{
name = top;
position = "{203, 688}";
}
);
paths = (
{
closed = 1;
nodes = (
"173 0 LINE",
"173 281 LINE",
"357 281 LINE",
"357 382 LINE",
"173 382 LINE",
"173 587 LINE",
"380 587 LINE",
"380 688 LINE",
"61 688 LINE",
"61 0 LINE"
);
}
);
};
layerId = "374FF654-0B40-45EE-AE97-0DEB7620D1EC";
paths = (
{
closed = 1;
nodes = (
"173 0 LINE",
"173 281 LINE",
"357 281 LINE",
"357 382 LINE",
"173 382 LINE",
"173 587 LINE",
"380 587 LINE",
"380 688 LINE",
"61 688 LINE",
"61 0 LINE"
);
}
);
width = 405;
},
{
anchors = (
{
name = bottom;
position = "{286.871, 0}";
},
{
name = top;
position = "{286.871, 688}";
}
);
associatedMasterId = UUID0;
background = {
paths = (
{
closed = 1;
nodes = (
"236 0 LINE",
"236 262 LINE",
"482 262 LINE",
"482 384 LINE",
"236 384 LINE",
"236 566 LINE",
"518 566 LINE",
"518 688 LINE",
"71 688 LINE",
"71 0 LINE"
);
}
);
};
layerId = "69B47D6F-0E0A-465D-B0F3-2F25FE21AA41";
name = "Intermediate {152, 307}";
paths = (
{
closed = 1;
nodes = (
"240 0 LINE",
"240 262 LINE",
"500 262 LINE",
"500 395 LINE",
"240 395 LINE",
"240 555 LINE",
"537 555 LINE",
"537 688 LINE",
"76 688 LINE",
"76 0 LINE"
);
}
);
width = 573;
},
{
anchors = (
{
name = bottom;
position = "{151, 0}";
},
{
name = top;
position = "{310, 688}";
}
);
background = {
anchors = (
{
name = bottom;
position = "{285, 0}";
},
{
name = top;
position = "{285, 688}";
}
);
paths = (
{
closed = 1;
nodes = (
"215 0 LINE",
"215 276 LINE",
"495 276 LINE",
"495 384 LINE",
"215 384 LINE",
"215 580 LINE",
"532 580 LINE",
"532 688 LINE",
"87 688 LINE",
"87 0 LINE"
);
}
);
};
layerId = "E7A95A6A-7487-49EE-B62A-BA87B06E4B57";
paths = (
{
closed = 1;
nodes = (
"215 0 LINE",
"215 276 LINE",
"495 276 LINE",
"495 384 LINE",
"215 384 LINE",
"215 580 LINE",
"532 580 LINE",
"532 688 LINE",
"87 688 LINE",
"87 0 LINE"
);
}
);
width = 569;
}
);
leftKerningGroup = H;
rightKerningGroup = F;
unicode = 0046;
},
{
glyphname = G;
layers = (
{
anchors = (
{
name = bottom;
position = "{362, 0}";
},
{
name = top;
position = "{362, 688}";
}
);
background = {
anchors = (
{
name = bottom;
position = "{342, 0}";
},
{
name = top;
position = "{342, 688}";
}
);
paths = (
{
closed = 1;
nodes = (
"547 38 LINE",
"502 32 OFFCURVE",
"419 26 OFFCURVE",
"371 26 CURVE SMOOTH",
"152 26 OFFCURVE",
"126 66 OFFCURVE",
"126 344 CURVE SMOOTH",
"126 659 OFFCURVE",
"177 662 OFFCURVE",
"402 662 CURVE SMOOTH",
"446 662 OFFCURVE",
"522 655 OFFCURVE",
"580 646 CURVE",
"580 678 LINE",
"528 688 OFFCURVE",
"440 696 OFFCURVE",
"372 696 CURVE SMOOTH",
"139 696 OFFCURVE",
"90 657 OFFCURVE",
"90 344 CURVE SMOOTH",
"90 31 OFFCURVE",
"136 -8 OFFCURVE",
"372 -8 CURVE SMOOTH",
"432 -8 OFFCURVE",
"519 -1 OFFCURVE",
"583 9 CURVE",
"583 349 LINE",
"353 349 LINE",
"353 315 LINE",
"547 315 LINE"
);
}
);
};
layerId = UUID0;
paths = (
{
closed = 1;
nodes = (
"432 -8 OFFCURVE",
"519 -1 OFFCURVE",
"583 9 CURVE",
"583 349 LINE",
"353 349 LINE",
"353 315 LINE",
"547 315 LINE",
"547 38 LINE",
"502 32 OFFCURVE",
"419 26 OFFCURVE",
"371 26 CURVE SMOOTH",
"152 26 OFFCURVE",
"126 66 OFFCURVE",
"126 344 CURVE SMOOTH",
"126 659 OFFCURVE",
"177 662 OFFCURVE",
"402 662 CURVE SMOOTH",
"446 662 OFFCURVE",
"522 655 OFFCURVE",
"580 646 CURVE",
"580 678 LINE",
"528 688 OFFCURVE",
"440 696 OFFCURVE",
"372 696 CURVE SMOOTH",
"139 696 OFFCURVE",
"90 657 OFFCURVE",
"90 344 CURVE SMOOTH",
"90 31 OFFCURVE",
"136 -8 OFFCURVE",
"372 -8 CURVE SMOOTH"
);
}
);
width = 683;
},
{
anchors = (
{
name = bottom;
position = "{356, 0}";
},
{
name = top;
position = "{356, 688}";
}
);
background = {
anchors = (
{
name = bottom;
position = "{331, 0}";
},
{
name = top;
position = "{331, 688}";
}
);
paths = (
{
closed = 1;
nodes = (
"410 156 LINE",
"395 156 OFFCURVE",
"374 155 OFFCURVE",
"367 155 CURVE SMOOTH",
"280 155 OFFCURVE",
"271 183 OFFCURVE",
"271 344 CURVE SMOOTH",
"271 525 OFFCURVE",
"276 529 OFFCURVE",
"432 529 CURVE SMOOTH",
"468 529 OFFCURVE",
"549 523 OFFCURVE",
"611 516 CURVE",
"611 672 LINE",
"535 686 OFFCURVE",
"430 696 OFFCURVE",
"357 696 CURVE SMOOTH",
"98 696 OFFCURVE",
"42 620 OFFCURVE",
"42 344 CURVE SMOOTH",
"42 68 OFFCURVE",
"98 -8 OFFCURVE",
"357 -8 CURVE SMOOTH",
"432 -8 OFFCURVE",
"539 1 OFFCURVE",
"614 13 CURVE",
"614 414 LINE",
"344 414 LINE",
"344 263 LINE",
"410 263 LINE"
);
}
);
};
layerId = "4F93A97B-747D-4721-B098-38A63C534D7A";
paths = (
{
closed = 1;
nodes = (
"432 -8 OFFCURVE",
"539 1 OFFCURVE",
"614 13 CURVE",
"614 414 LINE",
"344 414 LINE",
"344 263 LINE",
"410 263 LINE",
"410 156 LINE",
"395 156 OFFCURVE",
"374 155 OFFCURVE",
"367 155 CURVE SMOOTH",
"280 155 OFFCURVE",
"271 183 OFFCURVE",
"271 344 CURVE SMOOTH",
"271 525 OFFCURVE",
"276 529 OFFCURVE",
"432 529 CURVE SMOOTH",
"468 529 OFFCURVE",
"549 523 OFFCURVE",
"611 516 CURVE",
"611 672 LINE",
"535 686 OFFCURVE",
"430 696 OFFCURVE",
"357 696 CURVE SMOOTH",
"98 696 OFFCURVE",
"42 620 OFFCURVE",
"42 344 CURVE SMOOTH",
"42 68 OFFCURVE",
"98 -8 OFFCURVE",
"357 -8 CURVE SMOOTH"
);
}
);
width = 662;
},
{
anchors = (
{
name = bottom;
position = "{212, 0}";
},
{
name = top;
position = "{212, 688}";
}
);
background = {
anchors = (
{
name = bottom;
position = "{196, 0}";
},
{
name = top;
position = "{196, 688}";
}
);
paths = (
{
closed = 1;
nodes = (
"309 38 LINE",
"288 31 OFFCURVE",
"249 26 OFFCURVE",
"218 26 CURVE SMOOTH",
"100 26 OFFCURVE",
"86 76 OFFCURVE",
"86 344 CURVE SMOOTH",
"86 649 OFFCURVE",
"112 662 OFFCURVE",
"237 662 CURVE SMOOTH",
"264 662 OFFCURVE",
"310 655 OFFCURVE",
"344 646 CURVE",
"344 678 LINE",
"311 689 OFFCURVE",
"259 696 OFFCURVE",
"219 696 CURVE SMOOTH",
"78 696 OFFCURVE",
"50 642 OFFCURVE",
"50 344 CURVE SMOOTH",
"50 41 OFFCURVE",
"83 -8 OFFCURVE",
"219 -8 CURVE SMOOTH",
"255 -8 OFFCURVE",
"306 -1 OFFCURVE",
"345 9 CURVE",
"345 349 LINE",
"207 349 LINE",
"207 315 LINE",
"309 315 LINE"
);
}
);
};
layerId = "E6BBBBE7-ECAD-4929-840D-43673C7BDEAF";
paths = (
{
closed = 1;
nodes = (
"255 -8 OFFCURVE",
"306 -1 OFFCURVE",
"345 9 CURVE",
"345 349 LINE",
"207 349 LINE",
"207 315 LINE",
"309 315 LINE",
"309 38 LINE",
"288 31 OFFCURVE",
"249 26 OFFCURVE",
"218 26 CURVE SMOOTH",
"100 26 OFFCURVE",
"86 76 OFFCURVE",
"86 344 CURVE SMOOTH",
"86 649 OFFCURVE",
"112 662 OFFCURVE",
"237 662 CURVE SMOOTH",
"264 662 OFFCURVE",
"310 655 OFFCURVE",
"344 646 CURVE",
"344 678 LINE",
"311 689 OFFCURVE",
"259 696 OFFCURVE",
"219 696 CURVE SMOOTH",
"78 696 OFFCURVE",
"50 642 OFFCURVE",
"50 344 CURVE SMOOTH",
"50 41 OFFCURVE",
"83 -8 OFFCURVE",
"219 -8 CURVE SMOOTH"
);
}
);
width = 392;
},
{
anchors = (
{
name = bottom;
position = "{214, 0}";
},
{
name = top;
position = "{214, 688}";
}
);
background = {
anchors = (
{
name = bottom;
position = "{205, 0}";
},
{
name = top;
position = "{205, 688}";
}
);
paths = (
{
closed = 1;
nodes = (
"243 127 LINE",
"241 127 OFFCURVE",
"235 126 OFFCURVE",
"223 126 CURVE SMOOTH",
"179 126 OFFCURVE",
"176 145 OFFCURVE",
"176 344 CURVE SMOOTH",
"176 557 OFFCURVE",
"187 557 OFFCURVE",
"274 557 CURVE SMOOTH",
"290 557 OFFCURVE",
"337 553 OFFCURVE",
"379 548 CURVE",
"379 676 LINE",
"339 688 OFFCURVE",
"278 696 OFFCURVE",
"235 696 CURVE SMOOTH",
"64 696 OFFCURVE",
"24 630 OFFCURVE",
"24 344 CURVE SMOOTH",
"24 60 OFFCURVE",
"59 -8 OFFCURVE",
"218 -8 CURVE SMOOTH",
"274 -8 OFFCURVE",
"341 1 OFFCURVE",
"380 14 CURVE",
"380 412 LINE",
"212 412 LINE",
"212 277 LINE",
"243 277 LINE"
);
}
);
};
layerId = "7836D3B9-397C-42C1-8084-A98A44B9119A";
paths = (
{
closed = 1;
nodes = (
"274 -8 OFFCURVE",
"341 1 OFFCURVE",
"380 14 CURVE",
"380 412 LINE",
"212 412 LINE",
"212 277 LINE",
"243 277 LINE",
"243 127 LINE",
"241 127 OFFCURVE",
"235 126 OFFCURVE",
"223 126 CURVE SMOOTH",
"179 126 OFFCURVE",
"176 145 OFFCURVE",
"176 344 CURVE SMOOTH",
"176 557 OFFCURVE",
"187 557 OFFCURVE",
"274 557 CURVE SMOOTH",
"290 557 OFFCURVE",
"337 553 OFFCURVE",
"379 548 CURVE",
"379 676 LINE",
"339 688 OFFCURVE",
"278 696 OFFCURVE",
"235 696 CURVE SMOOTH",
"64 696 OFFCURVE",
"24 630 OFFCURVE",
"24 344 CURVE SMOOTH",
"24 60 OFFCURVE",
"59 -8 OFFCURVE",
"218 -8 CURVE SMOOTH"
);
}
);
width = 410;
},
{
anchors = (
{
name = bottom;
position = "{267, 0}";
},
{
name = top;
position = "{267, 688}";
}
);
background = {
anchors = (
{
name = bottom;
position = "{248, 0}";
},
{
name = top;
position = "{248, 688}";
}
);
paths = (
{
closed = 1;
nodes = (
"332 95 LINE",
"311 92 OFFCURVE",
"286 90 OFFCURVE",
"269 90 CURVE SMOOTH",
"171 90 OFFCURVE",
"159 126 OFFCURVE",
"159 344 CURVE SMOOTH",
"159 590 OFFCURVE",
"180 595 OFFCURVE",
"312 595 CURVE SMOOTH",
"339 595 OFFCURVE",
"396 589 OFFCURVE",
"439 582 CURVE",
"439 676 LINE",
"395 688 OFFCURVE",
"327 696 OFFCURVE",
"276 696 CURVE SMOOTH",
"87 696 OFFCURVE",
"47 631 OFFCURVE",
"47 344 CURVE SMOOTH",
"47 56 OFFCURVE",
"86 -8 OFFCURVE",
"269 -8 CURVE SMOOTH",
"325 -8 OFFCURVE",
"397 0 OFFCURVE",
"441 12 CURVE",
"441 390 LINE",
"254 390 LINE",
"254 290 LINE",
"332 290 LINE"
);
}
);
};
layerId = "374FF654-0B40-45EE-AE97-0DEB7620D1EC";
paths = (
{
closed = 1;
nodes = (
"325 -8 OFFCURVE",
"397 0 OFFCURVE",
"441 12 CURVE",
"441 390 LINE",
"254 390 LINE",
"254 290 LINE",
"332 290 LINE",
"332 95 LINE",
"311 92 OFFCURVE",
"286 90 OFFCURVE",
"269 90 CURVE SMOOTH",
"171 90 OFFCURVE",
"159 126 OFFCURVE",
"159 344 CURVE SMOOTH",
"159 590 OFFCURVE",
"180 595 OFFCURVE",
"312 595 CURVE SMOOTH",
"339 595 OFFCURVE",
"396 589 OFFCURVE",
"439 582 CURVE",
"439 676 LINE",
"395 688 OFFCURVE",
"327 696 OFFCURVE",
"276 696 CURVE SMOOTH",
"87 696 OFFCURVE",
"47 631 OFFCURVE",
"47 344 CURVE SMOOTH",
"47 56 OFFCURVE",
"86 -8 OFFCURVE",
"269 -8 CURVE SMOOTH"
);
}
);
width = 495;
},
{
anchors = (
{
name = bottom;
position = "{332.693, 0}";
},
{
name = top;
position = "{332.693, 688}";
}
);
associatedMasterId = UUID0;
background = {
paths = (
{
closed = 1;
nodes = (
"445 116 LINE",
"420 114 OFFCURVE",
"380 111 OFFCURVE",
"360 111 CURVE SMOOTH",
"233 111 OFFCURVE",
"219 144 OFFCURVE",
"219 344 CURVE SMOOTH",
"219 570 OFFCURVE",
"239 574 OFFCURVE",
"414 574 CURVE SMOOTH",
"451 574 OFFCURVE",
"529 568 OFFCURVE",
"588 560 CURVE",
"588 674 LINE",
"522 687 OFFCURVE",
"425 696 OFFCURVE",
"355 696 CURVE SMOOTH",
"110 696 OFFCURVE",
"57 632 OFFCURVE",
"57 344 CURVE SMOOTH",
"57 56 OFFCURVE",
"109 -8 OFFCURVE",
"355 -8 CURVE SMOOTH",
"424 -8 OFFCURVE",
"522 0 OFFCURVE",
"591 12 CURVE",
"591 393 LINE",
"340 393 LINE",
"340 281 LINE",
"445 281 LINE"
);
}
);
};
layerId = "E972FFEC-D833-4B30-BC6A-FEF0C50C25C7";
name = "Intermediate {152, 307}";
paths = (
{
closed = 1;
nodes = (
"430 -8 OFFCURVE",
"528 2 OFFCURVE",
"596 16 CURVE",
"596 399 LINE",
"343 399 LINE",
"343 273 LINE",
"441 273 LINE",
"441 124 LINE",
"418 122 OFFCURVE",
"385 121 OFFCURVE",
"369 121 CURVE SMOOTH",
"238 121 OFFCURVE",
"223 153 OFFCURVE",
"223 344 CURVE SMOOTH",
"223 559 OFFCURVE",
"243 563 OFFCURVE",
"423 563 CURVE SMOOTH",
"483 563 OFFCURVE",
"593 549 OFFCURVE",
"593 549 CURVE",
"593 673 LINE",
"593 673 OFFCURVE",
"482 696 OFFCURVE",
"362 696 CURVE SMOOTH",
"110 696 OFFCURVE",
"56 615 OFFCURVE",
"56 344 CURVE SMOOTH",
"56 46 OFFCURVE",
"109 -8 OFFCURVE",
"362 -8 CURVE SMOOTH"
);
}
);
width = 665;
},
{
anchors = (
{
name = bottom;
position = "{355, 0}";
},
{
name = top;
position = "{355, 688}";
}
);
background = {
anchors = (
{
name = bottom;
position = "{335, 0}";
},
{
name = top;
position = "{335, 688}";
}
);
paths = (
{
closed = 1;
nodes = (
"469 102 LINE",
"447 99 OFFCURVE",
"405 97 OFFCURVE",
"369 97 CURVE SMOOTH",
"214 97 OFFCURVE",
"193 131 OFFCURVE",
"193 344 CURVE SMOOTH",
"193 584 OFFCURVE",
"224 588 OFFCURVE",
"417 588 CURVE SMOOTH",
"452 588 OFFCURVE",
"519 582 OFFCURVE",
"589 573 CURVE",
"589 674 LINE",
"523 687 OFFCURVE",
"431 696 OFFCURVE",
"365 696 CURVE SMOOTH",
"118 696 OFFCURVE",
"65 624 OFFCURVE",
"65 344 CURVE SMOOTH",
"65 64 OFFCURVE",
"116 -8 OFFCURVE",
"365 -8 CURVE SMOOTH",
"429 -8 OFFCURVE",
"523 1 OFFCURVE",
"592 14 CURVE",
"592 387 LINE",
"346 387 LINE",
"346 282 LINE",
"469 282 LINE"
);
}
);
};
layerId = "E7A95A6A-7487-49EE-B62A-BA87B06E4B57";
paths = (
{
closed = 1;
nodes = (
"429 -8 OFFCURVE",
"523 1 OFFCURVE",
"592 14 CURVE",
"592 387 LINE",
"346 387 LINE",
"346 282 LINE",
"469 282 LINE",
"469 102 LINE",
"447 99 OFFCURVE",
"405 97 OFFCURVE",
"369 97 CURVE SMOOTH",
"214 97 OFFCURVE",
"193 131 OFFCURVE",
"193 344 CURVE SMOOTH",
"193 584 OFFCURVE",
"224 588 OFFCURVE",
"417 588 CURVE SMOOTH",
"452 588 OFFCURVE",
"519 582 OFFCURVE",
"589 573 CURVE",
"589 674 LINE",
"523 687 OFFCURVE",
"431 696 OFFCURVE",
"365 696 CURVE SMOOTH",
"118 696 OFFCURVE",
"65 624 OFFCURVE",
"65 344 CURVE SMOOTH",
"65 64 OFFCURVE",
"116 -8 OFFCURVE",
"365 -8 CURVE SMOOTH"
);
}
);
width = 670;
}
);
leftKerningGroup = O;
rightKerningGroup = G;
unicode = 0047;
},
{
glyphname = H;
layers = (
{
anchors = (
{
name = bottom;
position = "{369, 0}";
},
{
name = center;
position = "{369, 510}";
},
{
name = top;
position = "{369, 688}";
},
{
name = topleft;
position = "{115, 688}";
}
);
background = {
anchors = (
{
name = bottom;
position = "{369, 0}";
},
{
name = center;
position = "{369, 344}";
},
{
name = top;
position = "{369, 688}";
}
);
paths = (
{
closed = 1;
nodes = (
"623 0 LINE",
"623 688 LINE",
"587 688 LINE",
"587 365 LINE",
"151 365 LINE",
"151 688 LINE",
"115 688 LINE",
"115 0 LINE",
"151 0 LINE",
"151 331 LINE",
"587 331 LINE",
"587 0 LINE"
);
}
);
};
layerId = UUID0;
paths = (
{
closed = 1;
nodes = (
"151 0 LINE",
"151 331 LINE",
"587 331 LINE",
"587 0 LINE",
"623 0 LINE",
"623 688 LINE",
"587 688 LINE",
"587 365 LINE",
"151 365 LINE",
"151 688 LINE",
"115 688 LINE",
"115 0 LINE"
);
}
);
width = 738;
},
{
anchors = (
{
name = bottom;
position = "{349, 0}";
},
{
name = center;
position = "{349, 510}";
},
{
name = top;
position = "{349, 688}";
},
{
name = topleft;
position = "{51, 688}";
}
);
background = {
anchors = (
{
name = bottom;
position = "{349, 0}";
},
{
name = center;
position = "{349, 344}";
},
{
name = top;
position = "{349, 688}";
}
);
paths = (
{
closed = 1;
nodes = (
"646 0 LINE",
"646 688 LINE",
"412 688 LINE",
"412 438 LINE",
"285 438 LINE",
"285 688 LINE",
"51 688 LINE",
"51 0 LINE",
"285 0 LINE",
"285 251 LINE",
"412 251 LINE",
"412 0 LINE"
);
}
);
};
layerId = "4F93A97B-747D-4721-B098-38A63C534D7A";
paths = (
{
closed = 1;
nodes = (
"285 0 LINE",
"285 251 LINE",
"412 251 LINE",
"412 0 LINE",
"646 0 LINE",
"646 688 LINE",
"412 688 LINE",
"412 438 LINE",
"285 438 LINE",
"285 688 LINE",
"51 688 LINE",
"51 0 LINE"
);
}
);
width = 697;
},
{
anchors = (
{
name = bottom;
position = "{217, 0}";
},
{
name = center;
position = "{217, 510}";
},
{
name = top;
position = "{217, 688}";
},
{
name = topleft;
position = "{65, 688}";
}
);
background = {
anchors = (
{
name = bottom;
position = "{217, 0}";
},
{
name = center;
position = "{217, 344}";
},
{
name = top;
position = "{217, 688}";
}
);
paths = (
{
closed = 1;
nodes = (
"369 0 LINE",
"369 688 LINE",
"333 688 LINE",
"333 365 LINE",
"101 365 LINE",
"101 688 LINE",
"65 688 LINE",
"65 0 LINE",
"101 0 LINE",
"101 331 LINE",
"333 331 LINE",
"333 0 LINE"
);
}
);
};
layerId = "E6BBBBE7-ECAD-4929-840D-43673C7BDEAF";
paths = (
{
closed = 1;
nodes = (
"101 0 LINE",
"101 331 LINE",
"333 331 LINE",
"333 0 LINE",
"369 0 LINE",
"369 688 LINE",
"333 688 LINE",
"333 365 LINE",
"101 365 LINE",
"101 688 LINE",
"65 688 LINE",
"65 0 LINE"
);
}
);
width = 434;
},
{
anchors = (
{
name = bottom;
position = "{216, 0}";
},
{
name = center;
position = "{216, 510}";
},
{
name = top;
position = "{216, 688}";
},
{
name = topleft;
position = "{34, 688}";
}
);
background = {
anchors = (
{
name = bottom;
position = "{216, 0}";
},
{
name = center;
position = "{216, 344}";
},
{
name = top;
position = "{216, 688}";
}
);
paths = (
{
closed = 1;
nodes = (
"398 0 LINE",
"398 688 LINE",
"244 688 LINE",
"244 420 LINE",
"188 420 LINE",
"188 688 LINE",
"34 688 LINE",
"34 0 LINE",
"188 0 LINE",
"188 273 LINE",
"244 273 LINE",
"244 0 LINE"
);
}
);
};
layerId = "7836D3B9-397C-42C1-8084-A98A44B9119A";
paths = (
{
closed = 1;
nodes = (
"188 0 LINE",
"188 273 LINE",
"244 273 LINE",
"244 0 LINE",
"398 0 LINE",
"398 688 LINE",
"244 688 LINE",
"244 420 LINE",
"188 420 LINE",
"188 688 LINE",
"34 688 LINE",
"34 0 LINE"
);
}
);
width = 432;
},
{
anchors = (
{
name = bottom;
position = "{267, 0}";
},
{
name = center;
position = "{267, 510}";
},
{
name = top;
position = "{267, 688}";
},
{
name = topleft;
position = "{61, 688}";
}
);
background = {
anchors = (
{
name = bottom;
position = "{267, 0}";
},
{
name = center;
position = "{267, 344}";
},
{
name = top;
position = "{267, 688}";
}
);
paths = (
{
closed = 1;
nodes = (
"472 0 LINE",
"472 688 LINE",
"360 688 LINE",
"360 399 LINE",
"173 399 LINE",
"173 688 LINE",
"61 688 LINE",
"61 0 LINE",
"173 0 LINE",
"173 294 LINE",
"360 294 LINE",
"360 0 LINE"
);
}
);
};
layerId = "374FF654-0B40-45EE-AE97-0DEB7620D1EC";
paths = (
{
closed = 1;
nodes = (
"173 0 LINE",
"173 294 LINE",
"360 294 LINE",
"360 0 LINE",
"472 0 LINE",
"472 688 LINE",
"360 688 LINE",
"360 399 LINE",
"173 399 LINE",
"173 688 LINE",
"61 688 LINE",
"61 0 LINE"
);
}
);
width = 533;
},
{
anchors = (
{
name = bottom;
position = "{363, 0}";
},
{
name = center;
position = "{363, 510}";
},
{
name = top;
position = "{363, 688}";
},
{
name = topleft;
position = "{87, 688}";
}
);
background = {
anchors = (
{
name = bottom;
position = "{363, 0}";
},
{
name = center;
position = "{363, 344}";
},
{
name = top;
position = "{363, 688}";
}
);
paths = (
{
closed = 1;
nodes = (
"639 0 LINE",
"639 688 LINE",
"511 688 LINE",
"511 402 LINE",
"215 402 LINE",
"215 688 LINE",
"87 688 LINE",
"87 0 LINE",
"215 0 LINE",
"215 290 LINE",
"511 290 LINE",
"511 0 LINE"
);
}
);
};
layerId = "E7A95A6A-7487-49EE-B62A-BA87B06E4B57";
paths = (
{
closed = 1;
nodes = (
"215 0 LINE",
"215 290 LINE",
"511 290 LINE",
"511 0 LINE",
"639 0 LINE",
"639 688 LINE",
"511 688 LINE",
"511 402 LINE",
"215 402 LINE",
"215 688 LINE",
"87 688 LINE",
"87 0 LINE"
);
}
);
width = 726;
}
);
leftKerningGroup = H;
rightKerningGroup = H;
unicode = 0048;
},
{
glyphname = Hbar;
layers = (
{
background = {
anchors = (
{
name = bottom;
position = "{369, 0}";
},
{
name = center;
position = "{369, 344}";
},
{
name = top;
position = "{369, 688}";
}
);
paths = (
{
closed = 1;
nodes = (
"587 530 LINE",
"151 530 LINE",
"151 688 LINE",
"115 688 LINE",
"115 0 LINE",
"151 0 LINE",
"151 311 LINE",
"587 311 LINE",
"587 0 LINE",
"623 0 LINE",
"623 688 LINE",
"587 688 LINE"
);
},
{
closed = 1;
nodes = (
"151 494 LINE",
"587 494 LINE",
"587 345 LINE",
"151 345 LINE"
);
}
);
};
layerId = UUID0;
paths = (
{
closed = 1;
nodes = (
"151 0 LINE",
"151 311 LINE",
"587 311 LINE",
"587 0 LINE",
"623 0 LINE",
"623 688 LINE",
"587 688 LINE",
"587 530 LINE",
"151 530 LINE",
"151 688 LINE",
"115 688 LINE",
"115 0 LINE"
);
},
{
closed = 1;
nodes = (
"151 494 LINE",
"587 494 LINE",
"587 345 LINE",
"151 345 LINE"
);
}
);
width = 738;
},
{
background = {
anchors = (
{
name = bottom;
position = "{363, 0}";
},
{
name = center;
position = "{363, 344}";
},
{
name = top;
position = "{363, 688}";
}
);
paths = (
{
closed = 1;
nodes = (
"511 570 LINE",
"215 570 LINE",
"215 688 LINE",
"87 688 LINE",
"87 0 LINE",
"215 0 LINE",
"215 250 LINE",
"511 250 LINE",
"511 0 LINE",
"639 0 LINE",
"639 688 LINE",
"511 688 LINE"
);
},
{
closed = 1;
nodes = (
"215 472 LINE",
"511 472 LINE",
"511 362 LINE",
"215 362 LINE"
);
}
);
};
layerId = "E7A95A6A-7487-49EE-B62A-BA87B06E4B57";
paths = (
{
closed = 1;
nodes = (
"215 0 LINE",
"215 250 LINE",
"511 250 LINE",
"511 0 LINE",
"639 0 LINE",
"639 688 LINE",
"511 688 LINE",
"511 570 LINE",
"215 570 LINE",
"215 688 LINE",
"87 688 LINE",
"87 0 LINE"
);
},
{
closed = 1;
nodes = (
"215 472 LINE",
"511 472 LINE",
"511 362 LINE",
"215 362 LINE"
);
}
);
width = 726;
},
{
background = {
anchors = (
{
name = bottom;
position = "{349, 0}";
},
{
name = center;
position = "{349, 344}";
},
{
name = top;
position = "{349, 688}";
}
);
paths = (
{
closed = 1;
nodes = (
"412 611 LINE",
"285 611 LINE",
"285 688 LINE",
"51 688 LINE",
"51 0 LINE",
"285 0 LINE",
"285 211 LINE",
"412 211 LINE",
"412 0 LINE",
"646 0 LINE",
"646 688 LINE",
"412 688 LINE"
);
},
{
closed = 1;
nodes = (
"285 474 LINE",
"412 474 LINE",
"412 398 LINE",
"285 398 LINE"
);
}
);
};
layerId = "4F93A97B-747D-4721-B098-38A63C534D7A";
paths = (
{
closed = 1;
nodes = (
"285 0 LINE",
"285 211 LINE",
"412 211 LINE",
"412 0 LINE",
"646 0 LINE",
"646 688 LINE",
"412 688 LINE",
"412 611 LINE",
"285 611 LINE",
"285 688 LINE",
"51 688 LINE",
"51 0 LINE"
);
},
{
closed = 1;
nodes = (
"285 474 LINE",
"412 474 LINE",
"412 398 LINE",
"285 398 LINE"
);
}
);
width = 697;
},
{
background = {
anchors = (
{
name = bottom;
position = "{217, 0}";
},
{
name = center;
position = "{217, 344}";
},
{
name = top;
position = "{217, 688}";
}
);
paths = (
{
closed = 1;
nodes = (
"333 530 LINE",
"101 530 LINE",
"101 688 LINE",
"65 688 LINE",
"65 0 LINE",
"101 0 LINE",
"101 311 LINE",
"333 311 LINE",
"333 0 LINE",
"369 0 LINE",
"369 688 LINE",
"333 688 LINE"
);
},
{
closed = 1;
nodes = (
"101 494 LINE",
"333 494 LINE",
"333 345 LINE",
"101 345 LINE"
);
}
);
};
layerId = "E6BBBBE7-ECAD-4929-840D-43673C7BDEAF";
paths = (
{
closed = 1;
nodes = (
"101 0 LINE",
"101 311 LINE",
"333 311 LINE",
"333 0 LINE",
"369 0 LINE",
"369 688 LINE",
"333 688 LINE",
"333 530 LINE",
"101 530 LINE",
"101 688 LINE",
"65 688 LINE",
"65 0 LINE"
);
},
{
closed = 1;
nodes = (
"101 494 LINE",
"333 494 LINE",
"333 345 LINE",
"101 345 LINE"
);
}
);
width = 434;
},
{
background = {
anchors = (
{
name = bottom;
position = "{267, 0}";
},
{
name = center;
position = "{267, 344}";
},
{
name = top;
position = "{267, 688}";
}
);
paths = (
{
closed = 1;
nodes = (
"360 570 LINE",
"173 570 LINE",
"173 688 LINE",
"61 688 LINE",
"61 0 LINE",
"173 0 LINE",
"173 254 LINE",
"360 254 LINE",
"360 0 LINE",
"472 0 LINE",
"472 688 LINE",
"360 688 LINE"
);
},
{
closed = 1;
nodes = (
"173 472 LINE",
"360 472 LINE",
"360 359 LINE",
"173 359 LINE"
);
}
);
};
layerId = "374FF654-0B40-45EE-AE97-0DEB7620D1EC";
paths = (
{
closed = 1;
nodes = (
"173 0 LINE",
"173 254 LINE",
"360 254 LINE",
"360 0 LINE",
"472 0 LINE",
"472 688 LINE",
"360 688 LINE",
"360 570 LINE",
"173 570 LINE",
"173 688 LINE",
"61 688 LINE",
"61 0 LINE"
);
},
{
closed = 1;
nodes = (
"173 472 LINE",
"360 472 LINE",
"360 359 LINE",
"173 359 LINE"
);
}
);
width = 533;
},
{
background = {
anchors = (
{
name = bottom;
position = "{216, 0}";
},
{
name = center;
position = "{216, 344}";
},
{
name = top;
position = "{216, 688}";
}
);
paths = (
{
closed = 1;
nodes = (
"244 612 LINE",
"188 612 LINE",
"188 688 LINE",
"34 688 LINE",
"34 0 LINE",
"188 0 LINE",
"188 233 LINE",
"244 233 LINE",
"244 0 LINE",
"398 0 LINE",
"398 688 LINE",
"244 688 LINE"
);
},
{
closed = 1;
nodes = (
"188 473 LINE",
"244 473 LINE",
"244 380 LINE",
"188 380 LINE"
);
}
);
};
layerId = "7836D3B9-397C-42C1-8084-A98A44B9119A";
paths = (
{
closed = 1;
nodes = (
"188 0 LINE",
"188 233 LINE",
"244 233 LINE",
"244 0 LINE",
"398 0 LINE",
"398 688 LINE",
"244 688 LINE",
"244 612 LINE",
"188 612 LINE",
"188 688 LINE",
"34 688 LINE",
"34 0 LINE"
);
},
{
closed = 1;
nodes = (
"188 473 LINE",
"244 473 LINE",
"244 380 LINE",
"188 380 LINE"
);
}
);
width = 432;
}
);
leftKerningGroup = H;
rightKerningGroup = H;
unicode = 0126;
},
{
glyphname = I;
layers = (
{
anchors = (
{
name = bottom;
position = "{133, 0}";
},
{
name = ogonek;
position = "{151, 0}";
},
{
name = top;
position = "{133, 688}";
},
{
name = topleft;
position = "{20, 688}";
}
);
background = {
anchors = (
{
name = bottom;
position = "{133, 0}";
},
{
name = ogonek;
position = "{239, 10}";
},
{
name = top;
position = "{133, 688}";
}
);
paths = (
{
closed = 1;
nodes = (
"151 0 LINE",
"151 688 LINE",
"115 688 LINE",
"115 0 LINE"
);
}
);
};
layerId = UUID0;
paths = (
{
closed = 1;
nodes = (
"151 0 LINE",
"151 688 LINE",
"115 688 LINE",
"115 0 LINE"
);
}
);
width = 266;
},
{
anchors = (
{
name = bottom;
position = "{168, 0}";
},
{
name = ogonek;
position = "{285, 0}";
},
{
name = top;
position = "{168, 688}";
},
{
name = topleft;
position = "{20, 688}";
}
);
background = {
anchors = (
{
name = bottom;
position = "{168, 0}";
},
{
name = ogonek;
position = "{302, 10}";
},
{
name = top;
position = "{168, 688}";
}
);
paths = (
{
closed = 1;
nodes = (
"285 0 LINE",
"285 688 LINE",
"51 688 LINE",
"51 0 LINE"
);
}
);
};
layerId = "4F93A97B-747D-4721-B098-38A63C534D7A";
paths = (
{
closed = 1;
nodes = (
"285 0 LINE",
"285 688 LINE",
"51 688 LINE",
"51 0 LINE"
);
}
);
width = 336;
},
{
anchors = (
{
name = bottom;
position = "{88, 0}";
},
{
name = ogonek;
position = "{106, 0}";
},
{
name = top;
position = "{88, 688}";
},
{
name = topleft;
position = "{20, 688}";
}
);
background = {
anchors = (
{
name = bottom;
position = "{88, 0}";
},
{
name = ogonek;
position = "{158, 10}";
},
{
name = top;
position = "{88, 688}";
}
);
paths = (
{
closed = 1;
nodes = (
"106 0 LINE",
"106 688 LINE",
"70 688 LINE",
"70 0 LINE"
);
}
);
};
layerId = "E6BBBBE7-ECAD-4929-840D-43673C7BDEAF";
paths = (
{
closed = 1;
nodes = (
"106 0 LINE",
"106 688 LINE",
"70 688 LINE",
"70 0 LINE"
);
}
);
width = 176;
},
{
anchors = (
{
name = bottom;
position = "{111, 0}";
},
{
name = ogonek;
position = "{188, 0}";
},
{
name = top;
position = "{111, 688}";
},
{
name = topleft;
position = "{20, 688}";
}
);
background = {
anchors = (
{
name = bottom;
position = "{111, 0}";
},
{
name = ogonek;
position = "{200, 10}";
},
{
name = top;
position = "{111, 688}";
}
);
paths = (
{
closed = 1;
nodes = (
"188 0 LINE",
"188 688 LINE",
"34 688 LINE",
"34 0 LINE"
);
}
);
};
layerId = "7836D3B9-397C-42C1-8084-A98A44B9119A";
paths = (
{
closed = 1;
nodes = (
"188 0 LINE",
"188 688 LINE",
"34 688 LINE",
"34 0 LINE"
);
}
);
width = 222;
},
{
anchors = (
{
name = bottom;
position = "{119, 0}";
},
{
name = ogonek;
position = "{175, 0}";
},
{
name = top;
position = "{119, 688}";
},
{
name = topleft;
position = "{20, 688}";
}
);
background = {
anchors = (
{
name = bottom;
position = "{119, 0}";
},
{
name = ogonek;
position = "{214, 10}";
},
{
name = top;
position = "{119, 688}";
}
);
paths = (
{
closed = 1;
nodes = (
"175 0 LINE",
"175 688 LINE",
"63 688 LINE",
"63 0 LINE"
);
}
);
};
layerId = "374FF654-0B40-45EE-AE97-0DEB7620D1EC";
paths = (
{
closed = 1;
nodes = (
"175 0 LINE",
"175 688 LINE",
"63 688 LINE",
"63 0 LINE"
);
}
);
width = 238;
},
{
anchors = (
{
name = bottom;
position = "{151, 0}";
},
{
name = ogonek;
position = "{215, 0}";
},
{
name = top;
position = "{151, 688}";
},
{
name = topleft;
position = "{20, 688}";
}
);
background = {
anchors = (
{
name = bottom;
position = "{151, 0}";
},
{
name = ogonek;
position = "{272, 10}";
},
{
name = top;
position = "{151, 688}";
}
);
paths = (
{
closed = 1;
nodes = (
"215 0 LINE",
"215 688 LINE",
"87 688 LINE",
"87 0 LINE"
);
}
);
};
layerId = "E7A95A6A-7487-49EE-B62A-BA87B06E4B57";
paths = (
{
closed = 1;
nodes = (
"215 0 LINE",
"215 688 LINE",
"87 688 LINE",
"87 0 LINE"
);
}
);
width = 302;
}
);
leftKerningGroup = H;
rightKerningGroup = H;
unicode = 0049;
},
{
glyphname = Iogonek;
layers = (
{
background = {
anchors = (
{
name = bottom;
position = "{133, 0}";
},
{
name = top;
position = "{133, 688}";
}
);
paths = (
{
closed = 1;
nodes = (
"139 -196 OFFCURVE",
"143 -196 OFFCURVE",
"152 -195 CURVE",
"152 -163 LINE",
"143 -164 OFFCURVE",
"139 -164 OFFCURVE",
"135 -164 CURVE SMOOTH",
"100 -164 OFFCURVE",
"88 -144 OFFCURVE",
"88 -118 CURVE SMOOTH",
"88 -78 OFFCURVE",
"124 -23 OFFCURVE",
"151 0 CURVE",
"151 688 LINE",
"115 688 LINE",
"115 0 LINE",
"116 0 LINE",
"80 -35 OFFCURVE",
"54 -84 OFFCURVE",
"54 -124 CURVE SMOOTH",
"54 -165 OFFCURVE",
"75 -196 OFFCURVE",
"130 -196 CURVE SMOOTH"
);
}
);
};
components = (
{
name = I;
},
{
name = ogonekcomb.case;
transform = "{1, 0, 0, 1, 54, -4}";
}
);
layerId = UUID0;
width = 266;
},
{
background = {
paths = (
{
closed = 1;
nodes = (
"188 -196 OFFCURVE",
"216 -193 OFFCURVE",
"216 -193 CURVE",
"216 -123 LINE",
"216 -123 OFFCURVE",
"205 -124 OFFCURVE",
"199 -124 CURVE SMOOTH",
"162 -124 OFFCURVE",
"152 -109 OFFCURVE",
"152 -88 CURVE SMOOTH",
"152 -57 OFFCURVE",
"189 -17 OFFCURVE",
"215 0 CURVE",
"215 688 LINE",
"87 688 LINE",
"87 0 LINE",
"112 0 LINE",
"76 -34 OFFCURVE",
"50 -76 OFFCURVE",
"50 -115 CURVE SMOOTH",
"50 -159 OFFCURVE",
"72 -196 OFFCURVE",
"162 -196 CURVE SMOOTH"
);
}
);
};
components = (
{
name = I;
},
{
name = ogonekcomb.case;
transform = "{1, 0, 0, 1, 50, -4}";
}
);
layerId = "E7A95A6A-7487-49EE-B62A-BA87B06E4B57";
width = 302;
},
{
background = {
anchors = (
{
name = bottom;
position = "{168, 0}";
},
{
name = top;
position = "{168, 688}";
}
);
paths = (
{
closed = 1;
nodes = (
"225 -196 OFFCURVE",
"263 -194 OFFCURVE",
"286 -192 CURVE",
"286 -98 LINE",
"277 -99 OFFCURVE",
"272 -99 OFFCURVE",
"269 -99 CURVE SMOOTH",
"232 -99 OFFCURVE",
"222 -85 OFFCURVE",
"222 -69 CURVE SMOOTH",
"222 -38 OFFCURVE",
"260 -12 OFFCURVE",
"285 0 CURVE",
"285 688 LINE",
"51 688 LINE",
"51 0 LINE",
"116 0 LINE",
"80 -32 OFFCURVE",
"54 -69 OFFCURVE",
"54 -109 CURVE SMOOTH",
"54 -154 OFFCURVE",
"87 -196 OFFCURVE",
"200 -196 CURVE SMOOTH"
);
}
);
};
components = (
{
name = I;
},
{
name = ogonekcomb.case;
transform = "{1, 0, 0, 1, 54, -4}";
}
);
layerId = "4F93A97B-747D-4721-B098-38A63C534D7A";
width = 336;
},
{
components = (
{
name = I;
},
{
name = ogonekcomb.case;
transform = "{1, 0, 0, 1, 9, -4}";
}
);
layerId = "E6BBBBE7-ECAD-4929-840D-43673C7BDEAF";
width = 176;
},
{
background = {
anchors = (
{
name = bottom;
position = "{119, 0}";
},
{
name = top;
position = "{119, 688}";
}
);
paths = (
{
closed = 1;
nodes = (
"143 -196 OFFCURVE",
"158 -195 OFFCURVE",
"176 -193 CURVE",
"176 -131 LINE",
"172 -132 OFFCURVE",
"167 -132 OFFCURVE",
"162 -132 CURVE SMOOTH",
"129 -132 OFFCURVE",
"120 -115 OFFCURVE",
"120 -93 CURVE SMOOTH",
"120 -60 OFFCURVE",
"152 -18 OFFCURVE",
"175 0 CURVE",
"175 688 LINE",
"63 688 LINE",
"63 0 LINE",
"91 0 LINE",
"58 -33 OFFCURVE",
"34 -75 OFFCURVE",
"34 -114 CURVE SMOOTH",
"34 -158 OFFCURVE",
"56 -196 OFFCURVE",
"130 -196 CURVE SMOOTH"
);
}
);
};
components = (
{
name = I;
},
{
name = ogonekcomb.case;
transform = "{1, 0, 0, 1, 34, -4}";
}
);
layerId = "374FF654-0B40-45EE-AE97-0DEB7620D1EC";
width = 238;
},
{
background = {
anchors = (
{
name = bottom;
position = "{111, 0}";
},
{
name = top;
position = "{111, 688}";
}
);
paths = (
{
closed = 1;
nodes = (
"154 -196 OFFCURVE",
"176 -194 OFFCURVE",
"189 -191 CURVE",
"189 -117 LINE",
"183 -118 OFFCURVE",
"181 -118 OFFCURVE",
"179 -118 CURVE SMOOTH",
"151 -118 OFFCURVE",
"146 -101 OFFCURVE",
"146 -81 CURVE SMOOTH",
"146 -50 OFFCURVE",
"172 -15 OFFCURVE",
"188 0 CURVE",
"188 688 LINE",
"34 688 LINE",
"34 0 LINE",
"89 0 LINE",
"60 -29 OFFCURVE",
"38 -69 OFFCURVE",
"38 -105 CURVE SMOOTH",
"38 -153 OFFCURVE",
"62 -196 OFFCURVE",
"135 -196 CURVE SMOOTH"
);
}
);
};
components = (
{
name = I;
},
{
name = ogonekcomb.case;
transform = "{1, 0, 0, 1, 38, -4}";
}
);
layerId = "7836D3B9-397C-42C1-8084-A98A44B9119A";
width = 222;
}
);
leftKerningGroup = H;
rightKerningGroup = H;
unicode = 012E;
},
{
glyphname = J;
layers = (
{
anchors = (
{
name = bottom;
position = "{162, 0}";
},
{
name = top;
position = "{201, 688}";
}
);
background = {
anchors = (
{
name = bottom;
position = "{162, 0}";
},
{
name = top;
position = "{162, 688}";
}
);
paths = (
{
closed = 1;
nodes = (
"40 0 LINE",
"212 3 OFFCURVE",
"219 13 OFFCURVE",
"219 264 CURVE SMOOTH",
"219 688 LINE",
"183 688 LINE",
"183 246 LINE SMOOTH",
"183 42 OFFCURVE",
"180 38 OFFCURVE",
"40 34 CURVE"
);
}
);
};
layerId = UUID0;
paths = (
{
closed = 1;
nodes = (
"212 3 OFFCURVE",
"219 13 OFFCURVE",
"219 264 CURVE SMOOTH",
"219 688 LINE",
"183 688 LINE",
"183 246 LINE SMOOTH",
"183 42 OFFCURVE",
"180 38 OFFCURVE",
"40 34 CURVE",
"40 0 LINE"
);
}
);
width = 324;
},
{
anchors = (
{
name = bottom;
position = "{219, 0}";
},
{
name = top;
position = "{270, 688}";
}
);
background = {
anchors = (
{
name = bottom;
position = "{219, 0}";
},
{
name = top;
position = "{219, 688}";
}
);
paths = (
{
closed = 1;
nodes = (
"18 0 LINE",
"373 0 OFFCURVE",
"387 13 OFFCURVE",
"387 328 CURVE SMOOTH",
"387 688 LINE",
"153 688 LINE",
"153 271 LINE SMOOTH",
"153 163 OFFCURVE",
"148 158 OFFCURVE",
"18 158 CURVE"
);
}
);
};
layerId = "4F93A97B-747D-4721-B098-38A63C534D7A";
paths = (
{
closed = 1;
nodes = (
"373 0 OFFCURVE",
"387 13 OFFCURVE",
"387 328 CURVE SMOOTH",
"387 688 LINE",
"153 688 LINE",
"153 271 LINE SMOOTH",
"153 163 OFFCURVE",
"148 158 OFFCURVE",
"18 158 CURVE",
"18 0 LINE"
);
}
);
width = 438;
},
{
anchors = (
{
name = bottom;
position = "{89, 0}";
},
{
name = top;
position = "{99, 688}";
}
);
background = {
anchors = (
{
name = bottom;
position = "{89, 0}";
},
{
name = top;
position = "{89, 688}";
}
);
paths = (
{
closed = 1;
nodes = (
"10 0 LINE",
"111 3 OFFCURVE",
"117 15 OFFCURVE",
"117 224 CURVE SMOOTH",
"117 688 LINE",
"81 688 LINE",
"81 226 LINE SMOOTH",
"81 41 OFFCURVE",
"80 38 OFFCURVE",
"10 34 CURVE"
);
}
);
};
layerId = "E6BBBBE7-ECAD-4929-840D-43673C7BDEAF";
paths = (
{
closed = 1;
nodes = (
"111 3 OFFCURVE",
"117 15 OFFCURVE",
"117 224 CURVE SMOOTH",
"117 688 LINE",
"81 688 LINE",
"81 226 LINE SMOOTH",
"81 41 OFFCURVE",
"80 38 OFFCURVE",
"10 34 CURVE",
"10 0 LINE"
);
}
);
width = 177;
},
{
anchors = (
{
name = bottom;
position = "{135, 0}";
},
{
name = top;
position = "{163, 688}";
}
);
background = {
anchors = (
{
name = bottom;
position = "{135, 0}";
},
{
name = top;
position = "{135, 688}";
}
);
paths = (
{
closed = 1;
nodes = (
"4 0 LINE",
"228 0 OFFCURVE",
"240 16 OFFCURVE",
"240 328 CURVE SMOOTH",
"240 688 LINE",
"86 688 LINE",
"86 240 LINE SMOOTH",
"86 138 OFFCURVE",
"80 130 OFFCURVE",
"4 130 CURVE"
);
}
);
};
layerId = "7836D3B9-397C-42C1-8084-A98A44B9119A";
paths = (
{
closed = 1;
nodes = (
"228 0 OFFCURVE",
"240 16 OFFCURVE",
"240 328 CURVE SMOOTH",
"240 688 LINE",
"86 688 LINE",
"86 240 LINE SMOOTH",
"86 138 OFFCURVE",
"80 130 OFFCURVE",
"4 130 CURVE",
"4 0 LINE"
);
}
);
width = 270;
},
{
anchors = (
{
name = bottom;
position = "{142, 0}";
},
{
name = top;
position = "{170, 688}";
}
);
background = {
anchors = (
{
name = bottom;
position = "{142, 0}";
},
{
name = top;
position = "{142, 688}";
}
);
paths = (
{
closed = 1;
nodes = (
"14 0 LINE",
"219 1 OFFCURVE",
"226 16 OFFCURVE",
"226 289 CURVE SMOOTH",
"226 688 LINE",
"114 688 LINE",
"114 242 LINE SMOOTH",
"114 105 OFFCURVE",
"114 97 OFFCURVE",
"14 95 CURVE"
);
}
);
};
layerId = "374FF654-0B40-45EE-AE97-0DEB7620D1EC";
paths = (
{
closed = 1;
nodes = (
"219 1 OFFCURVE",
"226 16 OFFCURVE",
"226 289 CURVE SMOOTH",
"226 688 LINE",
"114 688 LINE",
"114 242 LINE SMOOTH",
"114 105 OFFCURVE",
"114 97 OFFCURVE",
"14 95 CURVE",
"14 0 LINE"
);
}
);
width = 284;
},
{
anchors = (
{
name = bottom;
position = "{191, 0}";
},
{
name = top;
position = "{235, 688}";
}
);
background = {
anchors = (
{
name = bottom;
position = "{191, 0}";
},
{
name = top;
position = "{191, 688}";
}
);
paths = (
{
closed = 1;
nodes = (
"28 0 LINE",
"288 1 OFFCURVE",
"299 9 OFFCURVE",
"299 294 CURVE SMOOTH",
"299 688 LINE",
"171 688 LINE",
"171 258 LINE SMOOTH",
"171 113 OFFCURVE",
"171 104 OFFCURVE",
"28 102 CURVE"
);
}
);
};
layerId = "E7A95A6A-7487-49EE-B62A-BA87B06E4B57";
paths = (
{
closed = 1;
nodes = (
"288 1 OFFCURVE",
"299 9 OFFCURVE",
"299 294 CURVE SMOOTH",
"299 688 LINE",
"171 688 LINE",
"171 258 LINE SMOOTH",
"171 113 OFFCURVE",
"171 104 OFFCURVE",
"28 102 CURVE",
"28 0 LINE"
);
}
);
width = 381;
}
);
leftKerningGroup = J;
rightKerningGroup = U;
unicode = 004A;
},
{
glyphname = K;
layers = (
{
anchors = (
{
name = bottom;
position = "{333, 0}";
},
{
name = top;
position = "{333, 688}";
}
);
background = {
anchors = (
{
name = bottom;
position = "{333, 0}";
},
{
name = top;
position = "{333, 688}";
}
);
paths = (
{
closed = 1;
nodes = (
"625 0 LINE",
"354 349 LINE",
"622 688 LINE",
"580 688 LINE",
"324 366 LINE",
"151 366 LINE",
"151 688 LINE",
"115 688 LINE",
"115 0 LINE",
"151 0 LINE",
"151 332 LINE",
"324 332 LINE",
"582 0 LINE"
);
}
);
};
layerId = UUID0;
paths = (
{
closed = 1;
nodes = (
"151 0 LINE",
"151 332 LINE",
"324 332 LINE",
"582 0 LINE",
"625 0 LINE",
"354 349 LINE",
"622 688 LINE",
"580 688 LINE",
"324 366 LINE",
"151 366 LINE",
"151 688 LINE",
"115 688 LINE",
"115 0 LINE"
);
}
);
width = 665;
},
{
anchors = (
{
name = bottom;
position = "{348, 0}";
},
{
name = top;
position = "{348, 688}";
}
);
background = {
anchors = (
{
name = bottom;
position = "{348, 0}";
},
{
name = top;
position = "{348, 688}";
}
);
paths = (
{
closed = 1;
nodes = (
"696 0 LINE",
"486 365 LINE",
"693 688 LINE",
"444 688 LINE",
"295 431 LINE",
"285 431 LINE",
"285 688 LINE",
"51 688 LINE",
"51 0 LINE",
"285 0 LINE",
"285 268 LINE",
"295 268 LINE",
"441 0 LINE"
);
}
);
};
layerId = "4F93A97B-747D-4721-B098-38A63C534D7A";
paths = (
{
closed = 1;
nodes = (
"285 0 LINE",
"285 268 LINE",
"295 268 LINE",
"441 0 LINE",
"696 0 LINE",
"486 365 LINE",
"693 688 LINE",
"444 688 LINE",
"295 431 LINE",
"285 431 LINE",
"285 688 LINE",
"51 688 LINE",
"51 0 LINE"
);
}
);
width = 696;
},
{
anchors = (
{
name = bottom;
position = "{193, 0}";
},
{
name = top;
position = "{193, 688}";
}
);
background = {
anchors = (
{
name = bottom;
position = "{193, 0}";
},
{
name = top;
position = "{193, 688}";
}
);
paths = (
{
closed = 1;
nodes = (
"371 0 LINE",
"216 349 LINE",
"369 688 LINE",
"331 688 LINE",
"185 366 LINE",
"101 366 LINE",
"101 688 LINE",
"65 688 LINE",
"65 0 LINE",
"101 0 LINE",
"101 332 LINE",
"185 332 LINE",
"332 0 LINE"
);
}
);
};
layerId = "E6BBBBE7-ECAD-4929-840D-43673C7BDEAF";
paths = (
{
closed = 1;
nodes = (
"101 0 LINE",
"101 332 LINE",
"185 332 LINE",
"332 0 LINE",
"371 0 LINE",
"216 349 LINE",
"369 688 LINE",
"331 688 LINE",
"185 366 LINE",
"101 366 LINE",
"101 688 LINE",
"65 688 LINE",
"65 0 LINE"
);
}
);
width = 386;
},
{
anchors = (
{
name = bottom;
position = "{208, 0}";
},
{
name = top;
position = "{208, 688}";
}
);
background = {
anchors = (
{
name = bottom;
position = "{208, 0}";
},
{
name = top;
position = "{208, 688}";
}
);
paths = (
{
closed = 1;
nodes = (
"413 0 LINE",
"321 358 LINE",
"412 688 LINE",
"256 688 LINE",
"202 422 LINE",
"188 422 LINE",
"188 688 LINE",
"34 688 LINE",
"34 0 LINE",
"188 0 LINE",
"188 275 LINE",
"202 275 LINE",
"253 0 LINE"
);
}
);
};
layerId = "7836D3B9-397C-42C1-8084-A98A44B9119A";
paths = (
{
closed = 1;
nodes = (
"188 0 LINE",
"188 275 LINE",
"202 275 LINE",
"253 0 LINE",
"413 0 LINE",
"321 358 LINE",
"412 688 LINE",
"256 688 LINE",
"202 422 LINE",
"188 422 LINE",
"188 688 LINE",
"34 688 LINE",
"34 0 LINE"
);
}
);
width = 416;
},
{
anchors = (
{
name = bottom;
position = "{248, 0}";
},
{
name = top;
position = "{248, 688}";
}
);
background = {
anchors = (
{
name = bottom;
position = "{248, 0}";
},
{
name = top;
position = "{248, 688}";
}
);
paths = (
{
closed = 1;
nodes = (
"483 0 LINE",
"322 359 LINE",
"480 688 LINE",
"365 688 LINE",
"230 399 LINE",
"173 399 LINE",
"173 688 LINE",
"61 688 LINE",
"61 0 LINE",
"173 0 LINE",
"173 299 LINE",
"230 299 LINE",
"361 0 LINE"
);
}
);
};
layerId = "374FF654-0B40-45EE-AE97-0DEB7620D1EC";
paths = (
{
closed = 1;
nodes = (
"173 0 LINE",
"173 299 LINE",
"230 299 LINE",
"361 0 LINE",
"483 0 LINE",
"322 359 LINE",
"480 688 LINE",
"365 688 LINE",
"230 399 LINE",
"173 399 LINE",
"173 688 LINE",
"61 688 LINE",
"61 0 LINE"
);
}
);
width = 496;
},
{
anchors = (
{
name = bottom;
position = "{339.669, 0}";
},
{
name = top;
position = "{339.669, 688}";
}
);
associatedMasterId = UUID0;
background = {
paths = (
{
closed = 1;
nodes = (
"658 0 LINE",
"434 360 LINE",
"655 688 LINE",
"478 688 LINE",
"298 409 LINE",
"236 409 LINE",
"236 688 LINE",
"71 688 LINE",
"71 0 LINE",
"236 0 LINE",
"236 290 LINE",
"298 290 LINE",
"476 0 LINE"
);
}
);
};
layerId = "36E37F60-9A35-4672-9BFC-A6AE35E641A4";
name = "Intermediate {152, 307}";
paths = (
{
closed = 1;
nodes = (
"240 0 LINE",
"240 284 LINE",
"287 284 LINE",
"488 0 LINE",
"673 0 LINE",
"418 361 LINE",
"670 688 LINE",
"490 688 LINE",
"287 417 LINE",
"240 417 LINE",
"240 688 LINE",
"76 688 LINE",
"76 0 LINE"
);
}
);
width = 679;
},
{
anchors = (
{
name = bottom;
position = "{338, 0}";
},
{
name = top;
position = "{338, 688}";
}
);
background = {
anchors = (
{
name = bottom;
position = "{338, 0}";
},
{
name = top;
position = "{338, 688}";
}
);
paths = (
{
closed = 1;
nodes = (
"659 0 LINE",
"400 358 LINE",
"656 688 LINE",
"515 688 LINE",
"297 404 LINE",
"215 404 LINE",
"215 688 LINE",
"87 688 LINE",
"87 0 LINE",
"215 0 LINE",
"215 296 LINE",
"297 296 LINE",
"510 0 LINE"
);
}
);
};
layerId = "E7A95A6A-7487-49EE-B62A-BA87B06E4B57";
paths = (
{
closed = 1;
nodes = (
"215 0 LINE",
"215 296 LINE",
"297 296 LINE",
"510 0 LINE",
"659 0 LINE",
"400 358 LINE",
"656 688 LINE",
"515 688 LINE",
"297 404 LINE",
"215 404 LINE",
"215 688 LINE",
"87 688 LINE",
"87 0 LINE"
);
}
);
width = 675;
}
);
leftKerningGroup = H;
rightKerningGroup = X;
unicode = 004B;
},
{
glyphname = L;
layers = (
{
anchors = (
{
name = bottom;
position = "{316, 0}";
},
{
name = center;
position = "{133, 344}";
},
{
name = top;
position = "{133, 688}";
},
{
name = topright;
position = "{291, 510}";
}
);
background = {
anchors = (
{
name = bottom;
position = "{268, 0}";
},
{
name = center;
position = "{268, 344}";
},
{
name = top;
position = "{268, 688}";
},
{
name = topright;
position = "{516, 688}";
}
);
paths = (
{
closed = 1;
nodes = (
"501 0 LINE",
"501 34 LINE",
"151 34 LINE",
"151 688 LINE",
"115 688 LINE",
"115 0 LINE"
);
}
);
};
layerId = UUID0;
paths = (
{
closed = 1;
nodes = (
"501 0 LINE",
"501 34 LINE",
"151 34 LINE",
"151 688 LINE",
"115 688 LINE",
"115 0 LINE"
);
}
);
width = 536;
},
{
anchors = (
{
name = bottom;
position = "{291, 0}";
},
{
name = center;
position = "{168, 344}";
},
{
name = top;
position = "{168, 688}";
},
{
name = topright;
position = "{329, 510}";
}
);
background = {
anchors = (
{
name = bottom;
position = "{267, 0}";
},
{
name = center;
position = "{267, 344}";
},
{
name = top;
position = "{267, 688}";
},
{
name = topright;
position = "{513, 688}";
}
);
paths = (
{
closed = 1;
nodes = (
"515 0 LINE",
"515 176 LINE",
"285 176 LINE",
"285 688 LINE",
"51 688 LINE",
"51 0 LINE"
);
}
);
};
layerId = "4F93A97B-747D-4721-B098-38A63C534D7A";
paths = (
{
closed = 1;
nodes = (
"515 0 LINE",
"515 176 LINE",
"285 176 LINE",
"285 688 LINE",
"51 688 LINE",
"51 0 LINE"
);
}
);
width = 533;
},
{
anchors = (
{
name = bottom;
position = "{189, 0}";
},
{
name = center;
position = "{84, 344}";
},
{
name = top;
position = "{84, 688}";
},
{
name = topright;
position = "{150, 510}";
}
);
background = {
anchors = (
{
name = bottom;
position = "{151, 0}";
},
{
name = center;
position = "{151, 344}";
},
{
name = top;
position = "{151, 688}";
},
{
name = topright;
position = "{282, 688}";
}
);
paths = (
{
closed = 1;
nodes = (
"297 0 LINE",
"297 34 LINE",
"102 34 LINE",
"102 688 LINE",
"65 688 LINE",
"65 0 LINE"
);
}
);
};
layerId = "E6BBBBE7-ECAD-4929-840D-43673C7BDEAF";
paths = (
{
closed = 1;
nodes = (
"297 0 LINE",
"297 34 LINE",
"102 34 LINE",
"102 688 LINE",
"65 688 LINE",
"65 0 LINE"
);
}
);
width = 302;
},
{
anchors = (
{
name = bottom;
position = "{168, 0}";
},
{
name = center;
position = "{111, 344}";
},
{
name = top;
position = "{111, 688}";
},
{
name = topright;
position = "{192, 510}";
}
);
background = {
anchors = (
{
name = bottom;
position = "{156, 0}";
},
{
name = center;
position = "{156, 344}";
},
{
name = top;
position = "{156, 688}";
},
{
name = topright;
position = "{291, 688}";
}
);
paths = (
{
closed = 1;
nodes = (
"301 0 LINE",
"301 142 LINE",
"188 142 LINE",
"188 688 LINE",
"34 688 LINE",
"34 0 LINE"
);
}
);
};
layerId = "7836D3B9-397C-42C1-8084-A98A44B9119A";
paths = (
{
closed = 1;
nodes = (
"301 0 LINE",
"301 142 LINE",
"188 142 LINE",
"188 688 LINE",
"34 688 LINE",
"34 0 LINE"
);
}
);
width = 311;
},
{
anchors = (
{
name = bottom;
position = "{226, 0}";
},
{
name = center;
position = "{117, 344}";
},
{
name = top;
position = "{117, 688}";
},
{
name = topright;
position = "{232, 510}";
}
);
background = {
anchors = (
{
name = bottom;
position = "{194, 0}";
},
{
name = center;
position = "{194, 344}";
},
{
name = top;
position = "{194, 688}";
},
{
name = topright;
position = "{367, 688}";
}
);
paths = (
{
closed = 1;
nodes = (
"371 0 LINE",
"371 104 LINE",
"173 104 LINE",
"173 688 LINE",
"61 688 LINE",
"61 0 LINE"
);
}
);
};
layerId = "374FF654-0B40-45EE-AE97-0DEB7620D1EC";
paths = (
{
closed = 1;
nodes = (
"371 0 LINE",
"371 104 LINE",
"173 104 LINE",
"173 688 LINE",
"61 688 LINE",
"61 0 LINE"
);
}
);
width = 387;
},
{
anchors = (
{
name = bottom;
position = "{270.429, 0}";
},
{
name = center;
position = "{270.429, 344}";
},
{
name = top;
position = "{270.429, 688}";
},
{
name = topright;
position = "{513.526, 688}";
}
);
associatedMasterId = UUID0;
background = {
paths = (
{
closed = 1;
nodes = (
"499 0 LINE",
"499 128 LINE",
"236 128 LINE",
"236 688 LINE",
"71 688 LINE",
"71 0 LINE"
);
}
);
};
layerId = "C838E39A-B6F8-48FD-8D79-B083A3286403";
name = "Intermediate {152, 307}";
paths = (
{
closed = 1;
nodes = (
"517 0 LINE",
"517 139 LINE",
"240 139 LINE",
"240 688 LINE",
"76 688 LINE",
"76 0 LINE"
);
}
);
width = 540;
},
{
anchors = (
{
name = bottom;
position = "{316, 0}";
},
{
name = center;
position = "{151, 344}";
},
{
name = top;
position = "{151, 688}";
},
{
name = topright;
position = "{303, 510}";
}
);
background = {
anchors = (
{
name = bottom;
position = "{270, 0}";
},
{
name = center;
position = "{270, 344}";
},
{
name = top;
position = "{270, 688}";
},
{
name = topright;
position = "{519, 688}";
}
);
paths = (
{
closed = 1;
nodes = (
"512 0 LINE",
"512 112 LINE",
"215 112 LINE",
"215 688 LINE",
"87 688 LINE",
"87 0 LINE"
);
}
);
};
layerId = "E7A95A6A-7487-49EE-B62A-BA87B06E4B57";
paths = (
{
closed = 1;
nodes = (
"512 0 LINE",
"512 112 LINE",
"215 112 LINE",
"215 688 LINE",
"87 688 LINE",
"87 0 LINE"
);
}
);
width = 539;
}
);
leftKerningGroup = H;
rightKerningGroup = L;
unicode = 004C;
},
{
glyphname = Lslash;
layers = (
{
background = {
components = (
{
name = L;
}
);
paths = (
{
closed = 1;
nodes = (
"364 401 LINE",
"364 435 LINE",
"46 319 LINE",
"46 285 LINE"
);
}
);
};
components = (
{
name = L;
}
);
layerId = UUID0;
paths = (
{
closed = 1;
nodes = (
"364 401 LINE",
"364 435 LINE",
"46 319 LINE",
"46 285 LINE"
);
}
);
width = 536;
},
{
background = {
components = (
{
name = L;
}
);
paths = (
{
closed = 1;
nodes = (
"408 379 LINE",
"408 521 LINE",
"-1 372 LINE",
"-1 230 LINE"
);
}
);
};
components = (
{
name = L;
}
);
layerId = "4F93A97B-747D-4721-B098-38A63C534D7A";
paths = (
{
closed = 1;
nodes = (
"408 379 LINE",
"408 521 LINE",
"-1 372 LINE",
"-1 230 LINE"
);
}
);
width = 533;
},
{
background = {
components = (
{
name = L;
}
);
paths = (
{
closed = 1;
nodes = (
"233 352 LINE",
"233 386 LINE",
"20 308 LINE",
"20 274 LINE"
);
}
);
};
components = (
{
name = L;
}
);
layerId = "E6BBBBE7-ECAD-4929-840D-43673C7BDEAF";
paths = (
{
closed = 1;
nodes = (
"233 352 LINE",
"233 386 LINE",
"20 308 LINE",
"20 274 LINE"
);
}
);
width = 302;
},
{
background = {
components = (
{
name = L;
}
);
paths = (
{
closed = 1;
nodes = (
"261 333 LINE",
"261 462 LINE",
"0 363 LINE",
"0 234 LINE"
);
}
);
};
components = (
{
name = L;
}
);
layerId = "7836D3B9-397C-42C1-8084-A98A44B9119A";
paths = (
{
closed = 1;
nodes = (
"261 333 LINE",
"261 462 LINE",
"0 363 LINE",
"0 234 LINE"
);
}
);
width = 311;
},
{
background = {
components = (
{
name = L;
}
);
paths = (
{
closed = 1;
nodes = (
"294 354 LINE",
"294 448 LINE",
"15 343 LINE",
"15 250 LINE"
);
}
);
};
components = (
{
name = L;
}
);
layerId = "374FF654-0B40-45EE-AE97-0DEB7620D1EC";
paths = (
{
closed = 1;
nodes = (
"294 354 LINE",
"294 448 LINE",
"15 343 LINE",
"15 250 LINE"
);
}
);
width = 387;
},
{
background = {
components = (
{
name = L;
}
);
paths = (
{
closed = 1;
nodes = (
"385 384 LINE",
"385 479 LINE",
"27 345 LINE",
"27 250 LINE"
);
}
);
};
components = (
{
name = L;
}
);
layerId = "E7A95A6A-7487-49EE-B62A-BA87B06E4B57";
paths = (
{
closed = 1;
nodes = (
"385 384 LINE",
"385 479 LINE",
"27 345 LINE",
"27 250 LINE"
);
}
);
width = 539;
}
);
leftKerningGroup = H;
rightKerningGroup = L;
unicode = 0141;
},
{
glyphname = M;
layers = (
{
anchors = (
{
name = bottom;
position = "{458, 0}";
},
{
name = top;
position = "{458, 688}";
}
);
background = {
anchors = (
{
name = bottom;
position = "{458, 0}";
},
{
name = top;
position = "{458, 688}";
}
);
paths = (
{
closed = 1;
nodes = (
"800 0 LINE",
"800 688 LINE",
"755 688 LINE",
"460 53 LINE",
"455 53 LINE",
"161 688 LINE",
"115 688 LINE",
"115 0 LINE",
"150 0 LINE",
"150 618 LINE",
"154 618 LINE",
"441 0 LINE",
"473 0 LINE",
"760 618 LINE",
"764 618 LINE",
"764 0 LINE"
);
}
);
};
layerId = UUID0;
paths = (
{
closed = 1;
nodes = (
"150 0 LINE",
"150 618 LINE",
"154 618 LINE",
"441 0 LINE",
"473 0 LINE",
"760 618 LINE",
"764 618 LINE",
"764 0 LINE",
"800 0 LINE",
"800 688 LINE",
"755 688 LINE",
"460 53 LINE",
"455 53 LINE",
"161 688 LINE",
"115 688 LINE",
"115 0 LINE"
);
}
);
width = 915;
},
{
anchors = (
{
name = bottom;
position = "{452, 0}";
},
{
name = top;
position = "{452, 688}";
}
);
background = {
anchors = (
{
name = bottom;
position = "{452, 0}";
},
{
name = top;
position = "{452, 688}";
}
);
paths = (
{
closed = 1;
nodes = (
"852 0 LINE",
"852 688 LINE",
"533 688 LINE",
"457 365 LINE",
"448 365 LINE",
"371 688 LINE",
"51 688 LINE",
"51 0 LINE",
"268 0 LINE",
"268 387 LINE",
"279 387 LINE",
"371 0 LINE",
"526 0 LINE",
"618 387 LINE",
"629 387 LINE",
"629 0 LINE"
);
}
);
};
layerId = "4F93A97B-747D-4721-B098-38A63C534D7A";
paths = (
{
closed = 1;
nodes = (
"268 0 LINE",
"268 387 LINE",
"279 387 LINE",
"371 0 LINE",
"526 0 LINE",
"618 387 LINE",
"629 387 LINE",
"629 0 LINE",
"852 0 LINE",
"852 688 LINE",
"533 688 LINE",
"457 365 LINE",
"448 365 LINE",
"371 688 LINE",
"51 688 LINE",
"51 0 LINE"
);
}
);
width = 903;
},
{
anchors = (
{
name = bottom;
position = "{271, 0}";
},
{
name = top;
position = "{271, 688}";
}
);
background = {
anchors = (
{
name = bottom;
position = "{271, 0}";
},
{
name = top;
position = "{271, 688}";
}
);
paths = (
{
closed = 1;
nodes = (
"476 0 LINE",
"476 688 LINE",
"425 688 LINE",
"273 73 LINE",
"268 73 LINE",
"117 688 LINE",
"65 688 LINE",
"65 0 LINE",
"100 0 LINE",
"100 595 LINE",
"104 595 LINE",
"248 0 LINE",
"290 0 LINE",
"436 595 LINE",
"440 595 LINE",
"440 0 LINE"
);
}
);
};
layerId = "E6BBBBE7-ECAD-4929-840D-43673C7BDEAF";
paths = (
{
closed = 1;
nodes = (
"100 0 LINE",
"100 595 LINE",
"104 595 LINE",
"248 0 LINE",
"290 0 LINE",
"436 595 LINE",
"440 595 LINE",
"440 0 LINE",
"476 0 LINE",
"476 688 LINE",
"425 688 LINE",
"273 73 LINE",
"268 73 LINE",
"117 688 LINE",
"65 688 LINE",
"65 0 LINE"
);
}
);
width = 541;
},
{
anchors = (
{
name = bottom;
position = "{317, 0}";
},
{
name = top;
position = "{317, 688}";
}
);
background = {
anchors = (
{
name = bottom;
position = "{317, 0}";
},
{
name = top;
position = "{317, 688}";
}
);
paths = (
{
closed = 1;
nodes = (
"600 0 LINE",
"600 688 LINE",
"365 688 LINE",
"324 224 LINE",
"316 224 LINE",
"274 688 LINE",
"34 688 LINE",
"34 0 LINE",
"179 0 LINE",
"179 507 LINE",
"188 507 LINE",
"239 0 LINE",
"392 0 LINE",
"444 507 LINE",
"452 507 LINE",
"452 0 LINE"
);
}
);
};
layerId = "7836D3B9-397C-42C1-8084-A98A44B9119A";
paths = (
{
closed = 1;
nodes = (
"179 0 LINE",
"179 507 LINE",
"188 507 LINE",
"239 0 LINE",
"392 0 LINE",
"444 507 LINE",
"452 507 LINE",
"452 0 LINE",
"600 0 LINE",
"600 688 LINE",
"365 688 LINE",
"324 224 LINE",
"316 224 LINE",
"274 688 LINE",
"34 688 LINE",
"34 0 LINE"
);
}
);
width = 634;
},
{
anchors = (
{
name = bottom;
position = "{350, 0}";
},
{
name = top;
position = "{350, 688}";
}
);
background = {
anchors = (
{
name = bottom;
position = "{350, 0}";
},
{
name = top;
position = "{350, 688}";
}
);
paths = (
{
closed = 1;
nodes = (
"638 0 LINE",
"638 688 LINE",
"469 688 LINE",
"354 181 LINE",
"348 181 LINE",
"233 688 LINE",
"61 688 LINE",
"61 0 LINE",
"167 0 LINE",
"167 525 LINE",
"173 525 LINE",
"294 0 LINE",
"402 0 LINE",
"524 525 LINE",
"529 525 LINE",
"529 0 LINE"
);
}
);
};
layerId = "374FF654-0B40-45EE-AE97-0DEB7620D1EC";
paths = (
{
closed = 1;
nodes = (
"167 0 LINE",
"167 525 LINE",
"173 525 LINE",
"294 0 LINE",
"402 0 LINE",
"524 525 LINE",
"529 525 LINE",
"529 0 LINE",
"638 0 LINE",
"638 688 LINE",
"469 688 LINE",
"354 181 LINE",
"348 181 LINE",
"233 688 LINE",
"61 688 LINE",
"61 0 LINE"
);
}
);
width = 699;
},
{
anchors = (
{
name = bottom;
position = "{449, 0}";
},
{
name = top;
position = "{449, 688}";
}
);
background = {
anchors = (
{
name = bottom;
position = "{449, 0}";
},
{
name = top;
position = "{449, 688}";
}
);
paths = (
{
closed = 1;
nodes = (
"811 0 LINE",
"811 688 LINE",
"636 688 LINE",
"452 214 LINE",
"447 214 LINE",
"263 688 LINE",
"87 688 LINE",
"87 0 LINE",
"207 0 LINE",
"207 493 LINE",
"211 493 LINE",
"402 0 LINE",
"491 0 LINE",
"683 493 LINE",
"687 493 LINE",
"687 0 LINE"
);
}
);
};
layerId = "E7A95A6A-7487-49EE-B62A-BA87B06E4B57";
paths = (
{
closed = 1;
nodes = (
"207 0 LINE",
"207 493 LINE",
"211 493 LINE",
"402 0 LINE",
"491 0 LINE",
"683 493 LINE",
"687 493 LINE",
"687 0 LINE",
"811 0 LINE",
"811 688 LINE",
"636 688 LINE",
"452 214 LINE",
"447 214 LINE",
"263 688 LINE",
"87 688 LINE",
"87 0 LINE"
);
}
);
width = 898;
}
);
leftKerningGroup = H;
rightKerningGroup = H;
unicode = 004D;
},
{
glyphname = N;
layers = (
{
anchors = (
{
name = bottom;
position = "{379, 0}";
},
{
name = top;
position = "{379, 688}";
}
);
background = {
anchors = (
{
name = bottom;
position = "{369, 0}";
},
{
name = top;
position = "{369, 688}";
}
);
paths = (
{
closed = 1;
nodes = (
"623 0 LINE",
"623 688 LINE",
"588 688 LINE",
"588 66 LINE",
"584 66 LINE",
"150 688 LINE",
"115 688 LINE",
"115 0 LINE",
"150 0 LINE",
"150 622 LINE",
"154 622 LINE",
"588 0 LINE"
);
}
);
};
layerId = UUID0;
paths = (
{
closed = 1;
nodes = (
"150 0 LINE",
"150 622 LINE",
"154 622 LINE",
"588 0 LINE",
"623 0 LINE",
"623 688 LINE",
"588 688 LINE",
"588 66 LINE",
"584 66 LINE",
"150 688 LINE",
"115 688 LINE",
"115 0 LINE"
);
}
);
width = 738;
},
{
anchors = (
{
name = bottom;
position = "{358, 0}";
},
{
name = top;
position = "{358, 688}";
}
);
background = {
anchors = (
{
name = bottom;
position = "{353, 0}";
},
{
name = top;
position = "{353, 688}";
}
);
paths = (
{
closed = 1;
nodes = (
"654 0 LINE",
"654 688 LINE",
"431 688 LINE",
"431 422 LINE",
"424 422 LINE",
"290 688 LINE",
"51 688 LINE",
"51 0 LINE",
"274 0 LINE",
"274 321 LINE",
"280 321 LINE",
"439 0 LINE"
);
}
);
};
layerId = "4F93A97B-747D-4721-B098-38A63C534D7A";
paths = (
{
closed = 1;
nodes = (
"274 0 LINE",
"274 321 LINE",
"280 321 LINE",
"439 0 LINE",
"654 0 LINE",
"654 688 LINE",
"431 688 LINE",
"431 422 LINE",
"424 422 LINE",
"290 688 LINE",
"51 688 LINE",
"51 0 LINE"
);
}
);
width = 705;
},
{
anchors = (
{
name = bottom;
position = "{217, 0}";
},
{
name = top;
position = "{217, 688}";
}
);
background = {
anchors = (
{
name = bottom;
position = "{217, 0}";
},
{
name = top;
position = "{217, 688}";
}
);
paths = (
{
closed = 1;
nodes = (
"369 0 LINE",
"369 688 LINE",
"334 688 LINE",
"334 93 LINE",
"330 93 LINE",
"108 688 LINE",
"65 688 LINE",
"65 0 LINE",
"100 0 LINE",
"100 595 LINE",
"104 595 LINE",
"326 0 LINE"
);
}
);
};
layerId = "E6BBBBE7-ECAD-4929-840D-43673C7BDEAF";
paths = (
{
closed = 1;
nodes = (
"100 0 LINE",
"100 595 LINE",
"104 595 LINE",
"326 0 LINE",
"369 0 LINE",
"369 688 LINE",
"334 688 LINE",
"334 93 LINE",
"330 93 LINE",
"108 688 LINE",
"65 688 LINE",
"65 0 LINE"
);
}
);
width = 434;
},
{
anchors = (
{
name = bottom;
position = "{224, 0}";
},
{
name = top;
position = "{224, 688}";
}
);
background = {
anchors = (
{
name = bottom;
position = "{219, 0}";
},
{
name = top;
position = "{219, 688}";
}
);
paths = (
{
closed = 1;
nodes = (
"403 0 LINE",
"403 688 LINE",
"257 688 LINE",
"257 422 LINE",
"251 422 LINE",
"175 688 LINE",
"34 688 LINE",
"34 0 LINE",
"180 0 LINE",
"180 304 LINE",
"184 304 LINE",
"271 0 LINE"
);
}
);
};
layerId = "7836D3B9-397C-42C1-8084-A98A44B9119A";
paths = (
{
closed = 1;
nodes = (
"180 0 LINE",
"180 304 LINE",
"184 304 LINE",
"271 0 LINE",
"403 0 LINE",
"403 688 LINE",
"257 688 LINE",
"257 422 LINE",
"251 422 LINE",
"175 688 LINE",
"34 688 LINE",
"34 0 LINE"
);
}
);
width = 437;
},
{
anchors = (
{
name = bottom;
position = "{278, 0}";
},
{
name = top;
position = "{278, 688}";
}
);
background = {
anchors = (
{
name = bottom;
position = "{268, 0}";
},
{
name = top;
position = "{268, 688}";
}
);
paths = (
{
closed = 1;
nodes = (
"474 0 LINE",
"474 688 LINE",
"366 688 LINE",
"366 274 LINE",
"362 274 LINE",
"174 688 LINE",
"61 688 LINE",
"61 0 LINE",
"169 0 LINE",
"169 434 LINE",
"173 434 LINE",
"369 0 LINE"
);
}
);
};
layerId = "374FF654-0B40-45EE-AE97-0DEB7620D1EC";
paths = (
{
closed = 1;
nodes = (
"169 0 LINE",
"169 434 LINE",
"173 434 LINE",
"369 0 LINE",
"474 0 LINE",
"474 688 LINE",
"366 688 LINE",
"366 274 LINE",
"362 274 LINE",
"174 688 LINE",
"61 688 LINE",
"61 0 LINE"
);
}
);
width = 535;
},
{
anchors = (
{
name = bottom;
position = "{373, 0}";
},
{
name = top;
position = "{373, 688}";
}
);
background = {
anchors = (
{
name = bottom;
position = "{363, 0}";
},
{
name = top;
position = "{363, 688}";
}
);
paths = (
{
closed = 1;
nodes = (
"639 0 LINE",
"639 688 LINE",
"516 688 LINE",
"516 240 LINE",
"512 240 LINE",
"220 688 LINE",
"87 688 LINE",
"87 0 LINE",
"210 0 LINE",
"210 466 LINE",
"214 466 LINE",
"516 0 LINE"
);
}
);
};
layerId = "E7A95A6A-7487-49EE-B62A-BA87B06E4B57";
paths = (
{
closed = 1;
nodes = (
"210 0 LINE",
"210 466 LINE",
"214 466 LINE",
"516 0 LINE",
"639 0 LINE",
"639 688 LINE",
"516 688 LINE",
"516 240 LINE",
"512 240 LINE",
"220 688 LINE",
"87 688 LINE",
"87 0 LINE"
);
}
);
width = 726;
}
);
leftKerningGroup = H;
rightKerningGroup = H;
unicode = 004E;
},
{
glyphname = Eng;
layers = (
{
background = {
anchors = (
{
name = bottom;
position = "{369, 0}";
},
{
name = top;
position = "{369, 688}";
}
);
paths = (
{
closed = 1;
nodes = (
"588 66 LINE",
"584 66 LINE",
"150 688 LINE",
"115 688 LINE",
"115 0 LINE",
"150 0 LINE",
"150 622 LINE",
"154 622 LINE",
"588 0 LINE",
"588 -113 LINE SMOOTH",
"588 -158 OFFCURVE",
"579 -170 OFFCURVE",
"486 -170 CURVE",
"486 -200 LINE",
"579 -200 OFFCURVE",
"623 -195 OFFCURVE",
"623 -103 CURVE SMOOTH",
"623 688 LINE",
"588 688 LINE"
);
}
);
};
layerId = UUID0;
paths = (
{
closed = 1;
nodes = (
"579 -200 OFFCURVE",
"623 -195 OFFCURVE",
"623 -103 CURVE SMOOTH",
"623 688 LINE",
"588 688 LINE",
"588 66 LINE",
"584 66 LINE",
"150 688 LINE",
"115 688 LINE",
"115 0 LINE",
"150 0 LINE",
"150 622 LINE",
"154 622 LINE",
"588 0 LINE",
"588 -113 LINE SMOOTH",
"588 -158 OFFCURVE",
"579 -170 OFFCURVE",
"486 -170 CURVE",
"486 -200 LINE"
);
}
);
width = 738;
},
{
background = {
anchors = (
{
name = bottom;
position = "{363, 0}";
},
{
name = top;
position = "{363, 688}";
}
);
paths = (
{
closed = 1;
nodes = (
"516 240 LINE",
"512 240 LINE",
"220 688 LINE",
"87 688 LINE",
"87 0 LINE",
"210 0 LINE",
"210 466 LINE",
"214 466 LINE",
"516 0 LINE",
"516 -54 LINE SMOOTH",
"516 -95 OFFCURVE",
"510 -108 OFFCURVE",
"426 -108 CURVE",
"426 -200 LINE",
"594 -200 OFFCURVE",
"639 -186 OFFCURVE",
"639 -29 CURVE SMOOTH",
"639 688 LINE",
"516 688 LINE"
);
}
);
};
layerId = "E7A95A6A-7487-49EE-B62A-BA87B06E4B57";
paths = (
{
closed = 1;
nodes = (
"594 -200 OFFCURVE",
"639 -186 OFFCURVE",
"639 -29 CURVE SMOOTH",
"639 688 LINE",
"516 688 LINE",
"516 240 LINE",
"512 240 LINE",
"220 688 LINE",
"87 688 LINE",
"87 0 LINE",
"210 0 LINE",
"210 466 LINE",
"214 466 LINE",
"516 0 LINE",
"516 -54 LINE SMOOTH",
"516 -95 OFFCURVE",
"510 -108 OFFCURVE",
"426 -108 CURVE",
"426 -200 LINE"
);
}
);
width = 726;
},
{
background = {
anchors = (
{
name = bottom;
position = "{353, 0}";
},
{
name = top;
position = "{353, 688}";
}
);
paths = (
{
closed = 1;
nodes = (
"431 422 LINE",
"424 422 LINE",
"290 688 LINE",
"51 688 LINE",
"51 0 LINE",
"274 0 LINE",
"274 321 LINE",
"280 321 LINE",
"431 16 LINE",
"431 -10 LINE SMOOTH",
"431 -45 OFFCURVE",
"428 -61 OFFCURVE",
"359 -61 CURVE",
"359 -199 LINE",
"610 -199 OFFCURVE",
"654 -179 OFFCURVE",
"654 37 CURVE SMOOTH",
"654 688 LINE",
"431 688 LINE"
);
}
);
};
layerId = "4F93A97B-747D-4721-B098-38A63C534D7A";
paths = (
{
closed = 1;
nodes = (
"610 -199 OFFCURVE",
"654 -179 OFFCURVE",
"654 37 CURVE SMOOTH",
"654 688 LINE",
"431 688 LINE",
"431 422 LINE",
"424 422 LINE",
"290 688 LINE",
"51 688 LINE",
"51 0 LINE",
"274 0 LINE",
"274 321 LINE",
"280 321 LINE",
"431 16 LINE",
"431 -10 LINE SMOOTH",
"431 -45 OFFCURVE",
"428 -61 OFFCURVE",
"359 -61 CURVE",
"359 -199 LINE"
);
}
);
width = 705;
},
{
background = {
anchors = (
{
name = bottom;
position = "{217, 0}";
},
{
name = top;
position = "{217, 688}";
}
);
paths = (
{
closed = 1;
nodes = (
"334 101 LINE",
"330 101 LINE",
"108 688 LINE",
"65 688 LINE",
"65 0 LINE",
"100 0 LINE",
"100 595 LINE",
"104 595 LINE",
"334 0 LINE",
"334 -103 LINE SMOOTH",
"334 -148 OFFCURVE",
"329 -160 OFFCURVE",
"273 -160 CURVE",
"273 -190 LINE",
"339 -190 OFFCURVE",
"369 -185 OFFCURVE",
"369 -93 CURVE SMOOTH",
"369 688 LINE",
"334 688 LINE"
);
}
);
};
layerId = "E6BBBBE7-ECAD-4929-840D-43673C7BDEAF";
paths = (
{
closed = 1;
nodes = (
"339 -190 OFFCURVE",
"369 -185 OFFCURVE",
"369 -93 CURVE SMOOTH",
"369 688 LINE",
"334 688 LINE",
"334 101 LINE",
"330 101 LINE",
"108 688 LINE",
"65 688 LINE",
"65 0 LINE",
"100 0 LINE",
"100 595 LINE",
"104 595 LINE",
"334 0 LINE",
"334 -103 LINE SMOOTH",
"334 -148 OFFCURVE",
"329 -160 OFFCURVE",
"273 -160 CURVE",
"273 -190 LINE"
);
}
);
width = 434;
},
{
background = {
anchors = (
{
name = bottom;
position = "{268, 0}";
},
{
name = top;
position = "{268, 688}";
}
);
paths = (
{
closed = 1;
nodes = (
"366 274 LINE",
"362 274 LINE",
"174 688 LINE",
"61 688 LINE",
"61 0 LINE",
"169 0 LINE",
"169 434 LINE",
"173 434 LINE",
"366 7 LINE",
"366 -55 LINE SMOOTH",
"366 -94 OFFCURVE",
"362 -108 OFFCURVE",
"301 -108 CURVE",
"301 -193 LINE",
"438 -193 OFFCURVE",
"474 -179 OFFCURVE",
"474 -16 CURVE SMOOTH",
"474 688 LINE",
"366 688 LINE"
);
}
);
};
layerId = "374FF654-0B40-45EE-AE97-0DEB7620D1EC";
paths = (
{
closed = 1;
nodes = (
"438 -193 OFFCURVE",
"474 -179 OFFCURVE",
"474 -16 CURVE SMOOTH",
"474 688 LINE",
"366 688 LINE",
"366 274 LINE",
"362 274 LINE",
"174 688 LINE",
"61 688 LINE",
"61 0 LINE",
"169 0 LINE",
"169 434 LINE",
"173 434 LINE",
"366 7 LINE",
"366 -55 LINE SMOOTH",
"366 -94 OFFCURVE",
"362 -108 OFFCURVE",
"301 -108 CURVE",
"301 -193 LINE"
);
}
);
width = 535;
},
{
background = {
anchors = (
{
name = bottom;
position = "{219, 0}";
},
{
name = top;
position = "{219, 688}";
}
);
paths = (
{
closed = 1;
nodes = (
"257 422 LINE",
"251 422 LINE",
"175 688 LINE",
"34 688 LINE",
"34 0 LINE",
"180 0 LINE",
"180 304 LINE",
"184 304 LINE",
"258 45 LINE",
"258 -39 LINE SMOOTH",
"258 -73 OFFCURVE",
"258 -89 OFFCURVE",
"211 -89 CURVE",
"211 -198 LINE",
"357 -198 OFFCURVE",
"398 -181 OFFCURVE",
"403 0 CURVE SMOOTH",
"403 688 LINE",
"257 688 LINE"
);
}
);
};
layerId = "7836D3B9-397C-42C1-8084-A98A44B9119A";
paths = (
{
closed = 1;
nodes = (
"357 -198 OFFCURVE",
"398 -181 OFFCURVE",
"403 0 CURVE SMOOTH",
"403 688 LINE",
"257 688 LINE",
"257 422 LINE",
"251 422 LINE",
"175 688 LINE",
"34 688 LINE",
"34 0 LINE",
"180 0 LINE",
"180 304 LINE",
"184 304 LINE",
"258 45 LINE",
"258 -39 LINE SMOOTH",
"258 -73 OFFCURVE",
"258 -89 OFFCURVE",
"211 -89 CURVE",
"211 -198 LINE"
);
}
);
width = 437;
}
);
leftKerningGroup = H;
rightKerningGroup = H;
unicode = 014A;
},
{
glyphname = Nhookleft;
layers = (
{
anchors = (
{
name = bottom;
position = "{369, 0}";
},
{
name = top;
position = "{369, 688}";
}
);
background = {
anchors = (
{
name = bottom;
position = "{369, 0}";
},
{
name = top;
position = "{369, 688}";
}
);
paths = (
{
closed = 1;
nodes = (
"588 66 LINE",
"584 66 LINE",
"150 688 LINE",
"115 688 LINE",
"115 -113 LINE SMOOTH",
"115 -158 OFFCURVE",
"106 -170 OFFCURVE",
"13 -170 CURVE",
"13 -200 LINE",
"106 -200 OFFCURVE",
"150 -195 OFFCURVE",
"150 -103 CURVE SMOOTH",
"150 622 LINE",
"154 622 LINE",
"588 0 LINE",
"623 0 LINE",
"623 688 LINE",
"588 688 LINE"
);
}
);
};
layerId = UUID0;
paths = (
{
closed = 1;
nodes = (
"106 -200 OFFCURVE",
"150 -195 OFFCURVE",
"150 -103 CURVE SMOOTH",
"150 622 LINE",
"154 622 LINE",
"588 0 LINE",
"623 0 LINE",
"623 688 LINE",
"588 688 LINE",
"588 66 LINE",
"584 66 LINE",
"150 688 LINE",
"115 688 LINE",
"115 -113 LINE SMOOTH",
"115 -158 OFFCURVE",
"106 -170 OFFCURVE",
"13 -170 CURVE",
"13 -200 LINE"
);
}
);
width = 738;
},
{
anchors = (
{
name = bottom;
position = "{363, 0}";
},
{
name = top;
position = "{363, 688}";
}
);
background = {
anchors = (
{
name = bottom;
position = "{363, 0}";
},
{
name = top;
position = "{363, 688}";
}
);
paths = (
{
closed = 1;
nodes = (
"516 240 LINE",
"512 240 LINE",
"220 688 LINE",
"87 688 LINE",
"87 -54 LINE SMOOTH",
"87 -95 OFFCURVE",
"81 -108 OFFCURVE",
"-3 -108 CURVE",
"-3 -200 LINE",
"165 -200 OFFCURVE",
"210 -186 OFFCURVE",
"210 -29 CURVE SMOOTH",
"210 466 LINE",
"214 466 LINE",
"516 0 LINE",
"639 0 LINE",
"639 688 LINE",
"516 688 LINE"
);
}
);
};
layerId = "E7A95A6A-7487-49EE-B62A-BA87B06E4B57";
paths = (
{
closed = 1;
nodes = (
"165 -200 OFFCURVE",
"210 -186 OFFCURVE",
"210 -29 CURVE SMOOTH",
"210 466 LINE",
"214 466 LINE",
"516 0 LINE",
"639 0 LINE",
"639 688 LINE",
"516 688 LINE",
"516 240 LINE",
"512 240 LINE",
"220 688 LINE",
"87 688 LINE",
"87 -54 LINE SMOOTH",
"87 -95 OFFCURVE",
"81 -108 OFFCURVE",
"-3 -108 CURVE",
"-3 -200 LINE"
);
}
);
width = 726;
},
{
anchors = (
{
name = bottom;
position = "{353, 0}";
},
{
name = top;
position = "{353, 688}";
}
);
background = {
anchors = (
{
name = bottom;
position = "{353, 0}";
},
{
name = top;
position = "{353, 688}";
}
);
paths = (
{
closed = 1;
nodes = (
"431 422 LINE",
"424 422 LINE",
"290 688 LINE",
"51 688 LINE",
"51 -10 LINE SMOOTH",
"51 -45 OFFCURVE",
"48 -61 OFFCURVE",
"-21 -61 CURVE",
"-21 -199 LINE",
"230 -199 OFFCURVE",
"274 -179 OFFCURVE",
"274 37 CURVE SMOOTH",
"274 321 LINE",
"280 321 LINE",
"439 0 LINE",
"654 0 LINE",
"654 688 LINE",
"431 688 LINE"
);
}
);
};
layerId = "4F93A97B-747D-4721-B098-38A63C534D7A";
paths = (
{
closed = 1;
nodes = (
"230 -199 OFFCURVE",
"274 -179 OFFCURVE",
"274 37 CURVE SMOOTH",
"274 321 LINE",
"280 321 LINE",
"439 0 LINE",
"654 0 LINE",
"654 688 LINE",
"431 688 LINE",
"431 422 LINE",
"424 422 LINE",
"290 688 LINE",
"51 688 LINE",
"51 -10 LINE SMOOTH",
"51 -45 OFFCURVE",
"48 -61 OFFCURVE",
"-21 -61 CURVE",
"-21 -199 LINE"
);
}
);
width = 705;
},
{
anchors = (
{
name = bottom;
position = "{217, 0}";
},
{
name = top;
position = "{217, 688}";
}
);
background = {
anchors = (
{
name = bottom;
position = "{217, 0}";
},
{
name = top;
position = "{217, 688}";
}
);
paths = (
{
closed = 1;
nodes = (
"334 93 LINE",
"330 93 LINE",
"108 688 LINE",
"65 688 LINE",
"65 -103 LINE SMOOTH",
"65 -148 OFFCURVE",
"60 -160 OFFCURVE",
"4 -160 CURVE",
"4 -190 LINE",
"70 -190 OFFCURVE",
"100 -185 OFFCURVE",
"100 -93 CURVE SMOOTH",
"100 595 LINE",
"104 595 LINE",
"326 0 LINE",
"369 0 LINE",
"369 688 LINE",
"334 688 LINE"
);
}
);
};
layerId = "E6BBBBE7-ECAD-4929-840D-43673C7BDEAF";
paths = (
{
closed = 1;
nodes = (
"70 -190 OFFCURVE",
"100 -185 OFFCURVE",
"100 -93 CURVE SMOOTH",
"100 595 LINE",
"104 595 LINE",
"326 0 LINE",
"369 0 LINE",
"369 688 LINE",
"334 688 LINE",
"334 93 LINE",
"330 93 LINE",
"108 688 LINE",
"65 688 LINE",
"65 -103 LINE SMOOTH",
"65 -148 OFFCURVE",
"60 -160 OFFCURVE",
"4 -160 CURVE",
"4 -190 LINE"
);
}
);
width = 434;
},
{
anchors = (
{
name = bottom;
position = "{268, 0}";
},
{
name = top;
position = "{268, 688}";
}
);
background = {
anchors = (
{
name = bottom;
position = "{268, 0}";
},
{
name = top;
position = "{268, 688}";
}
);
paths = (
{
closed = 1;
nodes = (
"366 274 LINE",
"362 274 LINE",
"174 688 LINE",
"61 688 LINE",
"61 -55 LINE SMOOTH",
"61 -94 OFFCURVE",
"57 -108 OFFCURVE",
"-4 -108 CURVE",
"-4 -193 LINE",
"133 -193 OFFCURVE",
"169 -179 OFFCURVE",
"169 -16 CURVE SMOOTH",
"169 434 LINE",
"173 434 LINE",
"369 0 LINE",
"474 0 LINE",
"474 688 LINE",
"366 688 LINE"
);
}
);
};
layerId = "374FF654-0B40-45EE-AE97-0DEB7620D1EC";
paths = (
{
closed = 1;
nodes = (
"133 -193 OFFCURVE",
"169 -179 OFFCURVE",
"169 -16 CURVE SMOOTH",
"169 434 LINE",
"173 434 LINE",
"369 0 LINE",
"474 0 LINE",
"474 688 LINE",
"366 688 LINE",
"366 274 LINE",
"362 274 LINE",
"174 688 LINE",
"61 688 LINE",
"61 -55 LINE SMOOTH",
"61 -94 OFFCURVE",
"57 -108 OFFCURVE",
"-4 -108 CURVE",
"-4 -193 LINE"
);
}
);
width = 535;
},
{
anchors = (
{
name = bottom;
position = "{219, 0}";
},
{
name = top;
position = "{219, 688}";
}
);
background = {
anchors = (
{
name = bottom;
position = "{219, 0}";
},
{
name = top;
position = "{219, 688}";
}
);
paths = (
{
closed = 1;
nodes = (
"257 422 LINE",
"251 422 LINE",
"175 688 LINE",
"34 688 LINE",
"34 -39 LINE SMOOTH",
"34 -73 OFFCURVE",
"34 -89 OFFCURVE",
"-12 -89 CURVE",
"-12 -198 LINE",
"143 -198 OFFCURVE",
"180 -179 OFFCURVE",
"180 35 CURVE SMOOTH",
"180 304 LINE",
"184 304 LINE",
"271 0 LINE",
"403 0 LINE",
"403 688 LINE",
"257 688 LINE"
);
}
);
};
layerId = "7836D3B9-397C-42C1-8084-A98A44B9119A";
paths = (
{
closed = 1;
nodes = (
"143 -198 OFFCURVE",
"180 -179 OFFCURVE",
"180 35 CURVE SMOOTH",
"180 304 LINE",
"184 304 LINE",
"271 0 LINE",
"403 0 LINE",
"403 688 LINE",
"257 688 LINE",
"257 422 LINE",
"251 422 LINE",
"175 688 LINE",
"34 688 LINE",
"34 -39 LINE SMOOTH",
"34 -73 OFFCURVE",
"34 -89 OFFCURVE",
"-12 -89 CURVE",
"-12 -198 LINE"
);
}
);
width = 437;
}
);
leftKerningGroup = j;
rightKerningGroup = H;
unicode = 019D;
},
{
glyphname = O;
layers = (
{
anchors = (
{
name = bottom;
position = "{363, 0}";
},
{
name = center;
position = "{363, 344}";
},
{
name = ogonek;
position = "{399, 0}";
},
{
name = top;
position = "{363, 688}";
},
{
name = topleft;
position = "{20, 688}";
},
{
name = topright;
position = "{497, 688}";
}
);
background = {
anchors = (
{
name = bottom;
position = "{363, 0}";
},
{
name = center;
position = "{363, 344}";
},
{
name = top;
position = "{363, 688}";
},
{
name = topright;
position = "{607, 688}";
}
);
paths = (
{
closed = 1;
nodes = (
"620 -8 OFFCURVE",
"636 31 OFFCURVE",
"636 344 CURVE SMOOTH",
"636 657 OFFCURVE",
"620 696 OFFCURVE",
"363 696 CURVE SMOOTH",
"106 696 OFFCURVE",
"90 657 OFFCURVE",
"90 344 CURVE SMOOTH",
"90 31 OFFCURVE",
"106 -8 OFFCURVE",
"363 -8 CURVE SMOOTH"
);
},
{
closed = 1;
nodes = (
"146 26 OFFCURVE",
"126 32 OFFCURVE",
"126 344 CURVE SMOOTH",
"126 656 OFFCURVE",
"146 662 OFFCURVE",
"363 662 CURVE SMOOTH",
"580 662 OFFCURVE",
"600 656 OFFCURVE",
"600 344 CURVE SMOOTH",
"600 32 OFFCURVE",
"580 26 OFFCURVE",
"363 26 CURVE SMOOTH"
);
}
);
};
guideLines = (
{
angle = -0.0082;
position = "{618, 342.712}";
showMeasurement = 1;
}
);
layerId = UUID0;
paths = (
{
closed = 1;
nodes = (
"620 -8 OFFCURVE",
"636 31 OFFCURVE",
"636 344 CURVE SMOOTH",
"636 657 OFFCURVE",
"620 696 OFFCURVE",
"363 696 CURVE SMOOTH",
"106 696 OFFCURVE",
"90 657 OFFCURVE",
"90 344 CURVE SMOOTH",
"90 31 OFFCURVE",
"106 -8 OFFCURVE",
"363 -8 CURVE SMOOTH"
);
},
{
closed = 1;
nodes = (
"146 26 OFFCURVE",
"126 32 OFFCURVE",
"126 344 CURVE SMOOTH",
"126 656 OFFCURVE",
"146 662 OFFCURVE",
"363 662 CURVE SMOOTH",
"580 662 OFFCURVE",
"600 656 OFFCURVE",
"600 344 CURVE SMOOTH",
"600 32 OFFCURVE",
"580 26 OFFCURVE",
"363 26 CURVE SMOOTH"
);
}
);
width = 726;
},
{
anchors = (
{
name = bottom;
position = "{348, 0}";
},
{
name = center;
position = "{348, 344}";
},
{
name = ogonek;
position = "{440, 0}";
},
{
name = top;
position = "{348, 688}";
},
{
name = topleft;
position = "{20, 688}";
},
{
name = topright;
position = "{460, 688}";
}
);
background = {
anchors = (
{
name = bottom;
position = "{348, 0}";
},
{
name = center;
position = "{348, 344}";
},
{
name = top;
position = "{348, 688}";
},
{
name = topright;
position = "{660, 688}";
}
);
paths = (
{
closed = 1;
nodes = (
"649 -8 OFFCURVE",
"653 73 OFFCURVE",
"653 344 CURVE SMOOTH",
"653 615 OFFCURVE",
"649 696 OFFCURVE",
"347 696 CURVE SMOOTH",
"45 696 OFFCURVE",
"42 615 OFFCURVE",
"42 344 CURVE SMOOTH",
"42 73 OFFCURVE",
"45 -8 OFFCURVE",
"347 -8 CURVE SMOOTH"
);
},
{
closed = 1;
nodes = (
"277 159 OFFCURVE",
"277 163 OFFCURVE",
"277 344 CURVE SMOOTH",
"277 525 OFFCURVE",
"277 529 OFFCURVE",
"347 529 CURVE SMOOTH",
"417 529 OFFCURVE",
"418 525 OFFCURVE",
"418 344 CURVE SMOOTH",
"418 163 OFFCURVE",
"417 159 OFFCURVE",
"347 159 CURVE SMOOTH"
);
}
);
};
layerId = "4F93A97B-747D-4721-B098-38A63C534D7A";
paths = (
{
closed = 1;
nodes = (
"649 -8 OFFCURVE",
"653 73 OFFCURVE",
"653 344 CURVE SMOOTH",
"653 615 OFFCURVE",
"649 696 OFFCURVE",
"347 696 CURVE SMOOTH",
"45 696 OFFCURVE",
"42 615 OFFCURVE",
"42 344 CURVE SMOOTH",
"42 73 OFFCURVE",
"45 -8 OFFCURVE",
"347 -8 CURVE SMOOTH"
);
},
{
closed = 1;
nodes = (
"277 159 OFFCURVE",
"277 163 OFFCURVE",
"277 344 CURVE SMOOTH",
"277 525 OFFCURVE",
"277 529 OFFCURVE",
"347 529 CURVE SMOOTH",
"417 529 OFFCURVE",
"418 525 OFFCURVE",
"418 344 CURVE SMOOTH",
"418 163 OFFCURVE",
"417 159 OFFCURVE",
"347 159 CURVE SMOOTH"
);
}
);
width = 695;
},
{
anchors = (
{
name = bottom;
position = "{214, 0}";
},
{
name = center;
position = "{214, 344}";
},
{
name = ogonek;
position = "{254, 0}";
},
{
name = top;
position = "{214, 688}";
},
{
name = topleft;
position = "{20, 688}";
},
{
name = topright;
position = "{271, 688}";
}
);
background = {
anchors = (
{
name = bottom;
position = "{214, 0}";
},
{
name = center;
position = "{214, 344}";
},
{
name = top;
position = "{214, 688}";
},
{
name = topright;
position = "{361, 688}";
}
);
paths = (
{
closed = 1;
nodes = (
"360 -8 OFFCURVE",
"378 40 OFFCURVE",
"378 344 CURVE SMOOTH",
"378 648 OFFCURVE",
"360 696 OFFCURVE",
"214 696 CURVE SMOOTH",
"68 696 OFFCURVE",
"50 648 OFFCURVE",
"50 344 CURVE SMOOTH",
"50 40 OFFCURVE",
"68 -8 OFFCURVE",
"214 -8 CURVE SMOOTH"
);
},
{
closed = 1;
nodes = (
"105 26 OFFCURVE",
"86 41 OFFCURVE",
"86 344 CURVE SMOOTH",
"86 647 OFFCURVE",
"105 662 OFFCURVE",
"214 662 CURVE SMOOTH",
"323 662 OFFCURVE",
"342 647 OFFCURVE",
"342 344 CURVE SMOOTH",
"342 41 OFFCURVE",
"323 26 OFFCURVE",
"214 26 CURVE SMOOTH"
);
}
);
};
layerId = "E6BBBBE7-ECAD-4929-840D-43673C7BDEAF";
paths = (
{
closed = 1;
nodes = (
"360 -8 OFFCURVE",
"378 40 OFFCURVE",
"378 344 CURVE SMOOTH",
"378 648 OFFCURVE",
"360 696 OFFCURVE",
"214 696 CURVE SMOOTH",
"68 696 OFFCURVE",
"50 648 OFFCURVE",
"50 344 CURVE SMOOTH",
"50 40 OFFCURVE",
"68 -8 OFFCURVE",
"214 -8 CURVE SMOOTH"
);
},
{
closed = 1;
nodes = (
"105 26 OFFCURVE",
"86 41 OFFCURVE",
"86 344 CURVE SMOOTH",
"86 647 OFFCURVE",
"105 662 OFFCURVE",
"214 662 CURVE SMOOTH",
"323 662 OFFCURVE",
"342 647 OFFCURVE",
"342 344 CURVE SMOOTH",
"342 41 OFFCURVE",
"323 26 OFFCURVE",
"214 26 CURVE SMOOTH"
);
}
);
width = 428;
},
{
anchors = (
{
name = bottom;
position = "{208, 0}";
},
{
name = center;
position = "{208, 344}";
},
{
name = ogonek;
position = "{267, 0}";
},
{
name = top;
position = "{208, 688}";
},
{
name = topleft;
position = "{20, 688}";
},
{
name = topright;
position = "{226, 688}";
}
);
background = {
anchors = (
{
name = bottom;
position = "{208, 0}";
},
{
name = center;
position = "{208, 344}";
},
{
name = top;
position = "{208, 688}";
},
{
name = topright;
position = "{396, 688}";
}
);
paths = (
{
closed = 1;
nodes = (
"392 -8 OFFCURVE",
"392 82 OFFCURVE",
"392 344 CURVE SMOOTH",
"392 607 OFFCURVE",
"392 696 OFFCURVE",
"208 696 CURVE SMOOTH",
"24 696 OFFCURVE",
"24 607 OFFCURVE",
"24 344 CURVE SMOOTH",
"24 82 OFFCURVE",
"24 -8 OFFCURVE",
"208 -8 CURVE SMOOTH"
);
},
{
closed = 1;
nodes = (
"178 131 OFFCURVE",
"178 133 OFFCURVE",
"178 344 CURVE SMOOTH",
"178 555 OFFCURVE",
"178 557 OFFCURVE",
"208 557 CURVE SMOOTH",
"238 557 OFFCURVE",
"238 555 OFFCURVE",
"238 344 CURVE SMOOTH",
"238 133 OFFCURVE",
"238 131 OFFCURVE",
"208 131 CURVE SMOOTH"
);
}
);
};
layerId = "7836D3B9-397C-42C1-8084-A98A44B9119A";
paths = (
{
closed = 1;
nodes = (
"392 -8 OFFCURVE",
"392 82 OFFCURVE",
"392 344 CURVE SMOOTH",
"392 607 OFFCURVE",
"392 696 OFFCURVE",
"208 696 CURVE SMOOTH",
"24 696 OFFCURVE",
"24 607 OFFCURVE",
"24 344 CURVE SMOOTH",
"24 82 OFFCURVE",
"24 -8 OFFCURVE",
"208 -8 CURVE SMOOTH"
);
},
{
closed = 1;
nodes = (
"178 131 OFFCURVE",
"178 133 OFFCURVE",
"178 344 CURVE SMOOTH",
"178 555 OFFCURVE",
"178 557 OFFCURVE",
"208 557 CURVE SMOOTH",
"238 557 OFFCURVE",
"238 555 OFFCURVE",
"238 344 CURVE SMOOTH",
"238 133 OFFCURVE",
"238 131 OFFCURVE",
"208 131 CURVE SMOOTH"
);
}
);
width = 416;
},
{
anchors = (
{
name = bottom;
position = "{261, 0}";
},
{
name = center;
position = "{261, 344}";
},
{
name = ogonek;
position = "{314, 0}";
},
{
name = top;
position = "{261, 688}";
},
{
name = topleft;
position = "{20, 688}";
},
{
name = topright;
position = "{310, 688}";
}
);
background = {
anchors = (
{
name = bottom;
position = "{261, 0}";
},
{
name = center;
position = "{261, 344}";
},
{
name = top;
position = "{261, 688}";
},
{
name = topright;
position = "{490, 688}";
}
);
paths = (
{
closed = 1;
nodes = (
"465 -8 OFFCURVE",
"474 65 OFFCURVE",
"474 344 CURVE SMOOTH",
"474 623 OFFCURVE",
"465 696 OFFCURVE",
"260 696 CURVE SMOOTH",
"55 696 OFFCURVE",
"47 623 OFFCURVE",
"47 344 CURVE SMOOTH",
"47 65 OFFCURVE",
"55 -8 OFFCURVE",
"260 -8 CURVE SMOOTH"
);
},
{
closed = 1;
nodes = (
"165 93 OFFCURVE",
"159 99 OFFCURVE",
"159 344 CURVE SMOOTH",
"159 589 OFFCURVE",
"165 595 OFFCURVE",
"260 595 CURVE SMOOTH",
"355 595 OFFCURVE",
"362 589 OFFCURVE",
"362 344 CURVE SMOOTH",
"362 99 OFFCURVE",
"355 93 OFFCURVE",
"260 93 CURVE SMOOTH"
);
}
);
};
layerId = "374FF654-0B40-45EE-AE97-0DEB7620D1EC";
paths = (
{
closed = 1;
nodes = (
"465 -8 OFFCURVE",
"474 65 OFFCURVE",
"474 344 CURVE SMOOTH",
"474 623 OFFCURVE",
"465 696 OFFCURVE",
"260 696 CURVE SMOOTH",
"55 696 OFFCURVE",
"47 623 OFFCURVE",
"47 344 CURVE SMOOTH",
"47 65 OFFCURVE",
"55 -8 OFFCURVE",
"260 -8 CURVE SMOOTH"
);
},
{
closed = 1;
nodes = (
"165 93 OFFCURVE",
"159 99 OFFCURVE",
"159 344 CURVE SMOOTH",
"159 589 OFFCURVE",
"165 595 OFFCURVE",
"260 595 CURVE SMOOTH",
"355 595 OFFCURVE",
"362 589 OFFCURVE",
"362 344 CURVE SMOOTH",
"362 99 OFFCURVE",
"355 93 OFFCURVE",
"260 93 CURVE SMOOTH"
);
}
);
width = 521;
},
{
anchors = (
{
name = bottom;
position = "{351.779, 0}";
},
{
name = center;
position = "{351.779, 344}";
},
{
name = ogonek;
position = "{489, 10}";
},
{
name = top;
position = "{351.779, 688}";
},
{
name = topleft;
position = "{20, 688}";
},
{
name = topright;
position = "{677.49, 688}";
}
);
associatedMasterId = UUID0;
background = {
paths = (
{
closed = 1;
nodes = (
"626 -8 OFFCURVE",
"634 60 OFFCURVE",
"634 344 CURVE SMOOTH",
"634 628 OFFCURVE",
"626 696 OFFCURVE",
"345 696 CURVE SMOOTH",
"64 696 OFFCURVE",
"57 628 OFFCURVE",
"57 344 CURVE SMOOTH",
"57 60 OFFCURVE",
"64 -8 OFFCURVE",
"345 -8 CURVE SMOOTH"
);
},
{
closed = 1;
nodes = (
"228 114 OFFCURVE",
"222 119 OFFCURVE",
"222 344 CURVE SMOOTH",
"222 569 OFFCURVE",
"228 574 OFFCURVE",
"344 574 CURVE SMOOTH",
"460 574 OFFCURVE",
"467 569 OFFCURVE",
"467 344 CURVE SMOOTH",
"467 119 OFFCURVE",
"460 114 OFFCURVE",
"344 114 CURVE SMOOTH"
);
}
);
};
layerId = "A50A5B17-15C1-4D54-BF7E-B985A32A5777";
name = "Intermediate {152, 307}";
paths = (
{
closed = 1;
nodes = (
"640 -8 OFFCURVE",
"647 72 OFFCURVE",
"647 344 CURVE SMOOTH",
"647 616 OFFCURVE",
"640 696 OFFCURVE",
"352 696 CURVE SMOOTH",
"64 696 OFFCURVE",
"56 616 OFFCURVE",
"56 344 CURVE SMOOTH",
"56 72 OFFCURVE",
"64 -8 OFFCURVE",
"352 -8 CURVE SMOOTH"
);
},
{
closed = 1;
nodes = (
"227 125 OFFCURVE",
"223 130 OFFCURVE",
"223 344 CURVE SMOOTH",
"223 558 OFFCURVE",
"227 563 OFFCURVE",
"352 563 CURVE SMOOTH",
"477 563 OFFCURVE",
"480 558 OFFCURVE",
"480 344 CURVE SMOOTH",
"480 130 OFFCURVE",
"477 125 OFFCURVE",
"352 125 CURVE SMOOTH"
);
}
);
width = 703;
},
{
anchors = (
{
name = bottom;
position = "{355, 0}";
},
{
name = center;
position = "{355, 344}";
},
{
name = ogonek;
position = "{429, 0}";
},
{
name = top;
position = "{355, 688}";
},
{
name = topleft;
position = "{20, 688}";
},
{
name = topright;
position = "{458, 688}";
}
);
background = {
anchors = (
{
name = bottom;
position = "{355, 0}";
},
{
name = center;
position = "{355, 344}";
},
{
name = top;
position = "{355, 688}";
},
{
name = topright;
position = "{649, 688}";
}
);
paths = (
{
closed = 1;
nodes = (
"631 -8 OFFCURVE",
"644 64 OFFCURVE",
"644 344 CURVE SMOOTH",
"644 624 OFFCURVE",
"631 696 OFFCURVE",
"354 696 CURVE SMOOTH",
"77 696 OFFCURVE",
"65 624 OFFCURVE",
"65 344 CURVE SMOOTH",
"65 64 OFFCURVE",
"77 -8 OFFCURVE",
"354 -8 CURVE SMOOTH"
);
},
{
closed = 1;
nodes = (
"199 100 OFFCURVE",
"193 105 OFFCURVE",
"193 344 CURVE SMOOTH",
"193 583 OFFCURVE",
"199 588 OFFCURVE",
"354 588 CURVE SMOOTH",
"509 588 OFFCURVE",
"516 583 OFFCURVE",
"516 344 CURVE SMOOTH",
"516 105 OFFCURVE",
"509 100 OFFCURVE",
"354 100 CURVE SMOOTH"
);
}
);
};
layerId = "E7A95A6A-7487-49EE-B62A-BA87B06E4B57";
paths = (
{
closed = 1;
nodes = (
"631 -8 OFFCURVE",
"644 64 OFFCURVE",
"644 344 CURVE SMOOTH",
"644 624 OFFCURVE",
"631 696 OFFCURVE",
"354 696 CURVE SMOOTH",
"77 696 OFFCURVE",
"65 624 OFFCURVE",
"65 344 CURVE SMOOTH",
"65 64 OFFCURVE",
"77 -8 OFFCURVE",
"354 -8 CURVE SMOOTH"
);
},
{
closed = 1;
nodes = (
"199 100 OFFCURVE",
"193 105 OFFCURVE",
"193 344 CURVE SMOOTH",
"193 583 OFFCURVE",
"199 588 OFFCURVE",
"354 588 CURVE SMOOTH",
"509 588 OFFCURVE",
"516 583 OFFCURVE",
"516 344 CURVE SMOOTH",
"516 105 OFFCURVE",
"509 100 OFFCURVE",
"354 100 CURVE SMOOTH"
);
}
);
width = 709;
}
);
leftKerningGroup = O;
rightKerningGroup = O;
unicode = 004F;
},
{
glyphname = Oogonek;
layers = (
{
anchors = (
{
name = top;
position = "{363, 688}";
}
);
background = {
paths = (
{
closed = 1;
nodes = (
"516 -196 OFFCURVE",
"520 -196 OFFCURVE",
"529 -195 CURVE",
"529 -163 LINE",
"520 -164 OFFCURVE",
"516 -164 OFFCURVE",
"512 -164 CURVE SMOOTH",
"477 -164 OFFCURVE",
"465 -143 OFFCURVE",
"465 -120 CURVE SMOOTH",
"465 -71 OFFCURVE",
"511 -9 OFFCURVE",
"562 20 CURVE SMOOTH",
"630 59 OFFCURVE",
"636 148 OFFCURVE",
"636 344 CURVE SMOOTH",
"636 657 OFFCURVE",
"620 696 OFFCURVE",
"363 696 CURVE SMOOTH",
"106 696 OFFCURVE",
"90 657 OFFCURVE",
"90 344 CURVE SMOOTH",
"90 31 OFFCURVE",
"106 -8 OFFCURVE",
"363 -8 CURVE SMOOTH",
"421 -8 OFFCURVE",
"467 -6 OFFCURVE",
"503 1 CURVE",
"459 -39 OFFCURVE",
"431 -85 OFFCURVE",
"431 -127 CURVE SMOOTH",
"431 -164 OFFCURVE",
"452 -196 OFFCURVE",
"507 -196 CURVE SMOOTH"
);
},
{
closed = 1;
nodes = (
"146 26 OFFCURVE",
"126 32 OFFCURVE",
"126 344 CURVE SMOOTH",
"126 656 OFFCURVE",
"146 662 OFFCURVE",
"363 662 CURVE SMOOTH",
"580 662 OFFCURVE",
"600 656 OFFCURVE",
"600 344 CURVE SMOOTH",
"600 32 OFFCURVE",
"580 26 OFFCURVE",
"363 26 CURVE SMOOTH"
);
}
);
};
components = (
{
name = O;
},
{
name = ogonekcomb.case;
transform = "{1, 0, 0, 1, 302, -4}";
}
);
layerId = UUID0;
width = 726;
},
{
anchors = (
{
name = top;
position = "{355, 688}";
}
);
background = {
paths = (
{
closed = 1;
nodes = (
"499 -196 OFFCURVE",
"516 -195 OFFCURVE",
"541 -193 CURVE",
"541 -123 LINE",
"537 -123 OFFCURVE",
"529 -124 OFFCURVE",
"522 -124 CURVE SMOOTH",
"487 -124 OFFCURVE",
"477 -108 OFFCURVE",
"477 -89 CURVE SMOOTH",
"477 -47 OFFCURVE",
"515 0 OFFCURVE",
"560 25 CURVE SMOOTH",
"639 69 OFFCURVE",
"644 163 OFFCURVE",
"644 344 CURVE SMOOTH",
"644 624 OFFCURVE",
"631 696 OFFCURVE",
"354 696 CURVE SMOOTH",
"77 696 OFFCURVE",
"65 624 OFFCURVE",
"65 344 CURVE SMOOTH",
"65 64 OFFCURVE",
"77 -8 OFFCURVE",
"354 -8 CURVE SMOOTH",
"380 -8 OFFCURVE",
"404 -7 OFFCURVE",
"426 -6 CURVE",
"394 -42 OFFCURVE",
"375 -80 OFFCURVE",
"375 -117 CURVE SMOOTH",
"375 -159 OFFCURVE",
"398 -196 OFFCURVE",
"487 -196 CURVE SMOOTH"
);
},
{
closed = 1;
nodes = (
"199 100 OFFCURVE",
"193 105 OFFCURVE",
"193 344 CURVE SMOOTH",
"193 583 OFFCURVE",
"199 588 OFFCURVE",
"354 588 CURVE SMOOTH",
"509 588 OFFCURVE",
"516 583 OFFCURVE",
"516 344 CURVE SMOOTH",
"516 105 OFFCURVE",
"509 100 OFFCURVE",
"354 100 CURVE SMOOTH"
);
}
);
};
components = (
{
name = O;
},
{
name = ogonekcomb.case;
transform = "{1, 0, 0, 1, 264, -4}";
}
);
layerId = "E7A95A6A-7487-49EE-B62A-BA87B06E4B57";
width = 709;
},
{
anchors = (
{
name = top;
position = "{348, 688}";
}
);
background = {
paths = (
{
closed = 1;
nodes = (
"484 -196 OFFCURVE",
"522 -194 OFFCURVE",
"545 -192 CURVE",
"545 -98 LINE",
"536 -99 OFFCURVE",
"531 -99 OFFCURVE",
"528 -99 CURVE SMOOTH",
"490 -99 OFFCURVE",
"481 -85 OFFCURVE",
"481 -69 CURVE SMOOTH",
"481 -32 OFFCURVE",
"503 -3 OFFCURVE",
"558 22 CURVE SMOOTH",
"651 65 OFFCURVE",
"653 161 OFFCURVE",
"653 344 CURVE SMOOTH",
"653 615 OFFCURVE",
"649 696 OFFCURVE",
"347 696 CURVE SMOOTH",
"45 696 OFFCURVE",
"42 615 OFFCURVE",
"42 344 CURVE SMOOTH",
"42 73 OFFCURVE",
"45 -8 OFFCURVE",
"347 -8 CURVE SMOOTH",
"351 -8 OFFCURVE",
"356 -8 OFFCURVE",
"360 -8 CURVE",
"331 -39 OFFCURVE",
"313 -74 OFFCURVE",
"313 -108 CURVE SMOOTH",
"313 -154 OFFCURVE",
"345 -196 OFFCURVE",
"459 -196 CURVE SMOOTH"
);
},
{
closed = 1;
nodes = (
"277 159 OFFCURVE",
"277 163 OFFCURVE",
"277 344 CURVE SMOOTH",
"277 525 OFFCURVE",
"277 529 OFFCURVE",
"347 529 CURVE SMOOTH",
"417 529 OFFCURVE",
"418 525 OFFCURVE",
"418 344 CURVE SMOOTH",
"418 163 OFFCURVE",
"417 159 OFFCURVE",
"347 159 CURVE SMOOTH"
);
}
);
};
components = (
{
name = O;
},
{
name = ogonekcomb.case;
transform = "{1, 0, 0, 1, 209, -4}";
}
);
layerId = "4F93A97B-747D-4721-B098-38A63C534D7A";
width = 695;
},
{
anchors = (
{
name = top;
position = "{214, 688}";
}
);
background = {
paths = (
{
closed = 1;
nodes = (
"296 -196 OFFCURVE",
"300 -196 OFFCURVE",
"309 -195 CURVE",
"309 -163 LINE",
"300 -164 OFFCURVE",
"296 -164 OFFCURVE",
"292 -164 CURVE SMOOTH",
"257 -164 OFFCURVE",
"245 -144 OFFCURVE",
"245 -119 CURVE SMOOTH",
"245 -74 OFFCURVE",
"283 -10 OFFCURVE",
"319 14 CURVE SMOOTH",
"370 49 OFFCURVE",
"378 137 OFFCURVE",
"378 344 CURVE SMOOTH",
"378 648 OFFCURVE",
"360 696 OFFCURVE",
"214 696 CURVE SMOOTH",
"68 696 OFFCURVE",
"50 648 OFFCURVE",
"50 344 CURVE SMOOTH",
"50 40 OFFCURVE",
"68 -8 OFFCURVE",
"214 -8 CURVE SMOOTH",
"233 -8 OFFCURVE",
"250 -7 OFFCURVE",
"265 -5 CURVE",
"233 -41 OFFCURVE",
"211 -86 OFFCURVE",
"211 -126 CURVE SMOOTH",
"211 -164 OFFCURVE",
"232 -196 OFFCURVE",
"287 -196 CURVE SMOOTH"
);
},
{
closed = 1;
nodes = (
"105 26 OFFCURVE",
"86 41 OFFCURVE",
"86 344 CURVE SMOOTH",
"86 647 OFFCURVE",
"105 662 OFFCURVE",
"214 662 CURVE SMOOTH",
"323 662 OFFCURVE",
"342 647 OFFCURVE",
"342 344 CURVE SMOOTH",
"342 41 OFFCURVE",
"323 26 OFFCURVE",
"214 26 CURVE SMOOTH"
);
}
);
};
components = (
{
name = O;
},
{
name = ogonekcomb.case;
transform = "{1, 0, 0, 1, 157, -4}";
}
);
layerId = "E6BBBBE7-ECAD-4929-840D-43673C7BDEAF";
width = 428;
},
{
anchors = (
{
name = top;
position = "{261, 688}";
}
);
background = {
anchors = (
{
name = top;
position = "{261, 688}";
}
);
paths = (
{
closed = 1;
nodes = (
"362 -196 OFFCURVE",
"377 -195 OFFCURVE",
"395 -193 CURVE",
"395 -131 LINE",
"390 -131 OFFCURVE",
"386 -132 OFFCURVE",
"379 -132 CURVE SMOOTH",
"349 -132 OFFCURVE",
"339 -115 OFFCURVE",
"339 -94 CURVE SMOOTH",
"339 -49 OFFCURVE",
"359 -10 OFFCURVE",
"406 21 CURVE SMOOTH",
"470 63 OFFCURVE",
"474 158 OFFCURVE",
"474 344 CURVE SMOOTH",
"474 623 OFFCURVE",
"465 696 OFFCURVE",
"260 696 CURVE SMOOTH",
"55 696 OFFCURVE",
"47 623 OFFCURVE",
"47 344 CURVE SMOOTH",
"47 65 OFFCURVE",
"55 -8 OFFCURVE",
"260 -8 CURVE SMOOTH",
"273 -8 OFFCURVE",
"286 -8 OFFCURVE",
"298 -7 CURVE",
"271 -41 OFFCURVE",
"253 -79 OFFCURVE",
"253 -116 CURVE SMOOTH",
"253 -157 OFFCURVE",
"275 -196 OFFCURVE",
"350 -196 CURVE SMOOTH"
);
},
{
closed = 1;
nodes = (
"165 93 OFFCURVE",
"159 99 OFFCURVE",
"159 344 CURVE SMOOTH",
"159 589 OFFCURVE",
"165 595 OFFCURVE",
"260 595 CURVE SMOOTH",
"355 595 OFFCURVE",
"362 589 OFFCURVE",
"362 344 CURVE SMOOTH",
"362 99 OFFCURVE",
"355 93 OFFCURVE",
"260 93 CURVE SMOOTH"
);
}
);
};
components = (
{
name = O;
},
{
name = ogonekcomb.case;
transform = "{1, 0, 0, 1, 173, -4}";
}
);
layerId = "374FF654-0B40-45EE-AE97-0DEB7620D1EC";
width = 521;
},
{
anchors = (
{
name = top;
position = "{208, 688}";
}
);
background = {
paths = (
{
closed = 1;
nodes = (
"293 -196 OFFCURVE",
"316 -194 OFFCURVE",
"329 -191 CURVE",
"329 -117 LINE",
"323 -118 OFFCURVE",
"321 -118 OFFCURVE",
"319 -118 CURVE SMOOTH",
"292 -118 OFFCURVE",
"286 -102 OFFCURVE",
"286 -83 CURVE SMOOTH",
"286 -36 OFFCURVE",
"324 10 OFFCURVE",
"345 32 CURVE SMOOTH",
"392 81 OFFCURVE",
"392 178 OFFCURVE",
"392 344 CURVE SMOOTH",
"392 607 OFFCURVE",
"392 696 OFFCURVE",
"208 696 CURVE SMOOTH",
"24 696 OFFCURVE",
"24 607 OFFCURVE",
"24 344 CURVE SMOOTH",
"24 82 OFFCURVE",
"24 -8 OFFCURVE",
"208 -8 CURVE SMOOTH",
"209 -8 OFFCURVE",
"211 -8 OFFCURVE",
"212 -8 CURVE",
"191 -39 OFFCURVE",
"178 -73 OFFCURVE",
"178 -107 CURVE SMOOTH",
"178 -153 OFFCURVE",
"202 -196 OFFCURVE",
"277 -196 CURVE SMOOTH"
);
},
{
closed = 1;
nodes = (
"178 131 OFFCURVE",
"178 133 OFFCURVE",
"178 344 CURVE SMOOTH",
"178 555 OFFCURVE",
"178 557 OFFCURVE",
"208 557 CURVE SMOOTH",
"238 557 OFFCURVE",
"238 555 OFFCURVE",
"238 344 CURVE SMOOTH",
"238 133 OFFCURVE",
"238 131 OFFCURVE",
"208 131 CURVE SMOOTH"
);
}
);
};
components = (
{
name = O;
},
{
name = ogonekcomb.case;
transform = "{1, 0, 0, 1, 117, -4}";
}
);
layerId = "7836D3B9-397C-42C1-8084-A98A44B9119A";
width = 416;
}
);
leftKerningGroup = O;
rightKerningGroup = O;
unicode = 01EA;
},
{
color = 3;
glyphname = Oslash;
layers = (
{
anchors = (
{
name = bottom;
position = "{363, 0}";
},
{
name = top;
position = "{363, 688}";
}
);
background = {
anchors = (
{
name = bottom;
position = "{363, 0}";
},
{
name = top;
position = "{363, 688}";
}
);
paths = (
{
closed = 1;
nodes = (
"127 -55 LINE",
"636 743 LINE",
"598 743 LINE",
"90 -55 LINE"
);
},
{
closed = 1;
nodes = (
"620 -8 OFFCURVE",
"636 31 OFFCURVE",
"636 344 CURVE SMOOTH",
"636 657 OFFCURVE",
"620 696 OFFCURVE",
"363 696 CURVE SMOOTH",
"106 696 OFFCURVE",
"90 657 OFFCURVE",
"90 344 CURVE SMOOTH",
"90 31 OFFCURVE",
"106 -8 OFFCURVE",
"363 -8 CURVE SMOOTH"
);
},
{
closed = 1;
nodes = (
"146 26 OFFCURVE",
"126 32 OFFCURVE",
"126 344 CURVE SMOOTH",
"126 656 OFFCURVE",
"146 662 OFFCURVE",
"363 662 CURVE SMOOTH",
"580 662 OFFCURVE",
"600 656 OFFCURVE",
"600 344 CURVE SMOOTH",
"600 32 OFFCURVE",
"580 26 OFFCURVE",
"363 26 CURVE SMOOTH"
);
}
);
};
layerId = UUID0;
paths = (
{
closed = 1;
nodes = (
"127 -55 LINE",
"636 743 LINE",
"598 743 LINE",
"90 -55 LINE"
);
},
{
closed = 1;
nodes = (
"620 -8 OFFCURVE",
"636 31 OFFCURVE",
"636 344 CURVE SMOOTH",
"636 657 OFFCURVE",
"620 696 OFFCURVE",
"363 696 CURVE SMOOTH",
"106 696 OFFCURVE",
"90 657 OFFCURVE",
"90 344 CURVE SMOOTH",
"90 31 OFFCURVE",
"106 -8 OFFCURVE",
"363 -8 CURVE SMOOTH"
);
},
{
closed = 1;
nodes = (
"146 26 OFFCURVE",
"126 32 OFFCURVE",
"126 344 CURVE SMOOTH",
"126 656 OFFCURVE",
"146 662 OFFCURVE",
"363 662 CURVE SMOOTH",
"580 662 OFFCURVE",
"600 656 OFFCURVE",
"600 344 CURVE SMOOTH",
"600 32 OFFCURVE",
"580 26 OFFCURVE",
"363 26 CURVE SMOOTH"
);
}
);
width = 726;
},
{
anchors = (
{
name = bottom;
position = "{348, 0}";
},
{
name = top;
position = "{348, 688}";
}
);
background = {
anchors = (
{
name = bottom;
position = "{348, 0}";
},
{
name = top;
position = "{348, 688}";
}
);
paths = (
{
closed = 1;
nodes = (
"215 -55 LINE",
"653 743 LINE",
"479 743 LINE",
"42 -55 LINE"
);
},
{
closed = 1;
nodes = (
"649 -8 OFFCURVE",
"653 73 OFFCURVE",
"653 344 CURVE SMOOTH",
"653 615 OFFCURVE",
"649 696 OFFCURVE",
"347 696 CURVE SMOOTH",
"45 696 OFFCURVE",
"42 615 OFFCURVE",
"42 344 CURVE SMOOTH",
"42 73 OFFCURVE",
"45 -8 OFFCURVE",
"347 -8 CURVE SMOOTH"
);
},
{
closed = 1;
nodes = (
"277 159 OFFCURVE",
"277 163 OFFCURVE",
"277 344 CURVE SMOOTH",
"277 525 OFFCURVE",
"277 529 OFFCURVE",
"347 529 CURVE SMOOTH",
"417 529 OFFCURVE",
"418 525 OFFCURVE",
"418 344 CURVE SMOOTH",
"418 163 OFFCURVE",
"417 159 OFFCURVE",
"347 159 CURVE SMOOTH"
);
}
);
};
layerId = "4F93A97B-747D-4721-B098-38A63C534D7A";
paths = (
{
closed = 1;
nodes = (
"215 -55 LINE",
"653 743 LINE",
"479 743 LINE",
"42 -55 LINE"
);
},
{
closed = 1;
nodes = (
"649 -8 OFFCURVE",
"653 73 OFFCURVE",
"653 344 CURVE SMOOTH",
"653 615 OFFCURVE",
"649 696 OFFCURVE",
"347 696 CURVE SMOOTH",
"45 696 OFFCURVE",
"42 615 OFFCURVE",
"42 344 CURVE SMOOTH",
"42 73 OFFCURVE",
"45 -8 OFFCURVE",
"347 -8 CURVE SMOOTH"
);
},
{
closed = 1;
nodes = (
"277 159 OFFCURVE",
"277 163 OFFCURVE",
"277 344 CURVE SMOOTH",
"277 525 OFFCURVE",
"277 529 OFFCURVE",
"347 529 CURVE SMOOTH",
"417 529 OFFCURVE",
"418 525 OFFCURVE",
"418 344 CURVE SMOOTH",
"418 163 OFFCURVE",
"417 159 OFFCURVE",
"347 159 CURVE SMOOTH"
);
}
);
width = 695;
},
{
anchors = (
{
name = bottom;
position = "{214, 0}";
},
{
name = top;
position = "{214, 688}";
}
);
background = {
anchors = (
{
name = bottom;
position = "{214, 0}";
},
{
name = top;
position = "{214, 688}";
}
);
paths = (
{
closed = 1;
nodes = (
"85 -55 LINE",
"378 743 LINE",
"343 743 LINE",
"50 -55 LINE"
);
},
{
closed = 1;
nodes = (
"360 -8 OFFCURVE",
"378 40 OFFCURVE",
"378 344 CURVE SMOOTH",
"378 648 OFFCURVE",
"360 696 OFFCURVE",
"214 696 CURVE SMOOTH",
"68 696 OFFCURVE",
"50 648 OFFCURVE",
"50 344 CURVE SMOOTH",
"50 40 OFFCURVE",
"68 -8 OFFCURVE",
"214 -8 CURVE SMOOTH"
);
},
{
closed = 1;
nodes = (
"95 26 OFFCURVE",
"86 31 OFFCURVE",
"86 344 CURVE SMOOTH",
"86 647 OFFCURVE",
"105 662 OFFCURVE",
"214 662 CURVE SMOOTH",
"334 662 OFFCURVE",
"342 655 OFFCURVE",
"342 344 CURVE SMOOTH",
"342 41 OFFCURVE",
"323 26 OFFCURVE",
"214 26 CURVE SMOOTH"
);
}
);
};
layerId = "E6BBBBE7-ECAD-4929-840D-43673C7BDEAF";
paths = (
{
closed = 1;
nodes = (
"85 -55 LINE",
"378 743 LINE",
"343 743 LINE",
"50 -55 LINE"
);
},
{
closed = 1;
nodes = (
"360 -8 OFFCURVE",
"378 40 OFFCURVE",
"378 344 CURVE SMOOTH",
"378 648 OFFCURVE",
"360 696 OFFCURVE",
"214 696 CURVE SMOOTH",
"68 696 OFFCURVE",
"50 648 OFFCURVE",
"50 344 CURVE SMOOTH",
"50 40 OFFCURVE",
"68 -8 OFFCURVE",
"214 -8 CURVE SMOOTH"
);
},
{
closed = 1;
nodes = (
"95 26 OFFCURVE",
"86 31 OFFCURVE",
"86 344 CURVE SMOOTH",
"86 647 OFFCURVE",
"105 662 OFFCURVE",
"214 662 CURVE SMOOTH",
"334 662 OFFCURVE",
"342 655 OFFCURVE",
"342 344 CURVE SMOOTH",
"342 41 OFFCURVE",
"323 26 OFFCURVE",
"214 26 CURVE SMOOTH"
);
}
);
width = 428;
},
{
anchors = (
{
name = bottom;
position = "{238, 0}";
},
{
name = top;
position = "{162, 688}";
}
);
background = {
anchors = (
{
name = bottom;
position = "{208, 0}";
},
{
name = top;
position = "{208, 688}";
}
);
paths = (
{
closed = 1;
nodes = (
"152 -55 LINE",
"392 743 LINE",
"264 743 LINE",
"24 -55 LINE"
);
},
{
closed = 1;
nodes = (
"392 -8 OFFCURVE",
"392 82 OFFCURVE",
"392 344 CURVE SMOOTH",
"392 607 OFFCURVE",
"392 696 OFFCURVE",
"208 696 CURVE SMOOTH",
"24 696 OFFCURVE",
"24 607 OFFCURVE",
"24 344 CURVE SMOOTH",
"24 82 OFFCURVE",
"24 -8 OFFCURVE",
"208 -8 CURVE SMOOTH"
);
},
{
closed = 1;
nodes = (
"178 131 OFFCURVE",
"178 133 OFFCURVE",
"178 344 CURVE SMOOTH",
"178 555 OFFCURVE",
"178 557 OFFCURVE",
"208 557 CURVE SMOOTH",
"238 557 OFFCURVE",
"238 555 OFFCURVE",
"238 344 CURVE SMOOTH",
"238 133 OFFCURVE",
"238 131 OFFCURVE",
"208 131 CURVE SMOOTH"
);
}
);
};
layerId = "7836D3B9-397C-42C1-8084-A98A44B9119A";
paths = (
{
closed = 1;
nodes = (
"152 -55 LINE",
"392 743 LINE",
"264 743 LINE",
"24 -55 LINE"
);
},
{
closed = 1;
nodes = (
"392 -8 OFFCURVE",
"392 82 OFFCURVE",
"392 344 CURVE SMOOTH",
"392 607 OFFCURVE",
"392 696 OFFCURVE",
"208 696 CURVE SMOOTH",
"24 696 OFFCURVE",
"24 607 OFFCURVE",
"24 344 CURVE SMOOTH",
"24 82 OFFCURVE",
"24 -8 OFFCURVE",
"208 -8 CURVE SMOOTH"
);
},
{
closed = 1;
nodes = (
"178 131 OFFCURVE",
"178 133 OFFCURVE",
"178 344 CURVE SMOOTH",
"178 555 OFFCURVE",
"178 557 OFFCURVE",
"208 557 CURVE SMOOTH",
"238 557 OFFCURVE",
"238 555 OFFCURVE",
"238 344 CURVE SMOOTH",
"238 133 OFFCURVE",
"238 131 OFFCURVE",
"208 131 CURVE SMOOTH"
);
}
);
width = 416;
},
{
anchors = (
{
name = bottom;
position = "{261, 0}";
},
{
name = top;
position = "{261, 688}";
}
);
background = {
anchors = (
{
name = bottom;
position = "{261, 0}";
},
{
name = top;
position = "{261, 688}";
}
);
paths = (
{
closed = 1;
nodes = (
"142 -55 LINE",
"474 743 LINE",
"379 743 LINE",
"47 -55 LINE"
);
},
{
closed = 1;
nodes = (
"465 -8 OFFCURVE",
"474 65 OFFCURVE",
"474 344 CURVE SMOOTH",
"474 623 OFFCURVE",
"465 696 OFFCURVE",
"260 696 CURVE SMOOTH",
"55 696 OFFCURVE",
"47 623 OFFCURVE",
"47 344 CURVE SMOOTH",
"47 65 OFFCURVE",
"55 -8 OFFCURVE",
"260 -8 CURVE SMOOTH"
);
},
{
closed = 1;
nodes = (
"165 93 OFFCURVE",
"159 99 OFFCURVE",
"159 344 CURVE SMOOTH",
"159 589 OFFCURVE",
"165 595 OFFCURVE",
"260 595 CURVE SMOOTH",
"355 595 OFFCURVE",
"362 589 OFFCURVE",
"362 344 CURVE SMOOTH",
"362 99 OFFCURVE",
"355 93 OFFCURVE",
"260 93 CURVE SMOOTH"
);
}
);
};
layerId = "374FF654-0B40-45EE-AE97-0DEB7620D1EC";
paths = (
{
closed = 1;
nodes = (
"142 -55 LINE",
"474 743 LINE",
"379 743 LINE",
"47 -55 LINE"
);
},
{
closed = 1;
nodes = (
"465 -8 OFFCURVE",
"474 65 OFFCURVE",
"474 344 CURVE SMOOTH",
"474 623 OFFCURVE",
"465 696 OFFCURVE",
"260 696 CURVE SMOOTH",
"55 696 OFFCURVE",
"47 623 OFFCURVE",
"47 344 CURVE SMOOTH",
"47 65 OFFCURVE",
"55 -8 OFFCURVE",
"260 -8 CURVE SMOOTH"
);
},
{
closed = 1;
nodes = (
"165 93 OFFCURVE",
"159 99 OFFCURVE",
"159 344 CURVE SMOOTH",
"159 589 OFFCURVE",
"165 595 OFFCURVE",
"260 595 CURVE SMOOTH",
"355 595 OFFCURVE",
"362 589 OFFCURVE",
"362 344 CURVE SMOOTH",
"362 99 OFFCURVE",
"355 93 OFFCURVE",
"260 93 CURVE SMOOTH"
);
}
);
width = 521;
},
{
anchors = (
{
name = bottom;
position = "{355, 0}";
},
{
name = top;
position = "{355, 688}";
}
);
background = {
anchors = (
{
name = bottom;
position = "{355, 0}";
},
{
name = top;
position = "{355, 688}";
}
);
paths = (
{
closed = 1;
nodes = (
"171 -55 LINE",
"644 743 LINE",
"537 743 LINE",
"65 -55 LINE"
);
},
{
closed = 1;
nodes = (
"631 -8 OFFCURVE",
"644 64 OFFCURVE",
"644 344 CURVE SMOOTH",
"644 624 OFFCURVE",
"631 696 OFFCURVE",
"354 696 CURVE SMOOTH",
"77 696 OFFCURVE",
"65 624 OFFCURVE",
"65 344 CURVE SMOOTH",
"65 64 OFFCURVE",
"77 -8 OFFCURVE",
"354 -8 CURVE SMOOTH"
);
},
{
closed = 1;
nodes = (
"199 100 OFFCURVE",
"193 105 OFFCURVE",
"193 344 CURVE SMOOTH",
"193 583 OFFCURVE",
"199 588 OFFCURVE",
"354 588 CURVE SMOOTH",
"509 588 OFFCURVE",
"516 583 OFFCURVE",
"516 344 CURVE SMOOTH",
"516 105 OFFCURVE",
"509 100 OFFCURVE",
"354 100 CURVE SMOOTH"
);
}
);
};
layerId = "E7A95A6A-7487-49EE-B62A-BA87B06E4B57";
paths = (
{
closed = 1;
nodes = (
"171 -55 LINE",
"644 743 LINE",
"537 743 LINE",
"65 -55 LINE"
);
},
{
closed = 1;
nodes = (
"631 -8 OFFCURVE",
"644 64 OFFCURVE",
"644 344 CURVE SMOOTH",
"644 624 OFFCURVE",
"631 696 OFFCURVE",
"354 696 CURVE SMOOTH",
"77 696 OFFCURVE",
"65 624 OFFCURVE",
"65 344 CURVE SMOOTH",
"65 64 OFFCURVE",
"77 -8 OFFCURVE",
"354 -8 CURVE SMOOTH"
);
},
{
closed = 1;
nodes = (
"199 100 OFFCURVE",
"193 105 OFFCURVE",
"193 344 CURVE SMOOTH",
"193 583 OFFCURVE",
"199 588 OFFCURVE",
"354 588 CURVE SMOOTH",
"509 588 OFFCURVE",
"516 583 OFFCURVE",
"516 344 CURVE SMOOTH",
"516 105 OFFCURVE",
"509 100 OFFCURVE",
"354 100 CURVE SMOOTH"
);
}
);
width = 709;
},
{
anchors = (
{
name = bottom;
position = "{363, 0}";
},
{
name = top;
position = "{363, 688}";
}
);
associatedMasterId = UUID0;
background = {
anchors = (
{
name = bottom;
position = "{363, 0}";
},
{
name = top;
position = "{363, 688}";
}
);
paths = (
{
closed = 1;
nodes = (
"127 -55 LINE",
"636 743 LINE",
"598 743 LINE",
"90 -55 LINE"
);
},
{
closed = 1;
nodes = (
"620 -8 OFFCURVE",
"636 31 OFFCURVE",
"636 344 CURVE SMOOTH",
"636 657 OFFCURVE",
"620 696 OFFCURVE",
"363 696 CURVE SMOOTH",
"106 696 OFFCURVE",
"90 657 OFFCURVE",
"90 344 CURVE SMOOTH",
"90 31 OFFCURVE",
"106 -8 OFFCURVE",
"363 -8 CURVE SMOOTH"
);
},
{
closed = 1;
nodes = (
"146 26 OFFCURVE",
"126 32 OFFCURVE",
"126 344 CURVE SMOOTH",
"126 656 OFFCURVE",
"146 662 OFFCURVE",
"363 662 CURVE SMOOTH",
"580 662 OFFCURVE",
"600 656 OFFCURVE",
"600 344 CURVE SMOOTH",
"600 32 OFFCURVE",
"580 26 OFFCURVE",
"363 26 CURVE SMOOTH"
);
}
);
};
layerId = "F252AAC5-571F-4C68-A538-CBB3134555B5";
name = "Light [110]";
paths = (
{
closed = 1;
nodes = (
"620 -8 OFFCURVE",
"636 31 OFFCURVE",
"636 344 CURVE SMOOTH",
"636 657 OFFCURVE",
"620 696 OFFCURVE",
"363 696 CURVE SMOOTH",
"106 696 OFFCURVE",
"90 657 OFFCURVE",
"90 344 CURVE SMOOTH",
"90 31 OFFCURVE",
"106 -8 OFFCURVE",
"363 -8 CURVE SMOOTH"
);
},
{
closed = 1;
nodes = (
"127 -55 LINE",
"182 31 LINE",
"158 52 LINE",
"90 -55 LINE"
);
},
{
closed = 1;
nodes = (
"146 26 OFFCURVE",
"126 32 OFFCURVE",
"126 344 CURVE SMOOTH",
"126 656 OFFCURVE",
"146 662 OFFCURVE",
"363 662 CURVE SMOOTH",
"580 662 OFFCURVE",
"600 656 OFFCURVE",
"600 344 CURVE SMOOTH",
"600 32 OFFCURVE",
"580 26 OFFCURVE",
"363 26 CURVE SMOOTH"
);
},
{
closed = 1;
nodes = (
"636 743 LINE",
"598 743 LINE",
"541 654 LINE",
"569 637 LINE"
);
}
);
width = 726;
},
{
anchors = (
{
name = bottom;
position = "{355, 0}";
},
{
name = top;
position = "{355, 688}";
}
);
associatedMasterId = "E7A95A6A-7487-49EE-B62A-BA87B06E4B57";
background = {
anchors = (
{
name = bottom;
position = "{355, 0}";
},
{
name = top;
position = "{355, 688}";
}
);
paths = (
{
closed = 1;
nodes = (
"171 -55 LINE",
"644 743 LINE",
"537 743 LINE",
"65 -55 LINE"
);
},
{
closed = 1;
nodes = (
"631 -8 OFFCURVE",
"644 64 OFFCURVE",
"644 344 CURVE SMOOTH",
"644 624 OFFCURVE",
"631 696 OFFCURVE",
"354 696 CURVE SMOOTH",
"77 696 OFFCURVE",
"65 624 OFFCURVE",
"65 344 CURVE SMOOTH",
"65 64 OFFCURVE",
"77 -8 OFFCURVE",
"354 -8 CURVE SMOOTH"
);
},
{
closed = 1;
nodes = (
"199 100 OFFCURVE",
"193 105 OFFCURVE",
"193 344 CURVE SMOOTH",
"193 583 OFFCURVE",
"199 588 OFFCURVE",
"354 588 CURVE SMOOTH",
"509 588 OFFCURVE",
"516 583 OFFCURVE",
"516 344 CURVE SMOOTH",
"516 105 OFFCURVE",
"509 100 OFFCURVE",
"354 100 CURVE SMOOTH"
);
}
);
};
layerId = "983A0C49-7F3B-4795-A9BF-954360171FBE";
name = "SemiBold [110]";
paths = (
{
closed = 1;
nodes = (
"631 -8 OFFCURVE",
"644 64 OFFCURVE",
"644 344 CURVE SMOOTH",
"644 624 OFFCURVE",
"631 696 OFFCURVE",
"354 696 CURVE SMOOTH",
"77 696 OFFCURVE",
"65 624 OFFCURVE",
"65 344 CURVE SMOOTH",
"65 64 OFFCURVE",
"77 -8 OFFCURVE",
"354 -8 CURVE SMOOTH"
);
},
{
closed = 1;
nodes = (
"171 -55 LINE",
"235 53 LINE",
"157 100 LINE",
"65 -55 LINE"
);
},
{
closed = 1;
nodes = (
"199 100 OFFCURVE",
"193 105 OFFCURVE",
"193 344 CURVE SMOOTH",
"193 583 OFFCURVE",
"199 588 OFFCURVE",
"354 588 CURVE SMOOTH",
"509 588 OFFCURVE",
"516 583 OFFCURVE",
"516 344 CURVE SMOOTH",
"516 105 OFFCURVE",
"509 100 OFFCURVE",
"354 100 CURVE SMOOTH"
);
},
{
closed = 1;
nodes = (
"644 743 LINE",
"537 743 LINE",
"477 641 LINE",
"556 595 LINE"
);
}
);
width = 709;
},
{
anchors = (
{
name = bottom;
position = "{348, 0}";
},
{
name = top;
position = "{348, 688}";
}
);
associatedMasterId = "4F93A97B-747D-4721-B098-38A63C534D7A";
background = {
anchors = (
{
name = bottom;
position = "{348, 0}";
},
{
name = top;
position = "{348, 688}";
}
);
paths = (
{
closed = 1;
nodes = (
"215 -55 LINE",
"653 743 LINE",
"479 743 LINE",
"42 -55 LINE"
);
},
{
closed = 1;
nodes = (
"649 -8 OFFCURVE",
"653 73 OFFCURVE",
"653 344 CURVE SMOOTH",
"653 615 OFFCURVE",
"649 696 OFFCURVE",
"347 696 CURVE SMOOTH",
"45 696 OFFCURVE",
"42 615 OFFCURVE",
"42 344 CURVE SMOOTH",
"42 73 OFFCURVE",
"45 -8 OFFCURVE",
"347 -8 CURVE SMOOTH"
);
},
{
closed = 1;
nodes = (
"277 159 OFFCURVE",
"277 163 OFFCURVE",
"277 344 CURVE SMOOTH",
"277 525 OFFCURVE",
"277 529 OFFCURVE",
"347 529 CURVE SMOOTH",
"417 529 OFFCURVE",
"418 525 OFFCURVE",
"418 344 CURVE SMOOTH",
"418 163 OFFCURVE",
"417 159 OFFCURVE",
"347 159 CURVE SMOOTH"
);
}
);
};
layerId = "9FC3188A-CEA2-436B-BC69-6AE14685B844";
name = "Bold [110]";
paths = (
{
closed = 1;
nodes = (
"649 -8 OFFCURVE",
"653 73 OFFCURVE",
"653 344 CURVE SMOOTH",
"653 615 OFFCURVE",
"649 696 OFFCURVE",
"347 696 CURVE SMOOTH",
"45 696 OFFCURVE",
"42 615 OFFCURVE",
"42 344 CURVE SMOOTH",
"42 73 OFFCURVE",
"45 -8 OFFCURVE",
"347 -8 CURVE SMOOTH"
);
},
{
closed = 1;
nodes = (
"215 -55 LINE",
"283 69 LINE",
"154 149 LINE",
"42 -55 LINE"
);
},
{
closed = 1;
nodes = (
"277 159 OFFCURVE",
"277 163 OFFCURVE",
"277 344 CURVE SMOOTH",
"277 525 OFFCURVE",
"277 529 OFFCURVE",
"347 529 CURVE SMOOTH",
"417 529 OFFCURVE",
"418 525 OFFCURVE",
"418 344 CURVE SMOOTH",
"418 163 OFFCURVE",
"417 159 OFFCURVE",
"347 159 CURVE SMOOTH"
);
},
{
closed = 1;
nodes = (
"653 743 LINE",
"479 743 LINE",
"405 608 LINE",
"540 536 LINE"
);
}
);
width = 695;
},
{
anchors = (
{
name = bottom;
position = "{214, 0}";
},
{
name = top;
position = "{214, 688}";
}
);
associatedMasterId = "E6BBBBE7-ECAD-4929-840D-43673C7BDEAF";
background = {
anchors = (
{
name = bottom;
position = "{214, 0}";
},
{
name = top;
position = "{214, 688}";
}
);
paths = (
{
closed = 1;
nodes = (
"85 -55 LINE",
"378 743 LINE",
"343 743 LINE",
"50 -55 LINE"
);
},
{
closed = 1;
nodes = (
"360 -8 OFFCURVE",
"378 40 OFFCURVE",
"378 344 CURVE SMOOTH",
"378 648 OFFCURVE",
"360 696 OFFCURVE",
"214 696 CURVE SMOOTH",
"68 696 OFFCURVE",
"50 648 OFFCURVE",
"50 344 CURVE SMOOTH",
"50 40 OFFCURVE",
"68 -8 OFFCURVE",
"214 -8 CURVE SMOOTH"
);
},
{
closed = 1;
nodes = (
"95 26 OFFCURVE",
"86 31 OFFCURVE",
"86 344 CURVE SMOOTH",
"86 647 OFFCURVE",
"105 662 OFFCURVE",
"214 662 CURVE SMOOTH",
"334 662 OFFCURVE",
"342 655 OFFCURVE",
"342 344 CURVE SMOOTH",
"342 41 OFFCURVE",
"323 26 OFFCURVE",
"214 26 CURVE SMOOTH"
);
}
);
};
layerId = "86DA39BA-72D1-41EE-AA06-AEDD9DC3F055";
name = "Light Condensed [110]";
paths = (
{
closed = 1;
nodes = (
"360 -8 OFFCURVE",
"378 40 OFFCURVE",
"378 344 CURVE SMOOTH",
"378 648 OFFCURVE",
"360 696 OFFCURVE",
"214 696 CURVE SMOOTH",
"68 696 OFFCURVE",
"50 648 OFFCURVE",
"50 344 CURVE SMOOTH",
"50 40 OFFCURVE",
"68 -8 OFFCURVE",
"214 -8 CURVE SMOOTH"
);
},
{
closed = 1;
nodes = (
"85 -55 LINE",
"116 29 LINE",
"91 57 LINE",
"50 -55 LINE"
);
},
{
closed = 1;
nodes = (
"95 26 OFFCURVE",
"86 31 OFFCURVE",
"86 344 CURVE SMOOTH",
"86 647 OFFCURVE",
"105 662 OFFCURVE",
"214 662 CURVE SMOOTH",
"334 662 OFFCURVE",
"342 655 OFFCURVE",
"342 344 CURVE SMOOTH",
"342 41 OFFCURVE",
"323 26 OFFCURVE",
"214 26 CURVE SMOOTH"
);
},
{
closed = 1;
nodes = (
"378 743 LINE",
"343 743 LINE",
"312 657 LINE",
"337 632 LINE"
);
}
);
width = 428;
},
{
anchors = (
{
name = bottom;
position = "{261, 0}";
},
{
name = top;
position = "{261, 688}";
}
);
associatedMasterId = "374FF654-0B40-45EE-AE97-0DEB7620D1EC";
background = {
anchors = (
{
name = bottom;
position = "{261, 0}";
},
{
name = top;
position = "{261, 688}";
}
);
paths = (
{
closed = 1;
nodes = (
"142 -55 LINE",
"474 743 LINE",
"379 743 LINE",
"47 -55 LINE"
);
},
{
closed = 1;
nodes = (
"465 -8 OFFCURVE",
"474 65 OFFCURVE",
"474 344 CURVE SMOOTH",
"474 623 OFFCURVE",
"465 696 OFFCURVE",
"260 696 CURVE SMOOTH",
"55 696 OFFCURVE",
"47 623 OFFCURVE",
"47 344 CURVE SMOOTH",
"47 65 OFFCURVE",
"55 -8 OFFCURVE",
"260 -8 CURVE SMOOTH"
);
},
{
closed = 1;
nodes = (
"165 93 OFFCURVE",
"159 99 OFFCURVE",
"159 344 CURVE SMOOTH",
"159 589 OFFCURVE",
"165 595 OFFCURVE",
"260 595 CURVE SMOOTH",
"355 595 OFFCURVE",
"362 589 OFFCURVE",
"362 344 CURVE SMOOTH",
"362 99 OFFCURVE",
"355 93 OFFCURVE",
"260 93 CURVE SMOOTH"
);
}
);
};
layerId = "E7323BDC-5D2A-4CC5-9F25-CE333B91E3AC";
name = "Semi Condensed [110]";
paths = (
{
closed = 1;
nodes = (
"465 -8 OFFCURVE",
"474 65 OFFCURVE",
"474 344 CURVE SMOOTH",
"474 623 OFFCURVE",
"465 696 OFFCURVE",
"260 696 CURVE SMOOTH",
"55 696 OFFCURVE",
"47 623 OFFCURVE",
"47 344 CURVE SMOOTH",
"47 65 OFFCURVE",
"55 -8 OFFCURVE",
"260 -8 CURVE SMOOTH"
);
},
{
closed = 1;
nodes = (
"142 -55 LINE",
"183 44 LINE",
"109 94 LINE",
"47 -55 LINE"
);
},
{
closed = 1;
nodes = (
"165 93 OFFCURVE",
"159 99 OFFCURVE",
"159 344 CURVE SMOOTH",
"159 589 OFFCURVE",
"165 595 OFFCURVE",
"260 595 CURVE SMOOTH",
"355 595 OFFCURVE",
"362 589 OFFCURVE",
"362 344 CURVE SMOOTH",
"362 99 OFFCURVE",
"355 93 OFFCURVE",
"260 93 CURVE SMOOTH"
);
},
{
closed = 1;
nodes = (
"474 743 LINE",
"379 743 LINE",
"339 647 LINE",
"416 605 LINE"
);
}
);
width = 521;
},
{
anchors = (
{
name = bottom;
position = "{238, 0}";
},
{
name = top;
position = "{162, 688}";
}
);
associatedMasterId = "7836D3B9-397C-42C1-8084-A98A44B9119A";
background = {
anchors = (
{
name = bottom;
position = "{208, 0}";
},
{
name = top;
position = "{208, 688}";
}
);
paths = (
{
closed = 1;
nodes = (
"152 -55 LINE",
"392 743 LINE",
"264 743 LINE",
"24 -55 LINE"
);
},
{
closed = 1;
nodes = (
"392 -8 OFFCURVE",
"392 82 OFFCURVE",
"392 344 CURVE SMOOTH",
"392 607 OFFCURVE",
"392 696 OFFCURVE",
"208 696 CURVE SMOOTH",
"24 696 OFFCURVE",
"24 607 OFFCURVE",
"24 344 CURVE SMOOTH",
"24 82 OFFCURVE",
"24 -8 OFFCURVE",
"208 -8 CURVE SMOOTH"
);
},
{
closed = 1;
nodes = (
"178 131 OFFCURVE",
"178 133 OFFCURVE",
"178 344 CURVE SMOOTH",
"178 555 OFFCURVE",
"178 557 OFFCURVE",
"208 557 CURVE SMOOTH",
"238 557 OFFCURVE",
"238 555 OFFCURVE",
"238 344 CURVE SMOOTH",
"238 133 OFFCURVE",
"238 131 OFFCURVE",
"208 131 CURVE SMOOTH"
);
}
);
};
layerId = "51E77474-5D64-4D46-91F3-301B8417FF19";
name = "Bold Condensed [110]";
paths = (
{
closed = 1;
nodes = (
"392 -8 OFFCURVE",
"392 82 OFFCURVE",
"392 344 CURVE SMOOTH",
"392 607 OFFCURVE",
"392 696 OFFCURVE",
"208 696 CURVE SMOOTH",
"24 696 OFFCURVE",
"24 607 OFFCURVE",
"24 344 CURVE SMOOTH",
"24 82 OFFCURVE",
"24 -8 OFFCURVE",
"208 -8 CURVE SMOOTH"
);
},
{
closed = 1;
nodes = (
"152 -55 LINE",
"187 60 LINE",
"82 137 LINE",
"24 -55 LINE"
);
},
{
closed = 1;
nodes = (
"178 131 OFFCURVE",
"178 133 OFFCURVE",
"178 344 CURVE SMOOTH",
"178 555 OFFCURVE",
"178 557 OFFCURVE",
"208 557 CURVE SMOOTH",
"238 557 OFFCURVE",
"238 555 OFFCURVE",
"238 344 CURVE SMOOTH",
"238 133 OFFCURVE",
"238 131 OFFCURVE",
"208 131 CURVE SMOOTH"
);
},
{
closed = 1;
nodes = (
"392 743 LINE",
"264 743 LINE",
"229 628 LINE",
"336 556 LINE"
);
}
);
width = 416;
}
);
leftKerningGroup = O;
rightKerningGroup = O;
unicode = 00D8;
},
{
glyphname = OE;
layers = (
{
anchors = (
{
name = bottom;
position = "{537, 0}";
},
{
name = top;
position = "{537, 688}";
}
);
background = {
anchors = (
{
name = top;
position = "{537, 688}";
}
);
paths = (
{
closed = 1;
nodes = (
"1016 0 LINE",
"1016 34 LINE",
"636 34 LINE SMOOTH",
"605 34 OFFCURVE",
"576 32 OFFCURVE",
"563 30 CURVE",
"628 70 OFFCURVE",
"635 156 OFFCURVE",
"636 331 CURVE",
"969 331 LINE",
"969 365 LINE",
"636 365 LINE",
"635 534 OFFCURVE",
"627 618 OFFCURVE",
"563 658 CURVE",
"576 656 OFFCURVE",
"605 654 OFFCURVE",
"636 654 CURVE SMOOTH",
"1016 654 LINE",
"1016 688 LINE",
"363 688 LINE SMOOTH",
"106 688 OFFCURVE",
"90 650 OFFCURVE",
"90 344 CURVE SMOOTH",
"90 38 OFFCURVE",
"106 0 OFFCURVE",
"363 0 CURVE SMOOTH"
);
},
{
closed = 1;
nodes = (
"146 34 OFFCURVE",
"126 40 OFFCURVE",
"126 344 CURVE SMOOTH",
"126 648 OFFCURVE",
"146 654 OFFCURVE",
"363 654 CURVE SMOOTH",
"580 654 OFFCURVE",
"600 648 OFFCURVE",
"600 344 CURVE SMOOTH",
"600 40 OFFCURVE",
"580 34 OFFCURVE",
"363 34 CURVE SMOOTH"
);
}
);
};
layerId = UUID0;
paths = (
{
closed = 1;
nodes = (
"1016 0 LINE",
"1016 34 LINE",
"636 34 LINE SMOOTH",
"605 34 OFFCURVE",
"576 32 OFFCURVE",
"563 30 CURVE",
"628 70 OFFCURVE",
"635 156 OFFCURVE",
"636 331 CURVE",
"969 331 LINE",
"969 365 LINE",
"636 365 LINE",
"635 534 OFFCURVE",
"627 618 OFFCURVE",
"563 658 CURVE",
"576 656 OFFCURVE",
"605 654 OFFCURVE",
"636 654 CURVE SMOOTH",
"1016 654 LINE",
"1016 688 LINE",
"363 688 LINE SMOOTH",
"106 688 OFFCURVE",
"90 650 OFFCURVE",
"90 344 CURVE SMOOTH",
"90 38 OFFCURVE",
"106 0 OFFCURVE",
"363 0 CURVE SMOOTH"
);
},
{
closed = 1;
nodes = (
"146 34 OFFCURVE",
"126 40 OFFCURVE",
"126 344 CURVE SMOOTH",
"126 648 OFFCURVE",
"146 654 OFFCURVE",
"363 654 CURVE SMOOTH",
"580 654 OFFCURVE",
"600 648 OFFCURVE",
"600 344 CURVE SMOOTH",
"600 40 OFFCURVE",
"580 34 OFFCURVE",
"363 34 CURVE SMOOTH"
);
}
);
width = 1073;
},
{
anchors = (
{
name = bottom;
position = "{487, 0}";
},
{
name = top;
position = "{487, 688}";
}
);
background = {
anchors = (
{
name = top;
position = "{487, 688}";
}
);
paths = (
{
closed = 1;
nodes = (
"926 0 LINE",
"926 167 LINE",
"707 167 LINE SMOOTH",
"669 167 OFFCURVE",
"644 162 OFFCURVE",
"636 159 CURVE",
"647 189 OFFCURVE",
"652 225 OFFCURVE",
"652 266 CURVE",
"879 266 LINE",
"879 429 LINE",
"652 429 LINE",
"649 467 OFFCURVE",
"644 500 OFFCURVE",
"636 529 CURVE",
"648 524 OFFCURVE",
"679 521 OFFCURVE",
"707 521 CURVE SMOOTH",
"926 521 LINE",
"926 688 LINE",
"347 688 LINE SMOOTH",
"45 688 OFFCURVE",
"42 609 OFFCURVE",
"42 344 CURVE SMOOTH",
"42 79 OFFCURVE",
"45 0 OFFCURVE",
"347 0 CURVE SMOOTH"
);
},
{
closed = 1;
nodes = (
"277 167 OFFCURVE",
"277 171 OFFCURVE",
"277 344 CURVE SMOOTH",
"277 517 OFFCURVE",
"277 521 OFFCURVE",
"347 521 CURVE SMOOTH",
"417 521 OFFCURVE",
"418 517 OFFCURVE",
"418 344 CURVE SMOOTH",
"418 171 OFFCURVE",
"417 167 OFFCURVE",
"347 167 CURVE SMOOTH"
);
}
);
};
layerId = "4F93A97B-747D-4721-B098-38A63C534D7A";
paths = (
{
closed = 1;
nodes = (
"926 0 LINE",
"926 167 LINE",
"707 167 LINE SMOOTH",
"669 167 OFFCURVE",
"644 162 OFFCURVE",
"636 159 CURVE",
"647 189 OFFCURVE",
"652 225 OFFCURVE",
"652 266 CURVE",
"879 266 LINE",
"879 429 LINE",
"652 429 LINE",
"649 467 OFFCURVE",
"644 500 OFFCURVE",
"636 529 CURVE",
"648 524 OFFCURVE",
"679 521 OFFCURVE",
"707 521 CURVE SMOOTH",
"926 521 LINE",
"926 688 LINE",
"347 688 LINE SMOOTH",
"45 688 OFFCURVE",
"42 609 OFFCURVE",
"42 344 CURVE SMOOTH",
"42 79 OFFCURVE",
"45 0 OFFCURVE",
"347 0 CURVE SMOOTH"
);
},
{
closed = 1;
nodes = (
"277 167 OFFCURVE",
"277 171 OFFCURVE",
"277 344 CURVE SMOOTH",
"277 517 OFFCURVE",
"277 521 OFFCURVE",
"347 521 CURVE SMOOTH",
"417 521 OFFCURVE",
"418 517 OFFCURVE",
"418 344 CURVE SMOOTH",
"418 171 OFFCURVE",
"417 167 OFFCURVE",
"347 167 CURVE SMOOTH"
);
}
);
width = 974;
},
{
anchors = (
{
name = bottom;
position = "{304, 0}";
},
{
name = top;
position = "{304, 688}";
}
);
background = {
anchors = (
{
name = top;
position = "{304, 688}";
}
);
paths = (
{
closed = 1;
nodes = (
"578 0 LINE",
"578 34 LINE",
"378 34 LINE SMOOTH",
"360 34 OFFCURVE",
"337 32 OFFCURVE",
"325 30 CURVE",
"368 66 OFFCURVE",
"377 157 OFFCURVE",
"378 331 CURVE",
"550 331 LINE",
"550 365 LINE",
"378 365 LINE",
"377 533 OFFCURVE",
"368 622 OFFCURVE",
"325 658 CURVE",
"338 656 OFFCURVE",
"362 654 OFFCURVE",
"378 654 CURVE SMOOTH",
"578 654 LINE",
"578 688 LINE",
"214 688 LINE SMOOTH",
"68 688 OFFCURVE",
"50 641 OFFCURVE",
"50 344 CURVE SMOOTH",
"50 47 OFFCURVE",
"68 0 OFFCURVE",
"214 0 CURVE SMOOTH"
);
},
{
closed = 1;
nodes = (
"105 34 OFFCURVE",
"86 49 OFFCURVE",
"86 344 CURVE SMOOTH",
"86 639 OFFCURVE",
"105 654 OFFCURVE",
"214 654 CURVE SMOOTH",
"323 654 OFFCURVE",
"342 639 OFFCURVE",
"342 344 CURVE SMOOTH",
"342 49 OFFCURVE",
"323 34 OFFCURVE",
"214 34 CURVE SMOOTH"
);
}
);
};
layerId = "E6BBBBE7-ECAD-4929-840D-43673C7BDEAF";
paths = (
{
closed = 1;
nodes = (
"578 0 LINE",
"578 34 LINE",
"378 34 LINE SMOOTH",
"360 34 OFFCURVE",
"337 32 OFFCURVE",
"325 30 CURVE",
"368 66 OFFCURVE",
"377 157 OFFCURVE",
"378 331 CURVE",
"550 331 LINE",
"550 365 LINE",
"378 365 LINE",
"377 533 OFFCURVE",
"368 622 OFFCURVE",
"325 658 CURVE",
"338 656 OFFCURVE",
"362 654 OFFCURVE",
"378 654 CURVE SMOOTH",
"578 654 LINE",
"578 688 LINE",
"214 688 LINE SMOOTH",
"68 688 OFFCURVE",
"50 641 OFFCURVE",
"50 344 CURVE SMOOTH",
"50 47 OFFCURVE",
"68 0 OFFCURVE",
"214 0 CURVE SMOOTH"
);
},
{
closed = 1;
nodes = (
"105 34 OFFCURVE",
"86 49 OFFCURVE",
"86 344 CURVE SMOOTH",
"86 639 OFFCURVE",
"105 654 OFFCURVE",
"214 654 CURVE SMOOTH",
"323 654 OFFCURVE",
"342 639 OFFCURVE",
"342 344 CURVE SMOOTH",
"342 49 OFFCURVE",
"323 34 OFFCURVE",
"214 34 CURVE SMOOTH"
);
}
);
width = 608;
},
{
anchors = (
{
name = bottom;
position = "{291, 0}";
},
{
name = top;
position = "{291, 688}";
}
);
background = {
anchors = (
{
name = top;
position = "{291, 688}";
}
);
paths = (
{
closed = 1;
nodes = (
"555 0 LINE",
"555 139 LINE",
"429 139 LINE SMOOTH",
"409 139 OFFCURVE",
"389 137 OFFCURVE",
"379 135 CURVE",
"388 173 OFFCURVE",
"391 220 OFFCURVE",
"392 278 CURVE",
"540 278 LINE",
"540 417 LINE",
"391 417 LINE",
"389 471 OFFCURVE",
"386 516 OFFCURVE",
"379 553 CURVE",
"391 551 OFFCURVE",
"411 549 OFFCURVE",
"429 549 CURVE SMOOTH",
"555 549 LINE",
"555 688 LINE",
"208 688 LINE SMOOTH",
"24 688 OFFCURVE",
"24 601 OFFCURVE",
"24 344 CURVE SMOOTH",
"24 88 OFFCURVE",
"24 0 OFFCURVE",
"208 0 CURVE SMOOTH"
);
},
{
closed = 1;
nodes = (
"178 139 OFFCURVE",
"178 141 OFFCURVE",
"178 344 CURVE SMOOTH",
"178 547 OFFCURVE",
"178 549 OFFCURVE",
"208 549 CURVE SMOOTH",
"238 549 OFFCURVE",
"238 547 OFFCURVE",
"238 344 CURVE SMOOTH",
"238 141 OFFCURVE",
"238 139 OFFCURVE",
"208 139 CURVE SMOOTH"
);
}
);
};
layerId = "7836D3B9-397C-42C1-8084-A98A44B9119A";
paths = (
{
closed = 1;
nodes = (
"555 0 LINE",
"555 139 LINE",
"429 139 LINE SMOOTH",
"409 139 OFFCURVE",
"389 137 OFFCURVE",
"379 135 CURVE",
"388 173 OFFCURVE",
"391 220 OFFCURVE",
"392 278 CURVE",
"540 278 LINE",
"540 417 LINE",
"391 417 LINE",
"389 471 OFFCURVE",
"386 516 OFFCURVE",
"379 553 CURVE",
"391 551 OFFCURVE",
"411 549 OFFCURVE",
"429 549 CURVE SMOOTH",
"555 549 LINE",
"555 688 LINE",
"208 688 LINE SMOOTH",
"24 688 OFFCURVE",
"24 601 OFFCURVE",
"24 344 CURVE SMOOTH",
"24 88 OFFCURVE",
"24 0 OFFCURVE",
"208 0 CURVE SMOOTH"
);
},
{
closed = 1;
nodes = (
"178 139 OFFCURVE",
"178 141 OFFCURVE",
"178 344 CURVE SMOOTH",
"178 547 OFFCURVE",
"178 549 OFFCURVE",
"208 549 CURVE SMOOTH",
"238 549 OFFCURVE",
"238 547 OFFCURVE",
"238 344 CURVE SMOOTH",
"238 141 OFFCURVE",
"238 139 OFFCURVE",
"208 139 CURVE SMOOTH"
);
}
);
width = 581;
},
{
anchors = (
{
name = bottom;
position = "{371, 0}";
},
{
name = top;
position = "{371, 688}";
}
);
background = {
anchors = (
{
name = top;
position = "{371, 688}";
}
);
paths = (
{
closed = 1;
nodes = (
"701 0 LINE",
"701 100 LINE",
"505 100 LINE SMOOTH",
"488 100 OFFCURVE",
"463 97 OFFCURVE",
"447 93 CURVE",
"468 140 OFFCURVE",
"474 205 OFFCURVE",
"475 296 CURVE",
"671 296 LINE",
"671 397 LINE",
"475 397 LINE",
"474 484 OFFCURVE",
"467 548 OFFCURVE",
"448 593 CURVE",
"461 589 OFFCURVE",
"483 587 OFFCURVE",
"505 587 CURVE SMOOTH",
"701 587 LINE",
"701 688 LINE",
"261 688 LINE SMOOTH",
"56 688 OFFCURVE",
"47 617 OFFCURVE",
"47 344 CURVE SMOOTH",
"47 70 OFFCURVE",
"56 0 OFFCURVE",
"261 0 CURVE SMOOTH"
);
},
{
closed = 1;
nodes = (
"166 100 OFFCURVE",
"160 107 OFFCURVE",
"160 344 CURVE SMOOTH",
"160 581 OFFCURVE",
"166 587 OFFCURVE",
"261 587 CURVE SMOOTH",
"356 587 OFFCURVE",
"362 580 OFFCURVE",
"362 344 CURVE SMOOTH",
"362 107 OFFCURVE",
"356 100 OFFCURVE",
"261 100 CURVE SMOOTH"
);
}
);
};
layerId = "374FF654-0B40-45EE-AE97-0DEB7620D1EC";
paths = (
{
closed = 1;
nodes = (
"701 0 LINE",
"701 100 LINE",
"505 100 LINE SMOOTH",
"488 100 OFFCURVE",
"463 97 OFFCURVE",
"447 93 CURVE",
"468 140 OFFCURVE",
"474 205 OFFCURVE",
"475 296 CURVE",
"671 296 LINE",
"671 397 LINE",
"475 397 LINE",
"474 484 OFFCURVE",
"467 548 OFFCURVE",
"448 593 CURVE",
"461 589 OFFCURVE",
"483 587 OFFCURVE",
"505 587 CURVE SMOOTH",
"701 587 LINE",
"701 688 LINE",
"261 688 LINE SMOOTH",
"56 688 OFFCURVE",
"47 617 OFFCURVE",
"47 344 CURVE SMOOTH",
"47 70 OFFCURVE",
"56 0 OFFCURVE",
"261 0 CURVE SMOOTH"
);
},
{
closed = 1;
nodes = (
"166 100 OFFCURVE",
"160 107 OFFCURVE",
"160 344 CURVE SMOOTH",
"160 581 OFFCURVE",
"166 587 OFFCURVE",
"261 587 CURVE SMOOTH",
"356 587 OFFCURVE",
"362 580 OFFCURVE",
"362 344 CURVE SMOOTH",
"362 107 OFFCURVE",
"356 100 OFFCURVE",
"261 100 CURVE SMOOTH"
);
}
);
width = 739;
},
{
anchors = (
{
name = bottom;
position = "{504, 0}";
},
{
name = top;
position = "{504.419, 688}";
}
);
associatedMasterId = UUID0;
background = {
paths = (
{
closed = 1;
nodes = (
"935 0 LINE",
"935 122 LINE",
"670 122 LINE SMOOTH",
"635 122 OFFCURVE",
"609 118 OFFCURVE",
"599 115 CURVE",
"627 150 OFFCURVE",
"633 203 OFFCURVE",
"633 288 CURVE",
"889 288 LINE",
"889 407 LINE",
"633 407 LINE",
"631 488 OFFCURVE",
"625 539 OFFCURVE",
"599 573 CURVE",
"612 569 OFFCURVE",
"641 566 OFFCURVE",
"670 566 CURVE SMOOTH",
"935 566 LINE",
"935 688 LINE",
"345 688 LINE SMOOTH",
"64 688 OFFCURVE",
"57 622 OFFCURVE",
"57 344 CURVE SMOOTH",
"57 66 OFFCURVE",
"64 0 OFFCURVE",
"345 0 CURVE SMOOTH"
);
},
{
closed = 1;
nodes = (
"228 122 OFFCURVE",
"222 127 OFFCURVE",
"222 344 CURVE SMOOTH",
"222 561 OFFCURVE",
"228 566 OFFCURVE",
"344 566 CURVE SMOOTH",
"460 566 OFFCURVE",
"467 561 OFFCURVE",
"467 344 CURVE SMOOTH",
"467 127 OFFCURVE",
"460 122 OFFCURVE",
"344 122 CURVE SMOOTH"
);
}
);
};
layerId = "1B52728B-49C6-4FB8-9CE2-5E1D046EB11E";
name = "Intermediate {152, 307}";
paths = (
{
closed = 1;
nodes = (
"953 0 LINE",
"953 133 LINE",
"694 133 LINE SMOOTH",
"671 133 OFFCURVE",
"642 130 OFFCURVE",
"623 125 CURVE",
"640 165 OFFCURVE",
"645 217 OFFCURVE",
"647 281 CURVE",
"906 281 LINE",
"906 414 LINE",
"646 414 LINE",
"644 474 OFFCURVE",
"639 523 OFFCURVE",
"623 563 CURVE",
"642 558 OFFCURVE",
"671 555 OFFCURVE",
"694 555 CURVE SMOOTH",
"953 555 LINE",
"953 688 LINE",
"352 688 LINE SMOOTH",
"64 688 OFFCURVE",
"56 610 OFFCURVE",
"56 344 CURVE SMOOTH",
"56 78 OFFCURVE",
"64 0 OFFCURVE",
"352 0 CURVE SMOOTH"
);
},
{
closed = 1;
nodes = (
"227 133 OFFCURVE",
"223 138 OFFCURVE",
"223 344 CURVE SMOOTH",
"223 550 OFFCURVE",
"227 555 OFFCURVE",
"352 555 CURVE SMOOTH",
"477 555 OFFCURVE",
"480 550 OFFCURVE",
"480 344 CURVE SMOOTH",
"480 138 OFFCURVE",
"477 133 OFFCURVE",
"352 133 CURVE SMOOTH"
);
}
);
width = 1008;
},
{
anchors = (
{
name = bottom;
position = "{511, 0}";
},
{
name = top;
position = "{511, 688}";
}
);
background = {
anchors = (
{
name = top;
position = "{511, 688}";
}
);
paths = (
{
closed = 1;
nodes = (
"965 0 LINE",
"965 108 LINE",
"685 108 LINE SMOOTH",
"665 108 OFFCURVE",
"638 105 OFFCURVE",
"613 100 CURVE",
"637 146 OFFCURVE",
"643 208 OFFCURVE",
"644 293 CURVE",
"918 293 LINE",
"918 401 LINE",
"644 401 LINE",
"643 481 OFFCURVE",
"635 543 OFFCURVE",
"613 588 CURVE",
"638 583 OFFCURVE",
"665 580 OFFCURVE",
"685 580 CURVE SMOOTH",
"965 580 LINE",
"965 688 LINE",
"354 688 LINE SMOOTH",
"77 688 OFFCURVE",
"65 618 OFFCURVE",
"65 344 CURVE SMOOTH",
"65 70 OFFCURVE",
"77 0 OFFCURVE",
"354 0 CURVE SMOOTH"
);
},
{
closed = 1;
nodes = (
"199 108 OFFCURVE",
"193 113 OFFCURVE",
"193 344 CURVE SMOOTH",
"193 575 OFFCURVE",
"199 580 OFFCURVE",
"354 580 CURVE SMOOTH",
"509 580 OFFCURVE",
"516 575 OFFCURVE",
"516 344 CURVE SMOOTH",
"516 113 OFFCURVE",
"509 108 OFFCURVE",
"354 108 CURVE SMOOTH"
);
}
);
};
layerId = "E7A95A6A-7487-49EE-B62A-BA87B06E4B57";
paths = (
{
closed = 1;
nodes = (
"965 0 LINE",
"965 108 LINE",
"685 108 LINE SMOOTH",
"665 108 OFFCURVE",
"638 105 OFFCURVE",
"613 100 CURVE",
"637 146 OFFCURVE",
"643 208 OFFCURVE",
"644 293 CURVE",
"918 293 LINE",
"918 401 LINE",
"644 401 LINE",
"643 481 OFFCURVE",
"635 543 OFFCURVE",
"613 588 CURVE",
"638 583 OFFCURVE",
"665 580 OFFCURVE",
"685 580 CURVE SMOOTH",
"965 580 LINE",
"965 688 LINE",
"354 688 LINE SMOOTH",
"77 688 OFFCURVE",
"65 618 OFFCURVE",
"65 344 CURVE SMOOTH",
"65 70 OFFCURVE",
"77 0 OFFCURVE",
"354 0 CURVE SMOOTH"
);
},
{
closed = 1;
nodes = (
"199 108 OFFCURVE",
"193 113 OFFCURVE",
"193 344 CURVE SMOOTH",
"193 575 OFFCURVE",
"199 580 OFFCURVE",
"354 580 CURVE SMOOTH",
"509 580 OFFCURVE",
"516 575 OFFCURVE",
"516 344 CURVE SMOOTH",
"516 113 OFFCURVE",
"509 108 OFFCURVE",
"354 108 CURVE SMOOTH"
);
}
);
width = 1021;
}
);
leftKerningGroup = O;
rightKerningGroup = E;
unicode = 0152;
},
